{"glyphs":{"0":{"ha":1797,"x_min":82,"x_max":1715,"o":"m 82 472 q 275 831 82 718 q 899 964 507 964 q 1524 831 1294 964 q 1715 472 1715 718 q 1524 114 1715 226 q 899 -19 1294 -19 q 275 113 504 -19 q 82 472 82 224 m 213 471 q 371 194 213 283 q 899 89 563 89 q 1432 194 1240 89 q 1585 471 1585 279 q 1431 750 1585 664 q 899 856 1242 856 q 367 750 558 856 q 213 471 213 664 z "},"1":{"ha":979,"x_min":68,"x_max":810,"o":"m 810 0 l 679 0 l 679 818 l 675 818 l 81 621 l 68 621 l 68 731 l 754 958 l 810 958 l 810 0 z "},"2":{"ha":1621,"x_min":101,"x_max":1519,"o":"m 171 789 l 150 894 q 458 942 263 921 q 821 964 654 964 q 1335 903 1168 964 q 1519 660 1519 835 q 1389 447 1519 500 q 803 400 1272 400 q 363 369 474 400 q 232 214 232 332 l 232 108 l 1494 108 l 1494 0 l 101 0 l 101 168 q 142 357 101 286 q 296 465 183 428 q 488 500 374 492 q 803 508 601 508 q 1303 538 1214 508 q 1389 663 1389 565 q 1285 804 1389 763 q 821 856 1156 856 q 171 789 483 856 z "},"3":{"ha":1525,"x_min":82,"x_max":1431,"o":"m 82 43 l 96 150 q 686 88 417 88 q 990 102 867 88 q 1179 146 1113 117 q 1273 210 1246 175 q 1300 296 1300 246 q 1251 400 1300 367 q 1078 433 1201 433 l 518 433 l 518 533 l 1061 533 q 1269 669 1269 533 q 1247 740 1269 710 q 1167 799 1225 771 q 994 841 1110 826 q 711 856 879 856 q 417 839 568 856 q 189 806 267 822 l 110 790 l 89 894 q 175 914 119 903 q 394 944 231 925 q 711 964 557 964 q 1052 942 913 964 q 1265 881 1192 921 q 1369 793 1339 840 q 1400 685 1400 746 q 1278 492 1400 535 l 1278 488 q 1392 416 1354 468 q 1431 296 1431 364 q 1415 198 1431 240 q 1351 113 1399 156 q 1224 43 1304 71 q 1007 -2 1143 15 q 686 -19 871 -19 q 409 -4 560 -19 q 169 28 258 11 l 82 43 z "},"4":{"ha":1669,"x_min":53,"x_max":1603,"o":"m 1389 0 l 1258 0 l 1258 197 l 53 197 l 53 285 l 1246 944 l 1389 944 l 1389 306 l 1603 306 l 1603 197 l 1389 197 l 1389 0 m 290 297 q 479 306 392 306 l 1258 306 l 1258 824 l 1251 824 l 453 382 q 384 347 425 367 q 317 317 343 328 l 289 304 l 290 297 z "},"5":{"ha":1579,"x_min":101,"x_max":1485,"o":"m 1375 944 l 1375 836 l 271 836 l 243 554 l 247 551 q 808 579 539 579 q 1344 519 1199 579 q 1485 290 1485 461 q 1317 40 1485 106 q 779 -19 1165 -19 q 118 29 442 -19 l 131 135 q 779 89 481 89 q 1088 99 976 89 q 1263 139 1200 108 q 1351 289 1351 181 q 1247 433 1351 399 q 796 471 1133 471 q 490 463 658 471 q 222 447 321 456 l 122 440 l 101 461 l 150 944 l 1375 944 z "},"6":{"ha":1733,"x_min":101,"x_max":1643,"o":"m 1551 893 l 1529 788 q 933 856 1239 856 q 350 744 515 856 q 235 529 244 674 q 238 528 236 529 q 240 528 239 528 q 365 543 282 533 q 614 563 447 553 q 933 574 781 574 q 1444 532 1290 574 q 1594 448 1546 504 q 1643 294 1643 392 q 1532 75 1643 146 q 936 -19 1382 -19 q 292 93 494 -19 q 101 457 101 199 q 272 824 101 708 q 933 964 482 964 q 1551 893 1278 964 m 933 465 q 235 426 631 465 l 235 422 q 372 181 239 258 q 936 89 529 89 q 1414 144 1294 89 q 1510 294 1510 189 q 1364 439 1510 408 q 933 465 1239 465 z "},"7":{"ha":1639,"x_min":67,"x_max":1572,"o":"m 425 0 l 240 0 l 240 14 l 1204 713 q 1283 763 1231 731 q 1375 817 1335 794 l 1414 840 l 1413 847 q 1160 836 1253 836 l 67 836 l 67 944 l 1572 944 l 1572 832 l 425 0 z "},"8":{"ha":1692,"x_min":82,"x_max":1610,"o":"m 1492 63 q 846 -19 1336 -19 q 200 63 356 -19 q 82 267 82 125 q 194 456 82 394 q 311 492 243 482 l 311 497 q 217 526 253 506 q 124 689 124 575 q 235 872 124 813 q 846 964 404 964 q 1457 872 1288 964 q 1568 689 1568 813 q 1475 526 1568 575 q 1381 497 1439 506 l 1381 492 q 1497 456 1449 482 q 1610 267 1610 394 q 1492 63 1610 125 m 308 139 q 846 89 435 89 q 1383 139 1257 89 q 1479 274 1479 176 q 1393 400 1479 363 q 1039 436 1311 436 l 653 436 q 299 400 381 436 q 213 274 213 363 q 308 139 213 176 m 354 574 q 653 544 449 544 l 1039 544 q 1338 574 1243 544 q 1438 688 1438 606 q 1347 807 1438 772 q 846 856 1221 856 q 344 807 471 856 q 254 688 254 772 q 354 574 254 606 z "},"9":{"ha":1733,"x_min":90,"x_max":1632,"o":"m 1388 200 q 1499 431 1497 275 l 1496 431 q 767 367 1124 367 q 281 403 411 367 q 90 643 90 454 q 232 871 90 794 q 797 964 408 964 q 1440 847 1235 964 q 1581 700 1529 796 q 1632 478 1632 604 q 1597 263 1632 349 q 1472 114 1561 176 q 776 -19 1283 -19 q 165 44 429 -19 l 165 153 q 776 89 460 89 q 1158 119 999 89 q 1388 200 1317 150 m 342 501 q 767 475 449 475 q 1076 488 901 475 q 1363 513 1251 500 q 1499 531 1474 525 q 1356 765 1486 692 q 797 856 1193 856 q 310 789 432 856 q 224 643 224 740 q 342 501 224 531 z "},"\r":{"ha":556,"x_min":0,"x_max":0,"o":""},"\u0000":{"ha":0,"x_min":0,"x_max":0,"o":""}," ":{"ha":556,"x_min":0,"x_max":0,"o":""},"!":{"ha":556,"x_min":199,"x_max":357,"o":"m 236 958 l 319 958 q 350 926 350 958 l 350 810 q 342 615 350 742 q 326 394 333 488 l 319 303 l 236 303 q 206 810 206 656 l 206 926 q 236 958 206 958 m 278 -14 q 238 -14 278 -14 q 199 64 199 -14 q 278 142 199 142 q 357 64 357 142 q 278 -14 357 -14 z "},"\"":{"ha":592,"x_min":83,"x_max":508,"o":"m 122 1000 l 172 1000 q 211 956 211 1000 l 211 933 q 204 829 211 900 q 189 706 197 758 l 182 651 l 113 651 q 83 933 83 858 l 83 956 q 122 1000 83 1000 m 419 1000 l 469 1000 q 508 956 508 1000 l 508 933 q 501 829 508 900 q 486 706 494 758 l 479 651 l 410 651 q 381 933 381 858 l 381 956 q 419 1000 381 1000 z "},"#":{"ha":1667,"x_min":108,"x_max":1558,"o":"m 1358 944 l 1314 719 l 1558 719 l 1558 625 l 1296 625 l 1236 319 l 1558 319 l 1558 225 l 1218 225 l 1175 0 l 1042 0 l 1085 225 l 485 225 l 442 0 l 308 0 l 351 225 l 108 225 l 108 319 l 369 319 l 429 625 l 108 625 l 108 719 l 447 719 l 492 944 l 625 944 l 581 719 l 1181 719 l 1225 944 l 1358 944 m 563 625 l 503 319 l 1103 319 l 1163 625 l 563 625 z "},"$":{"ha":1667,"x_min":74,"x_max":1593,"o":"m 628 -139 l 628 3 q 356 19 483 8 q 172 39 228 31 l 115 47 l 128 157 q 628 113 329 124 l 628 428 q 203 472 313 432 q 74 663 74 519 q 232 878 74 817 q 628 940 357 926 l 628 1083 l 722 1083 l 722 943 q 776 944 739 943 q 832 944 813 944 q 942 943 906 944 l 942 1083 l 1036 1083 l 1036 940 q 1501 893 1315 928 l 1486 788 q 1036 832 1268 822 l 1036 533 q 1400 506 1286 531 q 1593 292 1593 464 q 1564 156 1593 208 q 1468 72 1535 104 q 1036 3 1340 11 l 1036 -139 l 942 -139 l 942 0 l 832 0 l 722 0 l 722 -139 l 628 -139 m 1335 408 q 1036 425 1246 422 l 1036 110 q 1382 160 1285 117 q 1447 213 1431 181 q 1463 292 1463 244 q 1335 408 1463 386 m 303 560 q 628 535 374 539 l 628 832 q 310 789 411 824 q 215 668 215 756 q 303 560 215 585 m 832 108 l 942 108 l 942 426 l 832 426 l 722 426 l 722 110 q 832 108 757 108 m 722 535 l 832 535 l 942 535 l 942 835 q 832 836 906 836 q 722 835 757 836 l 722 535 z "},"%":{"ha":1667,"x_min":51,"x_max":1617,"o":"m 372 463 q 212 463 372 463 q 51 711 51 463 q 372 960 51 960 q 693 711 693 960 q 372 463 693 463 m 201 838 q 174 818 201 838 q 146 711 146 799 q 201 585 146 624 q 372 546 257 546 q 543 585 488 546 q 599 711 599 624 q 543 838 599 799 q 372 876 488 876 q 201 838 257 876 m 251 -14 l 1301 972 l 1417 972 l 1417 958 l 367 -28 l 251 -28 l 251 -14 m 1296 -14 q 1135 -14 1296 -14 q 975 235 975 -14 q 1296 483 975 483 q 1617 235 1617 483 q 1296 -14 1617 -14 m 1125 361 q 1097 342 1125 361 q 1069 235 1069 322 q 1125 108 1069 147 q 1296 69 1181 69 q 1467 108 1411 69 q 1522 235 1522 147 q 1467 361 1522 322 q 1296 400 1411 400 q 1125 361 1181 400 z "},"&":{"ha":1667,"x_min":50,"x_max":1618,"o":"m 1464 -19 q 1203 100 1268 -19 l 1199 100 q 975 16 1118 51 q 664 -19 832 -19 q 178 60 325 -19 q 50 281 50 129 q 256 517 50 475 l 256 519 q 150 686 150 556 q 281 885 150 819 q 782 963 436 963 q 1007 952 886 963 q 1197 932 1128 942 l 1265 922 l 1250 819 q 782 858 1033 858 q 367 806 489 858 q 283 692 283 769 q 369 576 283 601 q 547 558 431 558 l 1615 558 l 1615 450 l 1301 450 l 1301 247 q 1344 124 1301 160 q 1472 89 1386 89 q 1538 92 1504 89 q 1589 100 1572 96 l 1607 103 l 1618 0 q 1464 -19 1551 -19 m 1142 186 q 1171 235 1171 203 l 1171 450 l 533 450 q 267 418 342 450 q 183 281 183 383 q 272 142 183 186 q 664 89 378 89 q 1142 186 972 89 z "},"'":{"ha":294,"x_min":83,"x_max":211,"o":"m 122 1000 l 172 1000 q 211 956 211 1000 l 211 933 q 204 829 211 900 q 189 706 197 758 l 182 651 l 113 651 q 83 933 83 858 l 83 956 q 122 1000 83 1000 z "},"(":{"ha":536,"x_min":139,"x_max":494,"o":"m 272 417 q 332 32 272 176 q 494 -211 392 -112 l 494 -236 l 393 -236 q 328 -178 354 -204 q 263 -97 303 -153 q 199 24 224 -40 q 157 190 175 88 q 139 417 139 293 q 157 628 139 531 q 197 785 175 725 q 260 905 219 846 q 325 990 300 964 q 393 1056 350 1015 l 494 1056 l 494 1031 q 382 892 426 961 q 305 699 338 822 q 272 417 272 576 z "},")":{"ha":536,"x_min":42,"x_max":397,"o":"m 264 417 q 231 699 264 576 q 154 892 199 822 q 42 1031 110 961 l 42 1056 l 143 1056 q 211 990 186 1015 q 276 905 236 964 q 339 785 317 846 q 379 628 361 725 q 397 417 397 531 q 379 190 397 293 q 337 24 361 88 q 273 -97 313 -40 q 208 -178 233 -153 q 143 -236 182 -204 l 42 -236 l 42 -211 q 204 32 144 -112 q 264 417 264 176 z "},"*":{"ha":833,"x_min":72,"x_max":764,"o":"m 465 958 l 465 786 l 461 674 l 465 671 q 571 710 546 701 l 735 763 l 764 672 l 600 619 l 493 589 l 490 582 q 560 494 544 517 l 661 356 l 585 300 l 483 439 l 421 531 l 414 531 q 353 439 368 460 l 251 300 l 175 356 l 276 494 l 344 581 l 342 589 q 236 619 261 611 l 72 672 l 101 763 l 265 710 l 371 671 l 375 674 q 371 786 371 758 l 371 958 l 465 958 z "},"+":{"ha":1667,"x_min":208,"x_max":1458,"o":"m 1458 383 l 886 383 l 886 28 l 781 28 l 781 383 l 208 383 l 208 478 l 781 478 l 781 833 l 886 833 l 886 478 l 1458 478 l 1458 383 z "},",":{"ha":417,"x_min":129,"x_max":288,"o":"m 129 64 q 208 142 129 142 q 288 64 288 142 q 253 -74 288 13 l 217 -167 l 144 -167 l 144 -156 l 181 -15 l 181 -11 q 129 64 129 0 z "},"-":{"ha":833,"x_min":89,"x_max":744,"o":"m 744 369 l 89 369 l 89 464 l 744 464 l 744 369 z "},".":{"ha":417,"x_min":129,"x_max":288,"o":"m 208 -14 q 169 -14 208 -14 q 129 64 129 -14 q 208 142 129 142 q 288 64 288 142 q 208 -14 288 -14 z "},"/":{"ha":660,"x_min":-28,"x_max":688,"o":"m -28 -125 l 579 972 l 688 972 l 688 958 l 81 -139 l -28 -139 l -28 -125 z "},":":{"ha":417,"x_min":129,"x_max":288,"o":"m 208 -14 q 169 -14 208 -14 q 129 64 129 -14 q 208 142 129 142 q 288 64 288 142 q 208 -14 288 -14 m 208 525 q 169 525 208 525 q 129 603 129 525 q 208 681 129 681 q 288 603 288 681 q 208 525 288 525 z "},";":{"ha":417,"x_min":129,"x_max":288,"o":"m 129 64 q 208 142 129 142 q 288 64 288 142 q 253 -74 288 13 l 217 -167 l 144 -167 l 144 -156 l 181 -15 l 181 -11 q 129 64 129 0 m 208 525 q 169 525 208 525 q 129 603 129 525 q 208 681 129 681 q 288 603 288 681 q 208 525 288 525 z "},"<":{"ha":1667,"x_min":208,"x_max":1458,"o":"m 1458 675 l 614 449 q 519 427 575 438 q 425 411 463 417 l 388 406 l 388 400 q 614 357 528 381 l 1458 131 l 1458 22 l 208 356 l 208 449 l 1458 783 l 1458 675 z "},"=":{"ha":1667,"x_min":208,"x_max":1458,"o":"m 1458 224 l 208 224 l 208 318 l 1458 318 l 1458 224 m 1458 543 l 208 543 l 208 638 l 1458 638 l 1458 543 z "},">":{"ha":1667,"x_min":208,"x_max":1458,"o":"m 1053 449 l 208 675 l 208 783 l 1458 449 l 1458 356 l 208 22 l 208 131 l 1053 357 q 1148 378 1092 368 q 1242 394 1204 389 l 1279 400 l 1279 406 q 1053 449 1140 425 z "},"?":{"ha":1667,"x_min":89,"x_max":1517,"o":"m 689 267 l 558 267 l 558 476 l 576 492 q 975 479 769 479 q 1294 517 1215 479 q 1386 663 1386 560 q 1356 760 1386 725 q 1258 814 1326 796 q 742 856 1107 856 q 417 844 581 856 q 172 822 254 833 l 89 811 l 89 914 q 742 964 383 964 q 1325 910 1146 964 q 1517 663 1517 850 q 1472 503 1517 568 q 1344 411 1428 439 q 978 371 1229 371 q 852 374 924 371 q 736 381 781 378 l 692 383 l 689 381 l 689 267 m 624 -14 q 584 -14 624 -14 q 544 64 544 -14 q 624 142 544 142 q 703 64 703 142 q 624 -14 703 -14 z "},"@":{"ha":1667,"x_min":39,"x_max":1617,"o":"m 1286 94 q 1074 214 1118 94 l 1069 214 q 700 92 897 92 q 453 158 540 92 q 365 340 365 224 q 463 567 365 476 q 778 658 561 658 q 946 640 861 658 q 1072 604 1031 622 l 1115 586 l 1118 586 l 1147 644 l 1256 644 l 1207 397 q 1192 281 1192 321 q 1294 194 1192 194 q 1455 262 1399 194 q 1511 442 1511 329 q 1471 609 1511 528 q 1364 739 1431 690 q 833 869 1185 869 q 308 739 486 869 q 190 592 236 686 q 144 375 144 497 q 189 160 144 253 q 306 13 233 67 q 858 -119 481 -119 q 1178 -99 1028 -119 q 1393 -58 1328 -79 l 1458 -39 l 1478 -131 q 1453 -140 1469 -133 q 1378 -160 1436 -146 q 1253 -185 1319 -174 q 1081 -205 1188 -196 q 858 -214 974 -214 q 235 -62 435 -214 q 92 116 146 4 q 39 375 39 228 q 94 633 39 521 q 238 811 150 746 q 833 964 446 964 q 1179 922 1022 964 q 1432 811 1336 879 q 1566 651 1515 751 q 1617 442 1617 550 q 1526 184 1617 274 q 1286 94 1435 94 m 700 194 q 1064 335 907 194 l 1093 488 q 781 556 939 556 q 496 340 496 556 q 547 235 496 276 q 700 194 599 194 z "},"A":{"ha":1914,"x_min":56,"x_max":1858,"o":"m 1692 0 l 1497 211 l 415 211 l 222 0 l 56 0 l 56 10 l 911 944 l 1003 944 l 1858 10 l 1858 0 l 1692 0 m 785 613 l 515 319 l 1399 319 l 1129 613 q 958 806 1008 743 l 956 806 l 785 613 z "},"B":{"ha":1781,"x_min":139,"x_max":1656,"o":"m 1489 501 l 1489 497 q 1613 410 1571 469 q 1656 275 1656 351 q 1563 69 1656 138 q 1268 0 1469 0 l 139 0 l 139 944 l 1257 944 q 1534 874 1450 944 q 1618 694 1618 803 q 1582 572 1618 621 q 1489 501 1546 524 m 1282 436 l 278 436 l 278 108 l 1263 108 q 1456 149 1397 108 q 1514 272 1514 190 q 1282 436 1514 436 m 278 544 l 1300 544 q 1427 578 1376 544 q 1478 685 1478 611 q 1240 836 1478 836 l 278 836 l 278 544 z "},"C":{"ha":1828,"x_min":111,"x_max":1717,"o":"m 1704 853 l 1704 851 l 1678 742 q 954 847 1296 847 q 397 735 571 847 q 253 457 253 640 q 400 188 253 268 q 974 97 563 97 q 1349 132 1150 97 q 1692 211 1547 167 l 1717 97 q 1376 17 1581 53 q 974 -19 1172 -19 q 568 8 721 -19 q 304 97 415 35 q 163 242 214 149 q 111 457 111 336 q 304 824 111 697 q 954 964 517 964 q 1704 853 1368 964 z "},"D":{"ha":1861,"x_min":139,"x_max":1750,"o":"m 139 0 l 139 944 l 926 944 q 1568 832 1394 944 q 1750 469 1750 713 q 1569 104 1750 221 q 1344 24 1481 47 q 975 0 1207 0 l 139 0 m 278 828 l 278 117 l 971 117 q 1468 193 1339 117 q 1608 469 1608 276 q 1467 743 1608 656 q 922 828 1329 828 l 278 828 z "},"E":{"ha":1740,"x_min":139,"x_max":1615,"o":"m 1551 432 l 278 432 l 278 117 l 1615 117 l 1615 0 l 139 0 l 139 944 l 1607 944 l 1607 828 l 278 828 l 278 540 l 1551 540 l 1551 432 z "},"F":{"ha":1682,"x_min":139,"x_max":1585,"o":"m 1521 364 l 278 364 l 278 0 l 139 0 l 139 944 l 1585 944 l 1585 828 l 278 828 l 278 472 l 1521 472 l 1521 364 z "},"G":{"ha":1889,"x_min":111,"x_max":1764,"o":"m 1738 875 l 1710 763 q 985 847 1310 847 q 381 724 546 842 q 253 456 253 632 q 293 293 253 365 q 404 185 333 221 q 985 97 571 97 q 1625 181 1335 97 l 1625 406 l 686 406 l 686 514 l 1764 514 l 1764 99 q 985 -19 1393 -19 q 311 92 514 -19 q 165 237 218 143 q 111 456 111 331 q 294 814 111 690 q 572 922 392 881 q 985 964 751 964 q 1738 875 1389 964 z "},"H":{"ha":1849,"x_min":139,"x_max":1710,"o":"m 1710 944 l 1710 0 l 1571 0 l 1571 392 l 278 392 l 278 0 l 139 0 l 139 944 l 278 944 l 278 508 l 1571 508 l 1571 944 l 1710 944 z "},"I":{"ha":597,"x_min":229,"x_max":368,"o":"m 368 944 l 368 0 l 229 0 l 229 944 l 368 944 z "},"J":{"ha":1554,"x_min":56,"x_max":1415,"o":"m 56 29 l 56 146 q 592 97 325 97 q 1126 181 949 97 q 1243 283 1210 219 q 1276 468 1276 347 l 1276 944 l 1415 944 l 1415 463 q 1372 225 1415 310 q 1219 83 1328 140 q 588 -19 1024 -19 q 56 29 282 -19 z "},"K":{"ha":1849,"x_min":139,"x_max":1765,"o":"m 1724 944 l 1724 922 l 636 489 l 636 485 l 1765 22 l 1765 0 l 1518 0 l 469 431 l 278 431 l 278 0 l 139 0 l 139 944 l 278 944 l 278 539 l 468 539 l 1485 944 l 1724 944 z "},"L":{"ha":1529,"x_min":139,"x_max":1474,"o":"m 278 944 l 278 117 l 1474 117 l 1474 0 l 139 0 l 139 944 l 278 944 z "},"M":{"ha":1975,"x_min":139,"x_max":1836,"o":"m 1697 0 l 1697 765 l 1694 765 l 992 101 l 983 101 l 281 765 l 278 765 l 278 0 l 139 0 l 139 944 l 257 944 l 986 258 l 989 258 l 1715 944 l 1836 944 l 1836 0 l 1697 0 z "},"N":{"ha":1849,"x_min":139,"x_max":1710,"o":"m 1596 0 l 282 783 l 278 783 l 278 0 l 139 0 l 139 944 l 253 944 l 1567 161 l 1571 161 l 1571 944 l 1710 944 l 1710 0 l 1596 0 z "},"O":{"ha":1939,"x_min":111,"x_max":1828,"o":"m 1635 114 q 969 -19 1414 -19 q 304 114 525 -19 q 160 257 208 172 q 111 472 111 342 q 304 831 111 714 q 969 964 525 964 q 1635 831 1414 964 q 1828 472 1828 714 q 1779 257 1828 342 q 1635 114 1731 172 m 406 199 q 969 97 581 97 q 1533 199 1358 97 q 1686 472 1686 288 q 1536 744 1686 656 q 969 847 1361 847 q 403 744 578 847 q 253 472 253 656 q 406 199 253 288 z "},"P":{"ha":1735,"x_min":139,"x_max":1624,"o":"m 139 0 l 139 944 l 1140 944 q 1373 919 1276 944 q 1523 847 1469 894 q 1600 742 1576 800 q 1624 608 1624 683 q 1515 363 1624 444 q 1140 281 1406 281 l 278 281 l 278 0 l 139 0 m 1131 828 l 278 828 l 278 389 l 1126 389 q 1408 438 1335 389 q 1482 608 1482 488 q 1403 773 1482 718 q 1131 828 1325 828 z "},"Q":{"ha":1939,"x_min":111,"x_max":1844,"o":"m 969 -19 q 304 114 525 -19 q 160 257 208 172 q 111 472 111 342 q 304 831 111 714 q 969 964 525 964 q 1635 831 1414 964 q 1828 472 1828 714 q 1779 257 1828 342 q 1635 114 1731 172 q 1543 68 1594 89 l 1543 67 l 1844 -146 l 1844 -158 l 1660 -158 l 1400 24 q 969 -19 1210 -19 m 406 199 q 969 97 581 97 q 1533 199 1358 97 q 1686 472 1686 288 q 1536 744 1686 656 q 969 847 1361 847 q 403 744 578 847 q 253 472 253 656 q 406 199 253 288 z "},"R":{"ha":1776,"x_min":139,"x_max":1665,"o":"m 1642 628 q 1550 412 1642 486 q 1235 326 1458 338 l 1235 322 l 1322 261 l 1665 8 l 1665 0 l 1476 0 l 1036 325 l 278 325 l 278 0 l 139 0 l 139 944 l 1164 944 q 1533 867 1424 944 q 1642 628 1642 789 m 278 828 l 278 433 l 1153 433 q 1369 458 1292 433 q 1474 522 1447 482 q 1500 628 1500 561 q 1472 736 1500 694 q 1363 803 1444 778 q 1139 828 1282 828 l 278 828 z "},"S":{"ha":1842,"x_min":111,"x_max":1731,"o":"m 1465 411 q 939 432 1358 432 q 240 479 382 432 q 111 668 111 522 q 272 885 111 822 q 889 964 476 964 q 1301 943 1089 964 q 1639 896 1513 922 l 1619 789 q 889 856 1267 856 q 349 797 507 856 q 274 749 294 778 q 253 674 253 719 q 340 567 253 592 q 883 540 433 540 q 1549 504 1396 540 q 1731 289 1731 463 q 1698 152 1731 204 q 1596 65 1665 100 q 951 -19 1422 -19 q 485 3 704 -19 q 139 56 265 26 l 157 165 q 951 89 564 89 q 1497 150 1350 89 q 1589 289 1589 189 q 1562 367 1589 336 q 1465 411 1535 397 z "},"T":{"ha":1664,"x_min":56,"x_max":1608,"o":"m 763 828 l 56 828 l 56 944 l 1608 944 l 1608 828 l 901 828 l 901 0 l 763 0 l 763 828 z "},"U":{"ha":1850,"x_min":139,"x_max":1711,"o":"m 139 944 l 278 944 l 278 394 q 451 178 278 260 q 925 97 625 97 q 1398 178 1224 97 q 1572 394 1572 260 l 1572 944 l 1711 944 l 1711 383 q 1510 96 1711 211 q 925 -19 1308 -19 q 340 96 540 -19 q 139 383 139 211 l 139 944 z "},"V":{"ha":1861,"x_min":56,"x_max":1806,"o":"m 56 944 l 233 944 l 929 190 l 932 190 l 1628 944 l 1806 944 l 1806 936 l 938 -4 l 924 -4 l 56 936 l 56 944 z "},"W":{"ha":2792,"x_min":56,"x_max":2736,"o":"m 1397 585 l 1394 585 l 893 -4 l 872 -4 l 56 933 l 56 944 l 231 944 l 888 190 l 890 190 l 1386 772 l 1404 772 l 1901 190 l 1904 190 l 2561 944 l 2736 944 l 2736 933 l 1919 -4 l 1899 -4 l 1397 585 z "},"X":{"ha":1969,"x_min":83,"x_max":1886,"o":"m 1871 935 l 1110 478 l 1110 475 l 1886 8 l 1886 0 l 1651 0 l 986 403 l 983 403 l 318 0 l 83 0 l 83 8 l 860 475 l 860 478 l 99 935 l 99 944 l 332 944 l 983 550 l 986 550 l 1638 944 l 1871 944 l 1871 935 z "},"Y":{"ha":1747,"x_min":56,"x_max":1692,"o":"m 56 944 l 254 944 l 872 451 l 875 451 l 1493 944 l 1692 944 l 1692 935 l 943 339 l 943 0 l 804 0 l 804 339 l 56 935 l 56 944 z "},"Z":{"ha":1801,"x_min":83,"x_max":1718,"o":"m 83 0 l 83 56 l 1215 726 q 1300 772 1247 744 q 1390 817 1353 799 l 1428 833 l 1428 839 q 1181 832 1286 832 l 115 832 l 115 944 l 1718 944 l 1718 888 l 588 218 q 506 175 561 201 q 410 131 451 149 l 368 111 l 369 106 q 611 117 513 117 l 1718 117 l 1718 0 l 83 0 z "},"[":{"ha":647,"x_min":139,"x_max":592,"o":"m 139 -236 l 139 1083 l 592 1083 l 592 989 l 258 989 l 258 -142 l 592 -142 l 592 -236 l 139 -236 z "},"\\":{"ha":715,"x_min":56,"x_max":688,"o":"m 161 972 l 688 -125 l 688 -139 l 582 -139 l 56 958 l 56 972 l 161 972 z "},"]":{"ha":647,"x_min":56,"x_max":508,"o":"m 508 1083 l 508 -236 l 56 -236 l 56 -142 l 389 -142 l 389 989 l 56 989 l 56 1083 l 508 1083 z "},"^":{"ha":1111,"x_min":142,"x_max":969,"o":"m 969 500 l 854 500 l 557 836 l 554 836 l 257 500 l 142 500 l 142 513 l 524 944 l 588 944 l 969 513 l 969 500 z "},"_":{"ha":1111,"x_min":0,"x_max":1111,"o":"m 1111 -144 l 1111 -239 l 0 -239 l 0 -144 l 1111 -144 z "},"`":{"ha":833,"x_min":108,"x_max":638,"o":"m 282 1069 l 638 894 l 638 875 l 497 875 l 108 1039 l 108 1069 l 282 1069 z "},"a":{"ha":1350,"x_min":97,"x_max":1225,"o":"m 1225 0 l 1122 0 l 1108 83 l 1106 83 q 526 -19 811 -19 q 199 35 297 -19 q 97 210 97 90 q 200 382 97 325 q 564 439 303 439 q 790 432 658 439 q 1006 417 922 425 l 1090 410 l 1094 410 l 1094 469 q 592 656 1094 656 q 178 613 407 656 l 160 718 q 592 764 389 764 q 1060 688 894 764 q 1225 474 1225 611 l 1225 0 m 529 89 q 1094 183 818 89 l 1094 314 q 564 339 813 339 q 267 289 335 339 q 228 210 228 260 q 271 128 228 153 q 529 89 338 89 z "},"b":{"ha":1475,"x_min":125,"x_max":1378,"o":"m 228 0 l 125 0 l 125 1042 l 256 1042 l 256 686 l 258 686 q 788 764 507 764 q 1074 735 956 764 q 1257 653 1192 707 q 1350 532 1322 599 q 1378 376 1378 465 q 793 -14 1378 -14 q 247 86 526 -14 l 242 86 l 228 0 m 788 656 q 537 637 663 656 q 351 602 411 618 q 256 572 290 586 l 256 188 q 367 154 300 172 q 559 116 435 136 q 793 94 683 96 q 1015 114 925 94 q 1155 172 1106 133 q 1224 260 1204 211 q 1244 376 1244 308 q 1235 463 1244 425 q 1196 539 1225 501 q 1117 601 1167 576 q 985 640 1068 625 q 788 656 901 656 z "},"c":{"ha":1338,"x_min":97,"x_max":1254,"o":"m 1249 696 l 1225 590 q 707 658 971 658 q 467 633 569 658 q 314 565 365 607 q 231 365 231 497 q 261 241 231 296 q 343 158 292 186 q 722 92 461 92 q 1228 158 971 92 l 1254 53 q 1005 4 1158 25 q 722 -17 851 -17 q 267 64 419 -17 q 143 181 189 106 q 97 365 97 257 q 242 661 97 564 q 707 767 397 767 q 1249 696 1011 767 z "},"d":{"ha":1475,"x_min":97,"x_max":1350,"o":"m 697 764 q 1215 714 938 764 l 1219 714 l 1219 1042 l 1350 1042 l 1350 0 l 1247 0 l 1235 83 l 1231 83 q 711 -14 968 -14 q 435 8 544 -14 q 242 85 325 31 q 136 203 175 128 q 97 375 97 279 q 236 664 97 567 q 697 764 379 764 m 711 94 q 1219 192 964 94 l 1219 600 q 697 656 972 656 q 332 583 439 656 q 231 375 231 515 q 328 172 231 238 q 711 94 443 94 z "},"e":{"ha":1364,"x_min":97,"x_max":1267,"o":"m 1250 317 l 228 317 l 228 315 q 319 157 232 211 q 729 89 426 89 q 1235 160 992 89 l 1247 54 q 729 -19 1018 -19 q 256 64 411 -19 q 97 371 97 147 q 236 664 97 569 q 692 764 382 764 q 1097 708 960 764 q 1267 471 1267 640 q 1250 317 1267 389 m 315 579 q 228 417 233 524 l 1132 417 q 1136 471 1136 442 q 1029 613 1136 567 q 692 656 926 656 q 315 579 428 656 z "},"f":{"ha":1229,"x_min":14,"x_max":1132,"o":"m 1089 594 l 1089 486 l 289 486 l 289 0 l 158 0 l 158 486 l 14 486 l 14 594 l 158 594 l 158 631 q 288 883 158 808 q 708 958 418 958 q 1132 913 946 958 l 1114 807 q 708 850 904 850 q 440 824 532 850 q 318 753 347 799 q 289 625 289 708 l 289 594 l 1089 594 z "},"g":{"ha":1399,"x_min":97,"x_max":1301,"o":"m 661 233 q 286 288 411 233 q 219 161 219 213 q 251 103 219 121 q 367 86 283 86 l 961 86 q 1301 -128 1301 86 q 1289 -213 1301 -176 q 1237 -287 1276 -250 q 1131 -349 1197 -325 q 950 -387 1064 -372 q 681 -403 836 -403 q 319 -375 450 -403 q 142 -301 188 -347 q 97 -181 97 -256 q 189 3 97 -93 l 189 6 q 97 150 97 46 q 199 344 97 244 q 146 503 146 397 q 265 701 146 635 q 661 764 376 764 q 878 750 778 764 l 1274 750 l 1274 650 l 1181 650 l 1104 654 l 1103 650 q 1176 499 1176 608 q 1054 297 1176 360 q 661 233 931 233 m 367 -22 q 306 -19 342 -22 q 231 -164 231 -94 q 265 -237 231 -211 q 398 -279 299 -264 q 681 -294 497 -294 q 934 -283 833 -294 q 1084 -247 1035 -271 q 1151 -198 1133 -224 q 1168 -136 1168 -172 q 992 -22 1168 -22 l 367 -22 m 276 501 q 347 383 276 415 q 661 342 436 342 q 975 383 883 342 q 1046 501 1046 415 q 974 617 1046 586 q 661 656 886 656 q 349 617 432 656 q 276 501 276 583 z "},"h":{"ha":1442,"x_min":125,"x_max":1317,"o":"m 1317 0 l 1186 0 l 1186 389 q 1088 593 1186 531 q 765 656 990 656 q 256 561 497 656 l 256 0 l 125 0 l 125 1042 l 256 1042 l 256 675 q 258 674 257 674 q 765 764 519 764 q 1033 738 924 764 q 1203 662 1143 713 q 1290 547 1264 611 q 1317 394 1317 482 l 1317 0 z "},"i":{"ha":458,"x_min":150,"x_max":308,"o":"m 229 910 q 190 910 229 910 q 150 988 150 910 q 229 1065 150 1065 q 308 988 308 1065 q 229 910 308 910 m 294 750 l 294 0 l 164 0 l 164 750 l 294 750 z "},"j":{"ha":458,"x_min":-265,"x_max":308,"o":"m -265 -342 q -262 -289 -264 -325 q -258 -236 -260 -253 q -78 -253 -162 -253 q 110 -206 56 -253 q 164 -44 164 -158 l 164 750 l 294 750 l 294 -61 q 208 -286 294 -211 q -75 -361 122 -361 q -265 -342 -181 -361 m 229 910 q 190 910 229 910 q 150 988 150 910 q 229 1065 150 1065 q 308 988 308 1065 q 229 910 308 910 z "},"k":{"ha":1496,"x_min":125,"x_max":1426,"o":"m 1413 736 l 581 400 l 581 397 l 1426 17 l 1426 0 l 1178 0 l 413 344 l 256 344 l 256 0 l 125 0 l 125 1042 l 256 1042 l 256 444 l 413 444 l 1164 750 l 1413 750 l 1413 736 z "},"l":{"ha":458,"x_min":164,"x_max":294,"o":"m 294 1042 l 294 0 l 164 0 l 164 1042 l 294 1042 z "},"m":{"ha":1908,"x_min":125,"x_max":1783,"o":"m 626 764 q 963 635 865 764 l 964 635 q 1394 764 1165 764 q 1579 738 1501 764 q 1700 664 1657 711 q 1763 562 1743 617 q 1783 443 1783 507 l 1783 0 l 1653 0 l 1653 442 q 1383 656 1653 656 q 1174 619 1272 656 q 1008 536 1075 583 q 1019 442 1019 489 l 1019 0 l 889 0 l 889 442 q 619 656 889 656 q 406 618 506 656 q 256 543 306 581 l 256 0 l 125 0 l 125 750 l 228 750 l 242 657 l 246 657 q 417 733 314 701 q 626 764 521 764 z "},"n":{"ha":1442,"x_min":125,"x_max":1317,"o":"m 1317 0 l 1186 0 l 1186 389 q 1092 590 1186 525 q 765 656 999 656 q 478 622 625 656 q 256 550 331 589 l 256 0 l 125 0 l 125 750 l 228 750 q 235 700 231 732 q 242 653 240 668 l 246 653 q 765 764 510 764 q 1032 738 922 764 q 1203 662 1142 713 q 1290 547 1264 611 q 1317 394 1317 482 l 1317 0 z "},"o":{"ha":1450,"x_min":97,"x_max":1353,"o":"m 1211 89 q 725 -14 1056 -14 q 239 89 394 -14 q 97 375 97 182 q 238 660 97 567 q 725 764 396 764 q 1213 660 1054 764 q 1353 375 1353 567 q 1211 89 1353 182 m 333 172 q 725 94 458 94 q 1117 172 992 94 q 1219 375 1219 235 q 1119 579 1219 518 q 725 656 997 656 q 331 579 453 656 q 231 375 231 518 q 333 172 231 235 z "},"p":{"ha":1475,"x_min":125,"x_max":1378,"o":"m 125 750 l 228 750 l 242 678 l 246 678 q 471 735 322 706 q 788 764 619 764 q 1038 742 931 764 q 1208 686 1144 721 q 1311 599 1272 651 q 1364 494 1350 547 q 1378 376 1378 442 q 793 -14 1378 -14 q 258 69 532 -14 l 256 69 l 256 -347 l 125 -347 l 125 750 m 788 656 q 467 626 617 656 q 256 572 318 597 l 256 181 q 483 124 332 154 q 793 94 635 94 q 1022 115 931 94 q 1161 177 1114 136 q 1226 265 1208 218 q 1244 376 1244 311 q 1227 484 1244 439 q 1164 571 1210 529 q 1024 634 1118 613 q 788 656 929 656 z "},"q":{"ha":1475,"x_min":97,"x_max":1350,"o":"m 1350 -347 l 1219 -347 l 1219 72 l 1217 72 q 711 -14 975 -14 q 242 85 394 -14 q 97 375 97 178 q 236 664 97 564 q 697 764 375 764 q 978 740 826 764 q 1225 689 1129 715 l 1228 689 l 1244 750 l 1350 750 l 1350 -347 m 711 94 q 1219 186 967 94 l 1219 583 q 985 631 1138 606 q 697 656 833 656 q 332 583 438 656 q 231 375 231 514 q 328 172 231 239 q 711 94 442 94 z "},"r":{"ha":983,"x_min":125,"x_max":928,"o":"m 125 750 l 228 750 l 242 650 l 246 650 l 253 672 q 419 735 308 706 q 688 764 531 764 q 928 744 801 764 l 917 633 q 685 656 821 656 q 458 635 565 656 q 303 593 350 614 l 256 572 l 256 0 l 125 0 l 125 750 z "},"s":{"ha":1311,"x_min":97,"x_max":1214,"o":"m 129 32 l 143 139 q 665 89 404 89 q 1003 122 914 89 q 1065 165 1046 139 q 1083 233 1083 190 q 1056 297 1083 275 q 964 325 1029 319 q 658 333 879 333 q 347 340 443 333 q 197 369 250 347 q 97 524 97 413 q 246 715 97 663 q 657 764 383 764 q 897 754 776 764 q 1078 733 1018 744 l 1139 724 l 1121 617 q 657 656 892 656 q 301 619 404 656 q 228 526 228 593 q 290 449 228 467 q 658 433 340 433 q 1054 415 971 433 q 1214 233 1214 381 q 1110 46 1214 101 q 923 -3 1049 13 q 665 -19 797 -19 q 129 32 353 -19 z "},"t":{"ha":1225,"x_min":28,"x_max":1142,"o":"m 172 928 l 265 944 l 303 944 l 303 750 l 1132 750 l 1132 642 l 303 642 l 303 331 q 311 245 303 279 q 344 180 319 211 q 417 132 369 149 q 542 105 464 115 q 733 94 619 94 q 1128 143 946 94 l 1142 36 q 733 -14 960 -14 q 494 1 594 -14 q 331 44 393 17 q 234 115 269 71 q 185 209 199 160 q 172 326 172 258 l 172 642 l 28 642 l 28 750 l 172 750 l 172 928 z "},"u":{"ha":1442,"x_min":125,"x_max":1317,"o":"m 125 750 l 256 750 l 256 361 q 275 249 256 296 q 340 167 294 203 q 467 113 386 131 q 665 94 549 94 q 965 133 828 94 q 1186 214 1103 171 l 1186 750 l 1317 750 l 1317 0 l 1213 0 l 1200 100 l 1196 100 q 665 -14 961 -14 q 249 80 374 -14 q 125 356 125 174 l 125 750 z "},"v":{"ha":1428,"x_min":42,"x_max":1386,"o":"m 194 750 l 196 750 l 713 149 l 715 149 l 1233 750 l 1386 750 l 1386 736 l 753 0 l 675 0 l 42 736 l 42 750 l 194 750 z "},"w":{"ha":1958,"x_min":42,"x_max":1917,"o":"m 1774 750 l 1917 750 l 1917 733 l 1386 0 l 1333 0 l 979 483 l 625 0 l 572 0 l 42 733 l 42 750 l 185 750 l 604 169 l 961 657 l 997 657 l 1353 169 l 1774 750 z "},"x":{"ha":1489,"x_min":69,"x_max":1419,"o":"m 1413 738 l 850 379 l 850 375 l 1419 13 l 1419 0 l 1224 0 l 744 308 l 265 0 l 69 0 l 69 13 l 639 375 l 639 379 l 76 738 l 76 750 l 272 750 l 744 446 l 1217 750 l 1413 750 l 1413 738 z "},"y":{"ha":1529,"x_min":42,"x_max":1488,"o":"m 314 -239 l 707 146 l 707 149 l 42 739 l 42 750 l 214 750 l 794 236 l 799 236 l 1324 750 l 1488 750 l 1488 739 l 478 -250 l 314 -250 l 314 -239 z "},"z":{"ha":1253,"x_min":69,"x_max":1183,"o":"m 97 642 l 97 750 l 1183 750 l 1183 697 l 436 176 q 386 147 415 163 q 339 122 357 131 l 319 113 l 319 108 l 1183 108 l 1183 0 l 69 0 l 69 53 l 814 572 l 931 638 l 931 642 l 97 642 z "},"{":{"ha":747,"x_min":86,"x_max":692,"o":"m 168 369 l 86 369 l 86 464 l 168 464 q 268 493 235 464 q 301 590 301 522 l 301 800 q 360 970 301 913 q 561 1028 419 1028 l 692 1028 l 692 933 l 563 933 q 450 898 479 933 q 421 789 421 863 l 421 597 q 307 422 421 457 l 307 411 q 421 236 421 376 l 421 29 q 451 -78 421 -42 q 563 -114 482 -114 l 692 -114 l 692 -208 l 561 -208 q 360 -151 419 -208 q 301 18 301 -94 l 301 243 q 267 337 301 304 q 168 369 232 369 z "},"|":{"ha":661,"x_min":278,"x_max":383,"o":"m 278 -306 l 278 1111 l 383 1111 l 383 -306 l 278 -306 z "},"}":{"ha":747,"x_min":56,"x_max":661,"o":"m 661 369 l 579 369 q 481 337 515 369 q 446 243 446 304 l 446 18 q 387 -151 446 -94 q 186 -208 328 -208 l 56 -208 l 56 -114 l 185 -114 q 296 -78 265 -114 q 326 29 326 -42 l 326 236 q 440 411 326 376 l 440 422 q 326 597 326 457 l 326 789 q 297 898 326 863 q 185 933 268 933 l 56 933 l 56 1028 l 186 1028 q 387 970 328 1028 q 446 800 446 913 l 446 590 q 479 493 446 522 q 579 464 513 464 l 661 464 l 661 369 z "},"~":{"ha":1250,"x_min":111,"x_max":1139,"o":"m 219 228 l 111 228 q 173 540 111 446 q 364 635 235 635 q 450 621 408 635 q 534 576 492 607 q 601 523 576 544 q 671 458 626 501 q 744 389 721 410 q 808 345 767 368 q 886 322 849 322 q 999 393 967 322 q 1031 635 1031 464 l 1139 635 q 1076 322 1139 417 q 885 228 1014 228 q 764 258 825 228 q 669 319 703 289 q 576 406 635 349 q 506 474 531 451 q 440 518 481 496 q 361 540 399 540 q 251 469 283 540 q 219 228 219 397 z "}," ":{"ha":556,"x_min":0,"x_max":0,"o":""},"¡":{"ha":556,"x_min":199,"x_max":357,"o":"m 319 -292 l 236 -292 q 206 -260 206 -292 l 206 -143 q 214 52 206 -75 q 229 272 222 179 l 236 364 l 319 364 q 350 -143 350 11 l 350 -260 q 319 -292 350 -292 m 278 681 q 317 681 278 681 q 357 603 357 681 q 278 525 357 525 q 199 603 199 525 q 278 681 199 681 z "},"¢":{"ha":1667,"x_min":75,"x_max":1593,"o":"m 600 -124 l 688 83 q 286 147 433 92 q 131 267 186 185 q 75 463 75 349 q 257 772 75 685 q 875 864 444 864 q 1017 861 922 864 l 1111 1083 l 1206 1083 l 1206 1068 l 1115 856 q 1354 833 1235 847 q 1533 807 1474 818 l 1593 796 l 1572 690 q 1071 749 1346 733 l 833 189 l 881 189 q 1210 206 1036 189 q 1479 239 1383 222 l 1575 256 l 1593 150 q 1492 131 1557 142 q 1239 100 1426 119 q 881 81 1051 81 l 788 81 l 694 -139 l 600 -139 l 600 -124 m 351 244 q 733 190 468 199 l 971 753 q 874 756 907 756 q 315 676 454 756 q 206 463 206 613 q 351 244 206 299 z "},"£":{"ha":1667,"x_min":61,"x_max":1606,"o":"m 76 82 q 308 138 156 121 q 328 282 328 215 q 317 393 328 340 l 61 393 l 61 488 l 289 488 q 249 661 249 597 q 900 964 249 964 q 1443 915 1196 964 l 1429 810 q 900 856 1163 856 q 499 807 619 856 q 379 653 379 758 q 421 488 379 613 l 1111 488 l 1111 393 l 447 393 q 458 282 458 340 q 439 147 458 208 l 439 144 l 451 144 q 808 119 561 144 q 1167 94 1056 94 q 1365 117 1297 94 q 1454 179 1433 140 q 1475 292 1475 218 l 1475 372 l 1606 372 l 1606 290 q 1570 124 1606 188 q 1436 23 1535 60 q 1167 -14 1338 -14 q 801 11 1031 -14 q 451 36 572 36 q 265 23 353 36 q 139 -4 178 10 l 100 -18 l 76 82 z "},"¤":{"ha":1667,"x_min":54,"x_max":1613,"o":"m 1235 174 q 833 94 1092 94 q 432 174 575 94 l 193 0 l 54 0 l 54 15 l 354 233 q 276 472 276 315 q 354 708 276 626 l 54 929 l 54 944 l 193 944 l 431 769 q 833 850 575 850 q 1236 769 1092 850 l 1474 944 l 1613 944 l 1613 929 l 1313 708 q 1390 472 1390 626 q 1313 233 1390 315 l 1613 15 l 1613 0 l 1474 0 l 1235 174 m 606 217 q 651 207 606 217 q 833 197 696 197 q 1061 217 971 197 q 1197 277 1151 238 q 1260 362 1243 317 q 1276 472 1276 407 q 1173 681 1276 615 q 833 746 1069 746 q 494 681 597 746 q 390 472 390 615 q 407 362 390 407 q 469 277 424 317 q 606 217 515 238 z "},"¥":{"ha":1667,"x_min":43,"x_max":1624,"o":"m 200 358 l 200 453 l 500 453 l 663 447 l 664 451 q 524 553 593 497 l 43 935 l 43 944 l 242 944 l 832 474 l 835 474 l 1425 944 l 1624 944 l 1624 935 l 1143 553 q 1080 505 1115 531 q 1024 465 1044 479 l 1003 451 l 1004 447 q 1167 453 1100 453 l 1467 453 l 1467 358 l 903 358 l 903 244 l 1467 244 l 1467 150 l 903 150 l 903 0 l 764 0 l 764 150 l 200 150 l 200 244 l 764 244 l 764 358 l 200 358 z "},"¦":{"ha":661,"x_min":278,"x_max":383,"o":"m 383 514 l 278 514 l 278 1111 l 383 1111 l 383 514 m 278 292 l 383 292 l 383 -306 l 278 -306 l 278 292 z "},"§":{"ha":1667,"x_min":85,"x_max":1585,"o":"m 1585 181 l 1585 -6 q 1532 -184 1585 -108 q 1381 -297 1479 -260 q 831 -361 1210 -361 q 544 -347 696 -361 q 307 -319 392 -333 l 222 -304 l 239 -194 q 831 -253 549 -253 q 1365 -186 1236 -253 q 1454 -42 1454 -140 q 1422 41 1454 13 q 1342 76 1390 69 q 847 88 1282 88 q 315 121 460 88 q 138 215 192 150 q 85 422 85 279 l 85 619 q 138 789 85 715 q 289 900 190 863 q 839 964 460 964 q 1126 950 974 964 q 1363 922 1278 936 l 1447 907 l 1431 797 q 839 856 1121 856 q 297 783 422 856 q 215 647 215 736 q 244 565 215 596 q 328 526 274 533 q 822 515 388 515 q 1354 482 1210 515 q 1531 388 1478 453 q 1585 181 1585 324 m 257 425 q 234 436 244 429 q 219 447 224 443 l 215 451 l 214 451 q 215 407 215 425 l 215 378 q 385 218 215 249 q 844 196 511 196 l 1197 196 q 1406 175 1353 196 q 1430 163 1418 169 q 1447 150 1442 156 l 1453 146 l 1456 146 q 1454 192 1454 175 l 1454 225 q 1411 329 1454 292 q 1283 385 1368 367 q 825 407 1174 407 l 522 407 q 257 425 311 407 z "},"¨":{"ha":1111,"x_min":290,"x_max":815,"o":"m 369 910 q 330 910 369 910 q 290 988 290 910 q 369 1065 290 1065 q 449 988 449 1065 q 369 910 449 910 m 736 910 q 697 910 736 910 q 657 988 657 910 q 736 1065 657 1065 q 815 988 815 1065 q 736 910 815 910 z "},"©":{"ha":1667,"x_min":47,"x_max":1619,"o":"m 1238 644 l 1224 561 q 839 600 1011 600 q 557 564 632 600 q 499 465 499 536 q 560 375 499 403 q 847 344 629 344 q 1021 353 926 344 q 1171 372 1115 363 l 1226 381 l 1238 294 q 839 256 1025 256 q 486 300 575 256 q 390 461 390 347 q 479 631 390 576 q 839 689 572 689 q 1030 678 931 689 q 1183 656 1129 667 l 1238 644 m 95 247 q 71 289 95 247 q 47 472 47 332 q 95 697 47 613 q 244 840 143 782 q 833 958 449 958 q 1422 840 1215 958 q 1572 697 1524 782 q 1619 472 1619 613 q 1571 246 1619 332 q 1422 103 1522 160 q 833 -14 1215 -14 q 244 103 444 -14 q 95 247 143 161 m 153 472 q 190 294 153 363 q 307 182 228 225 q 833 81 494 81 q 1361 182 1185 81 q 1476 294 1439 226 q 1514 472 1514 361 q 1476 653 1514 583 q 1361 763 1439 722 q 833 864 1172 864 q 307 763 483 864 q 191 649 229 717 q 153 472 153 581 z "},"ª":{"ha":942,"x_min":75,"x_max":867,"o":"m 867 474 l 779 474 l 768 529 l 765 529 q 375 461 571 461 q 140 496 211 461 q 75 606 75 528 q 143 721 75 688 q 392 754 214 754 q 557 750 465 754 q 703 742 649 746 l 758 738 l 761 738 l 761 756 q 421 864 761 864 q 278 857 351 864 q 168 844 206 850 l 131 838 l 117 929 q 426 958 244 958 q 867 774 867 958 l 867 474 m 375 556 q 761 611 568 556 l 761 668 l 392 668 q 204 650 235 668 q 183 613 183 638 q 210 574 183 586 q 375 556 250 556 z "},"«":{"ha":1281,"x_min":97,"x_max":1225,"o":"m 97 350 l 97 400 l 496 722 l 622 722 l 622 701 l 261 376 l 261 372 l 622 47 l 622 28 l 496 28 l 97 350 m 700 350 l 700 400 l 1099 722 l 1225 722 l 1225 701 l 864 376 l 864 372 l 1225 47 l 1225 28 l 1099 28 l 700 350 z "},"¬":{"ha":1667,"x_min":228,"x_max":1439,"o":"m 1333 56 l 1333 439 l 228 439 l 228 533 l 1439 533 l 1439 56 l 1333 56 z "},"®":{"ha":1667,"x_min":47,"x_max":1619,"o":"m 95 247 q 71 289 95 247 q 47 472 47 332 q 95 697 47 613 q 244 840 143 782 q 833 958 449 958 q 1422 840 1215 958 q 1572 697 1524 782 q 1619 472 1619 613 q 1571 246 1619 332 q 1422 103 1522 160 q 833 -14 1215 -14 q 244 103 444 -14 q 95 247 143 161 m 153 472 q 190 294 153 363 q 307 182 228 225 q 833 81 494 81 q 1361 182 1185 81 q 1476 294 1439 226 q 1514 472 1514 361 q 1476 653 1514 583 q 1361 763 1439 722 q 833 864 1172 864 q 307 763 483 864 q 191 649 229 717 q 153 472 153 581 m 1228 524 q 1183 424 1228 454 q 1051 386 1138 393 l 1051 382 q 1101 357 1078 371 l 1239 275 l 1239 269 l 1064 269 l 875 383 l 563 383 l 563 269 l 454 269 l 454 675 l 1008 675 q 1228 524 1228 675 m 563 586 l 563 472 l 986 472 q 1093 485 1067 472 q 1119 526 1119 497 q 1094 571 1119 556 q 990 586 1068 586 l 563 586 z "},"¯":{"ha":833,"x_min":115,"x_max":715,"o":"m 715 947 l 115 947 l 115 1042 l 715 1042 l 715 947 z "},"°":{"ha":1014,"x_min":82,"x_max":932,"o":"m 82 653 q 507 958 82 958 q 830 877 728 958 q 932 653 932 796 q 507 339 932 339 q 82 653 82 339 m 188 653 q 507 433 188 433 q 826 653 826 433 q 507 864 826 864 q 188 653 188 864 z "},"±":{"ha":1667,"x_min":208,"x_max":1458,"o":"m 1458 586 l 886 586 l 886 299 l 781 299 l 781 586 l 208 586 l 208 681 l 781 681 l 781 968 l 886 968 l 886 681 l 1458 681 l 1458 586 m 208 94 l 208 189 l 1458 189 l 1458 94 l 208 94 z "},"²":{"ha":976,"x_min":75,"x_max":901,"o":"m 118 968 l 103 1065 q 488 1103 286 1103 q 829 1056 740 1103 q 901 926 901 1015 q 825 793 901 822 q 722 774 785 778 q 488 769 660 769 q 249 760 308 769 q 181 692 181 749 l 181 650 l 881 650 l 881 556 l 75 556 l 75 692 q 181 839 75 803 q 488 864 253 864 q 754 874 718 864 q 796 926 796 883 q 750 983 796 967 q 488 1008 678 1008 q 309 999 401 1008 q 167 978 217 989 l 118 968 z "},"³":{"ha":972,"x_min":69,"x_max":897,"o":"m 69 579 l 79 672 q 446 639 272 639 q 750 671 669 639 q 792 726 792 688 q 767 773 792 758 q 676 788 742 788 l 314 788 l 314 874 l 658 874 q 747 887 722 874 q 772 932 772 900 q 721 983 772 968 q 463 1008 638 1008 q 280 999 374 1008 q 138 981 186 989 l 89 971 l 75 1063 q 463 1103 246 1103 q 788 1060 683 1103 q 881 936 881 1022 q 817 835 881 865 l 817 832 q 897 724 897 808 q 813 594 897 638 q 446 544 714 544 q 274 553 368 544 q 125 569 179 561 l 69 579 z "},"´":{"ha":833,"x_min":167,"x_max":740,"o":"m 167 894 l 556 1069 l 740 1069 l 740 1039 l 317 875 l 167 875 l 167 894 z "},"µ":{"ha":1667,"x_min":125,"x_max":1610,"o":"m 1467 -14 q 1204 133 1261 -14 l 1200 133 q 971 30 1111 74 q 665 -14 831 -14 q 411 19 521 -14 q 253 106 301 53 l 250 104 q 256 0 256 61 l 256 -347 l 125 -347 l 125 750 l 256 750 l 256 361 q 275 249 256 296 q 340 167 294 203 q 467 113 386 131 q 665 94 549 94 q 967 144 828 94 q 1186 249 1106 194 l 1186 750 l 1317 750 l 1317 244 q 1467 94 1317 94 q 1528 99 1497 94 q 1575 108 1560 104 l 1590 114 l 1610 11 q 1467 -14 1554 -14 z "},"¶":{"ha":1667,"x_min":82,"x_max":1585,"o":"m 539 -139 l 539 422 l 436 422 q 82 674 82 422 q 458 944 82 944 l 1585 944 l 1585 850 l 1293 850 l 1293 -139 l 1188 -139 l 1188 850 l 644 850 l 644 -139 l 539 -139 z "},"·":{"ha":417,"x_min":129,"x_max":288,"o":"m 208 297 q 169 297 208 297 q 129 375 129 297 q 208 453 129 453 q 288 375 288 453 q 208 297 288 297 z "},"¸":{"ha":833,"x_min":100,"x_max":757,"o":"m 100 -335 l 103 -244 q 418 -267 256 -267 q 569 -260 518 -267 q 636 -243 621 -254 q 651 -211 651 -232 q 583 -175 651 -175 l 257 -175 l 232 -151 l 288 0 l 397 0 l 375 -82 l 376 -85 q 539 -81 444 -81 q 708 -114 660 -81 q 757 -211 757 -147 q 682 -324 757 -287 q 418 -361 607 -361 q 271 -354 350 -361 q 146 -342 192 -347 l 100 -335 z "},"¹":{"ha":474,"x_min":8,"x_max":424,"o":"m 424 556 l 315 556 l 315 976 l 311 978 l 24 888 l 8 888 l 8 979 l 364 1092 l 424 1092 l 424 556 z "},"º":{"ha":1008,"x_min":75,"x_max":933,"o":"m 836 528 q 504 461 732 461 q 172 528 276 461 q 75 710 75 589 q 172 892 75 832 q 504 958 281 958 q 836 892 728 958 q 933 710 933 832 q 836 528 933 589 m 249 596 q 504 556 325 556 q 760 596 683 556 q 825 710 825 631 q 760 822 825 789 q 504 864 685 864 q 249 822 324 864 q 183 710 183 789 q 249 596 183 631 z "},"»":{"ha":1281,"x_min":56,"x_max":1183,"o":"m 581 400 l 581 350 l 182 28 l 56 28 l 56 47 l 417 372 l 417 376 l 56 701 l 56 722 l 182 722 l 581 400 m 1183 400 l 1183 350 l 785 28 l 658 28 l 658 47 l 1019 372 l 1019 376 l 658 701 l 658 722 l 785 722 l 1183 400 z "},"¼":{"ha":1661,"x_min":8,"x_max":1558,"o":"m 1440 0 l 1335 0 l 1335 106 l 639 106 l 639 172 l 1336 536 l 1440 536 l 1440 192 l 1558 192 l 1558 106 l 1440 106 l 1440 0 m 835 190 l 838 182 q 1031 192 976 192 l 1335 192 l 1335 433 l 1331 433 l 1008 265 l 835 190 m 424 408 l 315 408 l 315 829 l 311 831 l 24 740 l 8 740 l 8 832 l 364 944 l 424 944 l 424 408 m 131 -14 l 1181 972 l 1296 972 l 1296 958 l 246 -28 l 131 -28 l 131 -14 z "},"½":{"ha":1836,"x_min":8,"x_max":1761,"o":"m 128 -14 l 1178 972 l 1293 972 l 1293 958 l 243 -28 l 128 -28 l 128 -14 m 424 408 l 315 408 l 315 829 l 311 831 l 24 740 l 8 740 l 8 832 l 364 944 l 424 944 l 424 408 m 978 413 l 963 510 q 1347 547 1146 547 q 1689 500 1600 547 q 1761 371 1761 460 q 1685 238 1761 267 q 1582 218 1644 222 q 1347 214 1519 214 q 1108 204 1168 214 q 1040 136 1040 193 l 1040 94 l 1740 94 l 1740 0 l 935 0 l 935 136 q 1040 283 935 247 q 1347 308 1113 308 q 1614 318 1578 308 q 1656 371 1656 328 q 1610 428 1656 411 q 1347 453 1538 453 q 1169 443 1261 453 q 1028 422 1076 433 l 978 413 z "},"¾":{"ha":2163,"x_min":69,"x_max":2060,"o":"m 69 432 l 79 525 q 446 492 272 492 q 750 524 669 492 q 792 579 792 540 q 767 626 792 611 q 676 640 742 640 l 314 640 l 314 726 l 658 726 q 747 740 722 726 q 772 785 772 753 q 721 836 772 821 q 463 861 638 861 q 280 851 374 861 q 138 833 186 842 l 89 824 l 75 915 q 463 956 246 956 q 788 913 683 956 q 881 789 881 875 q 817 688 881 718 l 817 685 q 897 576 897 661 q 813 447 897 490 q 446 397 714 397 q 274 406 368 397 q 125 422 179 414 l 69 432 m 1942 0 l 1836 0 l 1836 106 l 1140 106 l 1140 172 l 1838 536 l 1942 536 l 1942 192 l 2060 192 l 2060 106 l 1942 106 l 1942 0 m 1336 190 l 1339 182 q 1532 192 1478 192 l 1836 192 l 1836 433 l 1832 433 l 1510 265 l 1336 190 m 544 -14 l 1594 972 l 1710 972 l 1710 958 l 660 -28 l 544 -28 l 544 -14 z "},"¿":{"ha":1667,"x_min":150,"x_max":1578,"o":"m 978 400 l 1108 400 l 1108 190 l 1090 175 q 692 188 897 188 q 372 150 451 188 q 281 4 281 107 q 310 -94 281 -58 q 408 -147 340 -129 q 925 -189 560 -189 q 1249 -178 1086 -189 q 1494 -156 1413 -167 l 1578 -144 l 1578 -247 q 925 -297 1283 -297 q 342 -243 521 -297 q 150 4 150 -183 q 194 163 150 99 q 322 256 239 228 q 689 296 438 296 q 815 292 743 296 q 931 286 886 289 l 975 283 l 978 286 l 978 400 m 1043 681 q 1083 681 1043 681 q 1122 603 1122 681 q 1043 525 1122 525 q 964 603 964 525 q 1043 681 964 681 z "},"À":{"ha":1914,"x_min":56,"x_max":1858,"o":"m 1692 0 l 1497 211 l 415 211 l 222 0 l 56 0 l 56 10 l 911 944 l 1003 944 l 1858 10 l 1858 0 l 1692 0 m 785 613 l 515 319 l 1399 319 l 1129 613 q 958 806 1008 743 l 956 806 l 785 613 m 696 1281 l 1051 1106 l 1051 1086 l 911 1086 l 522 1250 l 522 1281 l 696 1281 z "},"Á":{"ha":1914,"x_min":56,"x_max":1858,"o":"m 1692 0 l 1497 211 l 415 211 l 222 0 l 56 0 l 56 10 l 911 944 l 1003 944 l 1858 10 l 1858 0 l 1692 0 m 785 613 l 515 319 l 1399 319 l 1129 613 q 958 806 1008 743 l 956 806 l 785 613 m 860 1106 l 1249 1281 l 1433 1281 l 1433 1250 l 1010 1086 l 860 1086 l 860 1106 z "},"Â":{"ha":1914,"x_min":56,"x_max":1858,"o":"m 1692 0 l 1497 211 l 415 211 l 222 0 l 56 0 l 56 10 l 911 944 l 1003 944 l 1858 10 l 1858 0 l 1692 0 m 785 613 l 515 319 l 1399 319 l 1129 613 q 958 806 1008 743 l 956 806 l 785 613 m 578 1106 l 911 1319 l 1011 1319 l 1344 1106 l 1344 1083 l 1219 1083 l 965 1229 l 957 1229 l 703 1083 l 578 1083 l 578 1106 z "},"Ã":{"ha":1914,"x_min":56,"x_max":1858,"o":"m 1692 0 l 1497 211 l 415 211 l 222 0 l 56 0 l 56 10 l 911 944 l 1003 944 l 1858 10 l 1858 0 l 1692 0 m 785 613 l 515 319 l 1399 319 l 1129 613 q 958 806 1008 743 l 956 806 l 785 613 m 1210 1307 l 1315 1307 l 1315 1221 q 1146 1069 1315 1069 q 1008 1106 1079 1069 q 874 1177 936 1142 q 772 1213 813 1213 q 706 1153 706 1213 l 706 1069 l 600 1069 l 600 1156 q 769 1307 600 1307 q 871 1285 817 1307 q 967 1235 925 1263 q 1057 1186 1008 1208 q 1143 1164 1106 1164 q 1210 1224 1210 1164 l 1210 1307 z "},"Ä":{"ha":1914,"x_min":56,"x_max":1858,"o":"m 1692 0 l 1497 211 l 415 211 l 222 0 l 56 0 l 56 10 l 911 944 l 1003 944 l 1858 10 l 1858 0 l 1692 0 m 785 613 l 515 319 l 1399 319 l 1129 613 q 958 806 1008 743 l 956 806 l 785 613 m 775 1118 q 735 1118 775 1118 q 696 1196 696 1118 q 775 1274 696 1274 q 854 1196 854 1274 q 775 1118 854 1118 m 1142 1118 q 1102 1118 1142 1118 q 1063 1196 1063 1118 q 1142 1274 1063 1274 q 1221 1196 1221 1274 q 1142 1118 1221 1118 z "},"Å":{"ha":1914,"x_min":56,"x_max":1858,"o":"m 785 613 l 515 319 l 1399 319 l 1129 613 q 958 806 1008 743 l 956 806 l 785 613 m 771 1039 q 957 944 771 944 q 1143 1039 1143 944 q 957 1131 1143 1131 q 771 1039 771 1131 m 665 1039 q 736 1171 665 1122 q 957 1219 807 1219 q 1177 1171 1106 1219 q 1249 1039 1249 1122 q 1075 865 1249 901 l 1858 10 l 1858 0 l 1692 0 l 1497 211 l 415 211 l 222 0 l 56 0 l 56 10 l 839 865 q 665 1039 665 900 z "},"Æ":{"ha":2740,"x_min":56,"x_max":2615,"o":"m 2615 0 l 1222 0 l 1222 211 l 475 211 l 240 0 l 56 0 l 56 10 l 1097 944 l 2607 944 l 2607 828 l 1361 828 l 1361 540 l 2551 540 l 2551 432 l 1361 432 l 1361 117 l 2615 117 l 2615 0 m 996 678 l 596 319 l 1222 319 l 1222 828 l 1160 828 l 996 678 z "},"Ç":{"ha":1828,"x_min":111,"x_max":1717,"o":"m 1704 853 l 1704 851 l 1678 742 q 954 847 1296 847 q 397 735 571 847 q 253 457 253 640 q 400 188 253 268 q 974 97 563 97 q 1349 132 1150 97 q 1692 211 1547 167 l 1717 97 q 1376 17 1581 53 q 974 -19 1172 -19 l 969 -19 l 953 -82 l 954 -85 q 1117 -81 1022 -81 q 1286 -114 1238 -81 q 1335 -211 1335 -147 q 1260 -324 1335 -287 q 996 -361 1185 -361 q 849 -354 928 -361 q 724 -342 769 -347 l 678 -335 l 681 -244 q 996 -267 833 -267 q 1147 -260 1096 -267 q 1214 -243 1199 -254 q 1229 -211 1229 -232 q 1161 -175 1229 -175 l 835 -175 l 810 -151 l 858 -18 q 304 97 488 -7 q 163 242 214 149 q 111 457 111 336 q 304 824 111 697 q 954 964 517 964 q 1704 853 1368 964 z "},"È":{"ha":1740,"x_min":139,"x_max":1615,"o":"m 1551 432 l 278 432 l 278 117 l 1615 117 l 1615 0 l 139 0 l 139 944 l 1607 944 l 1607 828 l 278 828 l 278 540 l 1551 540 l 1551 432 m 739 1282 l 1094 1107 l 1094 1088 l 954 1088 l 565 1251 l 565 1282 l 739 1282 z "},"É":{"ha":1740,"x_min":139,"x_max":1615,"o":"m 1551 432 l 278 432 l 278 117 l 1615 117 l 1615 0 l 139 0 l 139 944 l 1607 944 l 1607 828 l 278 828 l 278 540 l 1551 540 l 1551 432 m 703 1106 l 1092 1281 l 1276 1281 l 1276 1250 l 853 1086 l 703 1086 l 703 1106 z "},"Ê":{"ha":1740,"x_min":139,"x_max":1615,"o":"m 1551 432 l 278 432 l 278 117 l 1615 117 l 1615 0 l 139 0 l 139 944 l 1607 944 l 1607 828 l 278 828 l 278 540 l 1551 540 l 1551 432 m 499 1092 l 832 1306 l 932 1306 l 1265 1092 l 1265 1069 l 1140 1069 l 886 1215 l 878 1215 l 624 1069 l 499 1069 l 499 1092 z "},"Ë":{"ha":1740,"x_min":139,"x_max":1615,"o":"m 1551 432 l 278 432 l 278 117 l 1615 117 l 1615 0 l 139 0 l 139 944 l 1607 944 l 1607 828 l 278 828 l 278 540 l 1551 540 l 1551 432 m 740 1118 q 701 1118 740 1118 q 661 1196 661 1118 q 740 1274 661 1274 q 819 1196 819 1274 q 740 1118 819 1118 m 1107 1118 q 1067 1118 1107 1118 q 1028 1196 1028 1118 q 1107 1274 1028 1274 q 1186 1196 1186 1274 q 1107 1118 1186 1118 z "},"Ì":{"ha":597,"x_min":-42,"x_max":376,"o":"m 118 1281 l 376 1106 l 376 1086 l 250 1086 l -42 1250 l -42 1281 l 118 1281 m 368 944 l 368 0 l 229 0 l 229 944 l 368 944 z "},"Í":{"ha":597,"x_min":219,"x_max":675,"o":"m 219 1106 l 511 1281 l 675 1281 l 675 1250 l 349 1086 l 219 1086 l 219 1106 m 368 944 l 368 0 l 229 0 l 229 944 l 368 944 z "},"Î":{"ha":597,"x_min":-85,"x_max":682,"o":"m -85 1106 l 249 1319 l 349 1319 l 682 1106 l 682 1083 l 557 1083 l 303 1229 l 294 1229 l 40 1083 l -85 1083 l -85 1106 m 368 944 l 368 0 l 229 0 l 229 944 l 368 944 z "},"Ï":{"ha":597,"x_min":64,"x_max":533,"o":"m 143 1086 q 103 1086 143 1086 q 64 1164 64 1086 q 143 1242 64 1242 q 222 1164 222 1242 q 143 1086 222 1086 m 454 1086 q 415 1086 454 1086 q 375 1164 375 1086 q 454 1242 375 1242 q 533 1164 533 1242 q 454 1086 533 1086 m 368 944 l 368 0 l 229 0 l 229 944 l 368 944 z "},"Ð":{"ha":1914,"x_min":14,"x_max":1803,"o":"m 192 0 l 192 422 l 14 422 l 14 522 l 192 522 l 192 944 l 979 944 q 1621 832 1447 944 q 1803 469 1803 713 q 1622 104 1803 221 q 1397 24 1533 47 q 1028 0 1260 0 l 192 0 m 331 828 l 331 522 l 997 522 l 997 422 l 331 422 l 331 117 l 1024 117 q 1521 193 1392 117 q 1661 469 1661 276 q 1519 743 1661 656 q 975 828 1382 828 l 331 828 z "},"Ñ":{"ha":1849,"x_min":139,"x_max":1710,"o":"m 1183 1307 l 1289 1307 l 1289 1221 q 1119 1069 1289 1069 q 981 1106 1053 1069 q 848 1177 910 1142 q 746 1213 786 1213 q 679 1153 679 1213 l 679 1069 l 574 1069 l 574 1156 q 743 1307 574 1307 q 844 1285 790 1307 q 940 1235 899 1263 q 1031 1186 982 1208 q 1117 1164 1079 1164 q 1183 1224 1183 1164 l 1183 1307 m 1596 0 l 282 783 l 278 783 l 278 0 l 139 0 l 139 944 l 253 944 l 1567 161 l 1571 161 l 1571 944 l 1710 944 l 1710 0 l 1596 0 z "},"Ò":{"ha":1939,"x_min":111,"x_max":1828,"o":"m 1635 114 q 969 -19 1414 -19 q 304 114 525 -19 q 160 257 208 172 q 111 472 111 342 q 304 831 111 714 q 969 964 525 964 q 1635 831 1414 964 q 1828 472 1828 714 q 1779 257 1828 342 q 1635 114 1731 172 m 406 199 q 969 97 581 97 q 1533 199 1358 97 q 1686 472 1686 288 q 1536 744 1686 656 q 969 847 1361 847 q 403 744 578 847 q 253 472 253 656 q 406 199 253 288 m 721 1281 l 1076 1106 l 1076 1086 l 936 1086 l 547 1250 l 547 1281 l 721 1281 z "},"Ó":{"ha":1939,"x_min":111,"x_max":1828,"o":"m 1635 114 q 969 -19 1414 -19 q 304 114 525 -19 q 160 257 208 172 q 111 472 111 342 q 304 831 111 714 q 969 964 525 964 q 1635 831 1414 964 q 1828 472 1828 714 q 1779 257 1828 342 q 1635 114 1731 172 m 406 199 q 969 97 581 97 q 1533 199 1358 97 q 1686 472 1686 288 q 1536 744 1686 656 q 969 847 1361 847 q 403 744 578 847 q 253 472 253 656 q 406 199 253 288 m 817 1106 l 1206 1281 l 1390 1281 l 1390 1250 l 967 1086 l 817 1086 l 817 1106 z "},"Ô":{"ha":1939,"x_min":111,"x_max":1828,"o":"m 1635 114 q 969 -19 1414 -19 q 304 114 525 -19 q 160 257 208 172 q 111 472 111 342 q 304 831 111 714 q 969 964 525 964 q 1635 831 1414 964 q 1828 472 1828 714 q 1779 257 1828 342 q 1635 114 1731 172 m 406 199 q 969 97 581 97 q 1533 199 1358 97 q 1686 472 1686 288 q 1536 744 1686 656 q 969 847 1361 847 q 403 744 578 847 q 253 472 253 656 q 406 199 253 288 m 586 1106 l 919 1319 l 1019 1319 l 1353 1106 l 1353 1083 l 1228 1083 l 974 1229 l 965 1229 l 711 1083 l 586 1083 l 586 1106 z "},"Õ":{"ha":1939,"x_min":111,"x_max":1828,"o":"m 1219 1307 l 1325 1307 l 1325 1221 q 1156 1069 1325 1069 q 1017 1106 1089 1069 q 884 1177 946 1142 q 782 1213 822 1213 q 715 1153 715 1213 l 715 1069 l 610 1069 l 610 1156 q 779 1307 610 1307 q 881 1285 826 1307 q 976 1235 935 1263 q 1067 1186 1018 1208 q 1153 1164 1115 1164 q 1219 1224 1219 1164 l 1219 1307 m 1635 114 q 969 -19 1414 -19 q 304 114 525 -19 q 160 257 208 172 q 111 472 111 342 q 304 831 111 714 q 969 964 525 964 q 1635 831 1414 964 q 1828 472 1828 714 q 1779 257 1828 342 q 1635 114 1731 172 m 406 199 q 969 97 581 97 q 1533 199 1358 97 q 1686 472 1686 288 q 1536 744 1686 656 q 969 847 1361 847 q 403 744 578 847 q 253 472 253 656 q 406 199 253 288 z "},"Ö":{"ha":1939,"x_min":111,"x_max":1828,"o":"m 1635 114 q 969 -19 1414 -19 q 304 114 525 -19 q 160 257 208 172 q 111 472 111 342 q 304 831 111 714 q 969 964 525 964 q 1635 831 1414 964 q 1828 472 1828 714 q 1779 257 1828 342 q 1635 114 1731 172 m 406 199 q 969 97 581 97 q 1533 199 1358 97 q 1686 472 1686 288 q 1536 744 1686 656 q 969 847 1361 847 q 403 744 578 847 q 253 472 253 656 q 406 199 253 288 m 785 1118 q 745 1118 785 1118 q 706 1196 706 1118 q 785 1274 706 1274 q 864 1196 864 1274 q 785 1118 864 1118 m 1151 1118 q 1112 1118 1151 1118 q 1072 1196 1072 1118 q 1151 1274 1072 1274 q 1231 1196 1231 1274 q 1151 1118 1231 1118 z "},"×":{"ha":1667,"x_min":249,"x_max":1418,"o":"m 249 122 l 733 428 l 733 432 l 249 740 l 306 826 l 833 488 l 1361 826 l 1418 740 l 932 432 l 932 428 l 1418 122 l 1361 36 l 833 374 l 306 36 l 249 122 z "},"Ø":{"ha":1939,"x_min":111,"x_max":1828,"o":"m 969 -19 q 468 43 671 -19 l 315 -69 l 176 -69 l 176 -56 l 363 82 l 363 83 q 304 114 333 97 q 160 256 208 171 q 111 472 111 342 q 304 831 111 714 q 969 964 525 964 q 1469 900 1260 964 l 1624 1014 l 1763 1014 l 1763 1000 l 1578 864 l 1578 861 q 1635 831 1613 844 q 1828 472 1828 711 q 1779 257 1828 342 q 1635 114 1731 172 q 969 -19 1414 -19 m 406 199 q 476 165 426 185 l 1347 810 l 1347 813 q 969 847 1186 847 q 403 744 578 847 q 253 472 253 656 q 406 199 253 288 m 969 97 q 1533 199 1358 97 q 1686 472 1686 288 q 1536 744 1686 656 q 1463 779 1503 764 l 593 136 l 593 132 q 969 97 754 97 z "},"Ù":{"ha":1850,"x_min":139,"x_max":1711,"o":"m 139 944 l 278 944 l 278 394 q 451 178 278 260 q 925 97 625 97 q 1398 178 1224 97 q 1572 394 1572 260 l 1572 944 l 1711 944 l 1711 383 q 1510 96 1711 211 q 925 -19 1308 -19 q 340 96 540 -19 q 139 383 139 211 l 139 944 m 754 1281 l 1110 1106 l 1110 1086 l 969 1086 l 581 1250 l 581 1281 l 754 1281 z "},"Ú":{"ha":1850,"x_min":139,"x_max":1711,"o":"m 139 944 l 278 944 l 278 394 q 451 178 278 260 q 925 97 625 97 q 1398 178 1224 97 q 1572 394 1572 260 l 1572 944 l 1711 944 l 1711 383 q 1510 96 1711 211 q 925 -19 1308 -19 q 340 96 540 -19 q 139 383 139 211 l 139 944 m 772 1106 l 1161 1281 l 1346 1281 l 1346 1250 l 922 1086 l 772 1086 l 772 1106 z "},"Û":{"ha":1850,"x_min":139,"x_max":1711,"o":"m 139 944 l 278 944 l 278 394 q 451 178 278 260 q 925 97 625 97 q 1398 178 1224 97 q 1572 394 1572 260 l 1572 944 l 1711 944 l 1711 383 q 1510 96 1711 211 q 925 -19 1308 -19 q 340 96 540 -19 q 139 383 139 211 l 139 944 m 539 1106 l 872 1319 l 972 1319 l 1306 1106 l 1306 1083 l 1181 1083 l 926 1229 l 918 1229 l 664 1083 l 539 1083 l 539 1106 z "},"Ü":{"ha":1850,"x_min":139,"x_max":1711,"o":"m 139 944 l 278 944 l 278 394 q 451 178 278 260 q 925 97 625 97 q 1398 178 1224 97 q 1572 394 1572 260 l 1572 944 l 1711 944 l 1711 383 q 1510 96 1711 211 q 925 -19 1308 -19 q 340 96 540 -19 q 139 383 139 211 l 139 944 m 740 1118 q 701 1118 740 1118 q 661 1196 661 1118 q 740 1274 661 1274 q 819 1196 819 1274 q 740 1118 819 1118 m 1107 1118 q 1067 1118 1107 1118 q 1028 1196 1028 1118 q 1107 1274 1028 1274 q 1186 1196 1186 1274 q 1107 1118 1186 1118 z "},"Ý":{"ha":1747,"x_min":56,"x_max":1692,"o":"m 56 944 l 254 944 l 872 451 l 875 451 l 1493 944 l 1692 944 l 1692 935 l 943 339 l 943 0 l 804 0 l 804 339 l 56 935 l 56 944 m 754 1106 l 1143 1281 l 1328 1281 l 1328 1250 l 904 1086 l 754 1086 l 754 1106 z "},"Þ":{"ha":1735,"x_min":139,"x_max":1624,"o":"m 1131 688 l 278 688 l 278 249 l 1126 249 q 1408 298 1335 249 q 1482 468 1482 347 q 1403 633 1482 578 q 1131 688 1325 688 m 139 0 l 139 944 l 278 944 l 278 804 l 1140 804 q 1373 779 1276 804 q 1523 707 1469 754 q 1600 601 1576 660 q 1624 468 1624 543 q 1515 222 1624 304 q 1140 140 1406 140 l 278 140 l 278 0 l 139 0 z "},"ß":{"ha":1565,"x_min":125,"x_max":1468,"o":"m 256 0 l 125 0 l 125 661 q 156 778 125 728 q 260 872 188 829 q 465 936 332 914 q 789 958 599 958 q 1299 872 1135 958 q 1414 699 1414 813 q 1382 574 1414 618 q 1281 515 1350 531 l 1281 511 q 1418 435 1368 494 q 1468 283 1468 376 q 1357 58 1468 126 q 894 -19 1231 -19 q 679 -10 797 -19 q 492 8 561 -1 l 422 17 l 431 125 q 874 89 682 89 q 1265 149 1167 89 q 1335 286 1335 192 q 1246 428 1335 392 q 913 461 1165 461 l 556 461 l 556 561 l 913 561 q 1206 585 1132 561 q 1281 688 1281 610 q 1215 786 1281 749 q 1051 832 1168 814 q 789 850 935 850 q 256 653 256 850 l 256 0 z "},"à":{"ha":1350,"x_min":97,"x_max":1225,"o":"m 1225 0 l 1122 0 l 1108 83 l 1106 83 q 526 -19 811 -19 q 199 35 297 -19 q 97 210 97 90 q 200 382 97 325 q 564 439 303 439 q 790 432 658 439 q 1006 417 922 425 l 1090 410 l 1094 410 l 1094 469 q 592 656 1094 656 q 178 613 407 656 l 160 718 q 592 764 389 764 q 1060 688 894 764 q 1225 474 1225 611 l 1225 0 m 529 89 q 1094 183 818 89 l 1094 314 q 564 339 813 339 q 267 289 335 339 q 228 210 228 260 q 271 128 228 153 q 529 89 338 89 m 465 1069 l 821 894 l 821 875 l 681 875 l 292 1039 l 292 1069 l 465 1069 z "},"á":{"ha":1350,"x_min":97,"x_max":1225,"o":"m 1225 0 l 1122 0 l 1108 83 l 1106 83 q 526 -19 811 -19 q 199 35 297 -19 q 97 210 97 90 q 200 382 97 325 q 564 439 303 439 q 790 432 658 439 q 1006 417 922 425 l 1090 410 l 1094 410 l 1094 469 q 592 656 1094 656 q 178 613 407 656 l 160 718 q 592 764 389 764 q 1060 688 894 764 q 1225 474 1225 611 l 1225 0 m 529 89 q 1094 183 818 89 l 1094 314 q 564 339 813 339 q 267 289 335 339 q 228 210 228 260 q 271 128 228 153 q 529 89 338 89 m 526 894 l 915 1069 l 1100 1069 l 1100 1039 l 676 875 l 526 875 l 526 894 z "},"â":{"ha":1350,"x_min":97,"x_max":1225,"o":"m 1225 0 l 1122 0 l 1108 83 l 1106 83 q 526 -19 811 -19 q 199 35 297 -19 q 97 210 97 90 q 200 382 97 325 q 564 439 303 439 q 790 432 658 439 q 1006 417 922 425 l 1090 410 l 1094 410 l 1094 469 q 592 656 1094 656 q 178 613 407 656 l 160 718 q 592 764 389 764 q 1060 688 894 764 q 1225 474 1225 611 l 1225 0 m 529 89 q 1094 183 818 89 l 1094 314 q 564 339 813 339 q 267 289 335 339 q 228 210 228 260 q 271 128 228 153 q 529 89 338 89 m 300 897 l 633 1111 l 733 1111 l 1067 897 l 1067 875 l 942 875 l 688 1021 l 679 1021 l 425 875 l 300 875 l 300 897 z "},"ã":{"ha":1350,"x_min":97,"x_max":1225,"o":"m 1225 0 l 1122 0 l 1108 83 l 1106 83 q 526 -19 811 -19 q 199 35 297 -19 q 97 210 97 90 q 200 382 97 325 q 564 439 303 439 q 790 432 658 439 q 1006 417 922 425 l 1090 410 l 1094 410 l 1094 469 q 592 656 1094 656 q 178 613 407 656 l 160 718 q 592 764 389 764 q 1060 688 894 764 q 1225 474 1225 611 l 1225 0 m 529 89 q 1094 183 818 89 l 1094 314 q 564 339 813 339 q 267 289 335 339 q 228 210 228 260 q 271 128 228 153 q 529 89 338 89 m 924 1099 l 1029 1099 l 1029 1013 q 860 861 1029 861 q 722 897 793 861 q 588 969 650 933 q 486 1004 526 1004 q 419 944 419 1004 l 419 861 l 314 861 l 314 947 q 483 1099 314 1099 q 585 1076 531 1099 q 681 1027 639 1054 q 771 978 722 1000 q 857 956 819 956 q 924 1015 924 956 l 924 1099 z "},"ä":{"ha":1350,"x_min":97,"x_max":1225,"o":"m 1225 0 l 1122 0 l 1108 83 l 1106 83 q 526 -19 811 -19 q 199 35 297 -19 q 97 210 97 90 q 200 382 97 325 q 564 439 303 439 q 790 432 658 439 q 1006 417 922 425 l 1090 410 l 1094 410 l 1094 469 q 592 656 1094 656 q 178 613 407 656 l 160 718 q 592 764 389 764 q 1060 688 894 764 q 1225 474 1225 611 l 1225 0 m 529 89 q 1094 183 818 89 l 1094 314 q 564 339 813 339 q 267 289 335 339 q 228 210 228 260 q 271 128 228 153 q 529 89 338 89 m 488 910 q 448 910 488 910 q 408 988 408 910 q 488 1065 408 1065 q 567 988 567 1065 q 488 910 567 910 m 854 910 q 815 910 854 910 q 775 988 775 910 q 854 1065 775 1065 q 933 988 933 1065 q 854 910 933 910 z "},"å":{"ha":1350,"x_min":97,"x_max":1225,"o":"m 1225 0 l 1122 0 l 1108 83 l 1106 83 q 526 -19 811 -19 q 199 35 297 -19 q 97 210 97 90 q 200 382 97 325 q 564 439 303 439 q 790 432 658 439 q 1006 417 922 425 l 1090 410 l 1094 410 l 1094 469 q 592 656 1094 656 q 178 613 407 656 l 160 718 q 592 764 389 764 q 1060 688 894 764 q 1225 474 1225 611 l 1225 0 m 529 89 q 1094 183 818 89 l 1094 314 q 564 339 813 339 q 267 289 335 339 q 228 210 228 260 q 271 128 228 153 q 529 89 338 89 m 393 1036 q 464 1168 393 1119 q 685 1217 535 1217 q 905 1168 833 1217 q 976 1036 976 1119 q 906 902 976 951 q 685 853 835 853 q 464 902 535 853 q 393 1036 393 951 m 499 1036 q 685 942 499 942 q 871 1036 871 942 q 685 1128 871 1128 q 499 1036 499 1128 z "},"æ":{"ha":2306,"x_min":97,"x_max":2208,"o":"m 2193 331 l 1194 331 l 1194 329 q 1283 157 1199 211 q 1683 89 1389 89 q 2178 157 1947 89 l 2189 51 q 1683 -19 1976 -19 q 1221 64 1375 -19 q 1161 107 1188 81 l 1151 107 q 1094 85 1140 101 q 526 -19 806 -19 q 199 35 297 -19 q 97 210 97 90 q 200 382 97 325 q 564 431 288 431 l 1067 431 l 1067 469 q 590 656 1067 656 q 178 613 407 656 l 160 718 q 592 764 389 764 q 1146 613 1017 764 q 1203 664 1168 639 q 1647 764 1344 764 q 2043 708 1903 764 q 2208 471 2208 643 q 2193 331 2208 431 m 1085 189 q 1091 191 1086 189 q 1099 194 1096 193 q 1068 331 1072 254 l 564 331 q 267 289 325 331 q 228 210 228 260 q 271 128 228 153 q 529 89 338 89 q 1085 189 826 89 m 1282 583 q 1197 431 1203 532 l 2074 431 q 2078 482 2078 454 q 1974 615 2078 574 q 1647 656 1872 656 q 1282 583 1393 656 z "},"ç":{"ha":1338,"x_min":97,"x_max":1254,"o":"m 436 -335 l 439 -244 q 754 -267 592 -267 q 906 -260 854 -267 q 972 -243 957 -254 q 988 -211 988 -232 q 919 -175 988 -175 l 593 -175 l 568 -151 l 618 -14 q 267 64 393 -4 q 143 181 189 106 q 97 365 97 257 q 242 661 97 564 q 707 767 397 767 q 1249 696 1011 767 l 1225 590 q 707 658 971 658 q 467 633 569 658 q 314 565 365 607 q 231 365 231 497 q 261 241 231 296 q 343 158 292 186 q 722 92 461 92 q 1228 158 971 92 l 1254 53 q 1010 5 1161 25 q 728 -17 858 -15 l 711 -82 l 713 -85 q 875 -81 781 -81 q 1044 -114 996 -81 q 1093 -211 1093 -147 q 1018 -324 1093 -287 q 754 -361 943 -361 q 607 -354 686 -361 q 482 -342 528 -347 l 436 -335 z "},"è":{"ha":1364,"x_min":97,"x_max":1267,"o":"m 1250 317 l 228 317 l 228 315 q 319 157 232 211 q 729 89 426 89 q 1235 160 992 89 l 1247 54 q 729 -19 1018 -19 q 256 64 411 -19 q 97 371 97 147 q 236 664 97 569 q 692 764 382 764 q 1097 708 960 764 q 1267 471 1267 640 q 1250 317 1267 389 m 315 579 q 228 417 233 524 l 1132 417 q 1136 471 1136 442 q 1029 613 1136 567 q 692 656 926 656 q 315 579 428 656 m 428 1069 l 783 894 l 783 875 l 643 875 l 254 1039 l 254 1069 l 428 1069 z "},"é":{"ha":1364,"x_min":97,"x_max":1267,"o":"m 1250 317 l 228 317 l 228 315 q 319 157 232 211 q 729 89 426 89 q 1235 160 992 89 l 1247 54 q 729 -19 1018 -19 q 256 64 411 -19 q 97 371 97 147 q 236 664 97 569 q 692 764 382 764 q 1097 708 960 764 q 1267 471 1267 640 q 1250 317 1267 389 m 315 579 q 228 417 233 524 l 1132 417 q 1136 471 1136 442 q 1029 613 1136 567 q 692 656 926 656 q 315 579 428 656 m 542 894 l 931 1069 l 1115 1069 l 1115 1039 l 692 875 l 542 875 l 542 894 z "},"ê":{"ha":1364,"x_min":97,"x_max":1267,"o":"m 1250 317 l 228 317 l 228 315 q 319 157 232 211 q 729 89 426 89 q 1235 160 992 89 l 1247 54 q 729 -19 1018 -19 q 256 64 411 -19 q 97 371 97 147 q 236 664 97 569 q 692 764 382 764 q 1097 708 960 764 q 1267 471 1267 640 q 1250 317 1267 389 m 315 579 q 228 417 233 524 l 1132 417 q 1136 471 1136 442 q 1029 613 1136 567 q 692 656 926 656 q 315 579 428 656 m 300 897 l 633 1111 l 733 1111 l 1067 897 l 1067 875 l 942 875 l 688 1021 l 679 1021 l 425 875 l 300 875 l 300 897 z "},"ë":{"ha":1364,"x_min":97,"x_max":1267,"o":"m 1250 317 l 228 317 l 228 315 q 319 157 232 211 q 729 89 426 89 q 1235 160 992 89 l 1247 54 q 729 -19 1018 -19 q 256 64 411 -19 q 97 371 97 147 q 236 664 97 569 q 692 764 382 764 q 1097 708 960 764 q 1267 471 1267 640 q 1250 317 1267 389 m 315 579 q 228 417 233 524 l 1132 417 q 1136 471 1136 442 q 1029 613 1136 567 q 692 656 926 656 q 315 579 428 656 m 513 915 q 473 915 513 915 q 433 993 433 915 q 513 1071 433 1071 q 592 993 592 1071 q 513 915 592 915 m 879 915 q 840 915 879 915 q 800 993 800 915 q 879 1071 800 1071 q 958 993 958 1071 q 879 915 958 915 z "},"ì":{"ha":458,"x_min":-110,"x_max":308,"o":"m 50 1069 l 308 894 l 308 875 l 182 875 l -110 1039 l -110 1069 l 50 1069 m 294 750 l 294 0 l 164 0 l 164 750 l 294 750 z "},"í":{"ha":458,"x_min":150,"x_max":606,"o":"m 150 894 l 442 1069 l 606 1069 l 606 1039 l 279 875 l 150 875 l 150 894 m 294 750 l 294 0 l 164 0 l 164 750 l 294 750 z "},"î":{"ha":458,"x_min":-154,"x_max":613,"o":"m -154 897 l 179 1111 l 279 1111 l 613 897 l 613 875 l 488 875 l 233 1021 l 225 1021 l -29 875 l -154 875 l -154 897 m 294 750 l 294 0 l 164 0 l 164 750 l 294 750 z "},"ï":{"ha":458,"x_min":22,"x_max":436,"o":"m 101 872 q 62 872 101 872 q 22 950 22 872 q 101 1028 22 1028 q 181 950 181 1028 q 101 872 181 872 m 357 872 q 317 872 357 872 q 278 950 278 872 q 357 1028 278 1028 q 436 950 436 1028 q 357 872 436 872 m 294 750 l 294 0 l 164 0 l 164 750 l 294 750 z "},"ð":{"ha":1450,"x_min":97,"x_max":1353,"o":"m 1171 1056 l 869 944 l 869 942 q 1353 389 1353 778 q 1211 88 1353 181 q 725 -14 1057 -14 q 239 88 399 -14 q 97 361 97 179 q 238 633 97 543 q 697 736 400 736 q 1143 636 1013 736 l 1144 638 q 700 881 1026 799 l 369 757 l 188 757 l 188 785 l 539 914 l 539 915 q 179 954 411 938 l 188 1061 q 724 985 503 1039 l 989 1083 l 1171 1083 l 1171 1056 m 333 171 q 725 94 464 94 q 1117 171 986 94 q 1219 361 1219 232 q 1119 553 1219 493 q 957 607 1063 586 q 725 628 851 628 q 493 607 599 628 q 331 553 388 586 q 231 361 231 493 q 333 171 231 232 z "},"ñ":{"ha":1442,"x_min":125,"x_max":1317,"o":"m 999 1099 l 1104 1099 l 1104 1013 q 935 861 1104 861 q 797 897 868 861 q 663 969 725 933 q 561 1004 601 1004 q 494 944 494 1004 l 494 861 l 389 861 l 389 947 q 558 1099 389 1099 q 660 1076 606 1099 q 756 1027 714 1054 q 846 978 797 1000 q 932 956 894 956 q 999 1015 999 956 l 999 1099 m 1317 0 l 1186 0 l 1186 389 q 1092 590 1186 525 q 765 656 999 656 q 478 622 625 656 q 256 550 331 589 l 256 0 l 125 0 l 125 750 l 228 750 q 235 700 231 732 q 242 653 240 668 l 246 653 q 765 764 510 764 q 1032 738 922 764 q 1203 662 1142 713 q 1290 547 1264 611 q 1317 394 1317 482 l 1317 0 z "},"ò":{"ha":1450,"x_min":97,"x_max":1353,"o":"m 1211 89 q 725 -14 1056 -14 q 239 89 394 -14 q 97 375 97 182 q 238 660 97 567 q 725 764 396 764 q 1213 660 1054 764 q 1353 375 1353 567 q 1211 89 1353 182 m 333 172 q 725 94 458 94 q 1117 172 992 94 q 1219 375 1219 235 q 1119 579 1219 518 q 725 656 997 656 q 331 579 453 656 q 231 375 231 518 q 333 172 231 235 m 481 1069 l 836 894 l 836 875 l 696 875 l 307 1039 l 307 1069 l 481 1069 z "},"ó":{"ha":1450,"x_min":97,"x_max":1353,"o":"m 1211 89 q 725 -14 1056 -14 q 239 89 394 -14 q 97 375 97 182 q 238 660 97 567 q 725 764 396 764 q 1213 660 1054 764 q 1353 375 1353 567 q 1211 89 1353 182 m 333 172 q 725 94 458 94 q 1117 172 992 94 q 1219 375 1219 235 q 1119 579 1219 518 q 725 656 997 656 q 331 579 453 656 q 231 375 231 518 q 333 172 231 235 m 610 894 l 999 1069 l 1183 1069 l 1183 1039 l 760 875 l 610 875 l 610 894 z "},"ô":{"ha":1450,"x_min":97,"x_max":1353,"o":"m 1211 89 q 725 -14 1056 -14 q 239 89 394 -14 q 97 375 97 182 q 238 660 97 567 q 725 764 396 764 q 1213 660 1054 764 q 1353 375 1353 567 q 1211 89 1353 182 m 333 172 q 725 94 458 94 q 1117 172 992 94 q 1219 375 1219 235 q 1119 579 1219 518 q 725 656 997 656 q 331 579 453 656 q 231 375 231 518 q 333 172 231 235 m 336 897 l 669 1111 l 769 1111 l 1103 897 l 1103 875 l 978 875 l 724 1021 l 715 1021 l 461 875 l 336 875 l 336 897 z "},"õ":{"ha":1450,"x_min":97,"x_max":1353,"o":"m 1211 89 q 725 -14 1056 -14 q 239 89 394 -14 q 97 375 97 182 q 238 660 97 567 q 725 764 396 764 q 1213 660 1054 764 q 1353 375 1353 567 q 1211 89 1353 182 m 333 172 q 725 94 458 94 q 1117 172 992 94 q 1219 375 1219 235 q 1119 579 1219 518 q 725 656 997 656 q 331 579 453 656 q 231 375 231 518 q 333 172 231 235 m 989 1094 l 1094 1094 l 1094 1008 q 925 857 1094 857 q 815 879 872 857 q 718 928 758 901 q 631 978 678 956 q 551 1000 585 1000 q 485 940 485 1000 l 485 857 l 379 857 l 379 943 q 549 1094 379 1094 q 678 1058 608 1094 q 812 987 747 1022 q 922 951 876 951 q 989 1011 989 951 l 989 1094 z "},"ö":{"ha":1450,"x_min":97,"x_max":1353,"o":"m 1211 89 q 725 -14 1056 -14 q 239 89 394 -14 q 97 375 97 182 q 238 660 97 567 q 725 764 396 764 q 1213 660 1054 764 q 1353 375 1353 567 q 1211 89 1353 182 m 333 172 q 725 94 458 94 q 1117 172 992 94 q 1219 375 1219 235 q 1119 579 1219 518 q 725 656 997 656 q 331 579 453 656 q 231 375 231 518 q 333 172 231 235 m 539 894 q 499 894 539 894 q 460 972 460 894 q 539 1050 460 1050 q 618 972 618 1050 q 539 894 618 894 m 906 894 q 866 894 906 894 q 826 972 826 894 q 906 1050 826 1050 q 985 972 985 1050 q 906 894 985 894 z "},"÷":{"ha":1667,"x_min":228,"x_max":1439,"o":"m 833 14 q 794 14 833 14 q 754 92 754 14 q 833 169 754 169 q 913 92 913 169 q 833 14 913 14 m 833 692 q 794 692 833 692 q 754 769 754 692 q 833 847 754 847 q 913 769 913 847 q 833 692 913 692 m 1439 383 l 228 383 l 228 478 l 1439 478 l 1439 383 z "},"ø":{"ha":1450,"x_min":97,"x_max":1353,"o":"m 725 -14 q 403 21 538 -14 l 303 -69 l 188 -69 l 188 -54 l 306 53 l 306 54 q 239 89 271 68 q 97 375 97 182 q 238 660 97 567 q 725 764 396 764 q 1047 728 910 764 l 1149 819 l 1264 819 l 1264 803 l 1146 696 l 1146 694 q 1213 660 1178 682 q 1353 375 1353 567 q 1211 89 1353 182 q 725 -14 1056 -14 m 333 172 q 401 140 357 156 l 947 636 l 947 638 q 725 656 853 656 q 331 579 453 656 q 231 375 231 518 q 333 172 231 235 m 725 94 q 1117 172 992 94 q 1219 375 1219 235 q 1119 579 1219 518 q 1051 610 1089 597 l 506 115 l 506 114 q 725 94 606 94 z "},"ù":{"ha":1442,"x_min":125,"x_max":1317,"o":"m 125 750 l 256 750 l 256 361 q 275 249 256 296 q 340 167 294 203 q 467 113 386 131 q 665 94 549 94 q 965 133 828 94 q 1186 214 1103 171 l 1186 750 l 1317 750 l 1317 0 l 1213 0 l 1200 100 l 1196 100 q 665 -14 961 -14 q 249 80 374 -14 q 125 356 125 174 l 125 750 m 500 1069 l 856 894 l 856 875 l 715 875 l 326 1039 l 326 1069 l 500 1069 z "},"ú":{"ha":1442,"x_min":125,"x_max":1317,"o":"m 125 750 l 256 750 l 256 361 q 275 249 256 296 q 340 167 294 203 q 467 113 386 131 q 665 94 549 94 q 965 133 828 94 q 1186 214 1103 171 l 1186 750 l 1317 750 l 1317 0 l 1213 0 l 1200 100 l 1196 100 q 665 -14 961 -14 q 249 80 374 -14 q 125 356 125 174 l 125 750 m 593 894 l 982 1069 l 1167 1069 l 1167 1039 l 743 875 l 593 875 l 593 894 z "},"û":{"ha":1442,"x_min":125,"x_max":1317,"o":"m 125 750 l 256 750 l 256 361 q 275 249 256 296 q 340 167 294 203 q 467 113 386 131 q 665 94 549 94 q 965 133 828 94 q 1186 214 1103 171 l 1186 750 l 1317 750 l 1317 0 l 1213 0 l 1200 100 l 1196 100 q 665 -14 961 -14 q 249 80 374 -14 q 125 356 125 174 l 125 750 m 346 897 l 679 1111 l 779 1111 l 1113 897 l 1113 875 l 988 875 l 733 1021 l 725 1021 l 471 875 l 346 875 l 346 897 z "},"ü":{"ha":1442,"x_min":125,"x_max":1317,"o":"m 125 750 l 256 750 l 256 361 q 275 249 256 296 q 340 167 294 203 q 467 113 386 131 q 665 94 549 94 q 965 133 828 94 q 1186 214 1103 171 l 1186 750 l 1317 750 l 1317 0 l 1213 0 l 1200 100 l 1196 100 q 665 -14 961 -14 q 249 80 374 -14 q 125 356 125 174 l 125 750 m 544 908 q 505 908 544 908 q 465 986 465 908 q 544 1064 465 1064 q 624 986 624 1064 q 544 908 624 908 m 911 908 q 872 908 911 908 q 832 986 832 908 q 911 1064 832 1064 q 990 986 990 1064 q 911 908 990 908 z "},"ý":{"ha":1529,"x_min":42,"x_max":1488,"o":"m 314 -239 l 707 146 l 707 149 l 42 739 l 42 750 l 214 750 l 794 236 l 799 236 l 1324 750 l 1488 750 l 1488 739 l 478 -250 l 314 -250 l 314 -239 m 664 894 l 1053 1069 l 1238 1069 l 1238 1039 l 814 875 l 664 875 l 664 894 z "},"þ":{"ha":1475,"x_min":125,"x_max":1378,"o":"m 125 1042 l 256 1042 l 256 686 l 258 686 q 365 715 301 700 q 551 747 429 731 q 788 764 674 764 q 1038 742 931 764 q 1208 686 1144 721 q 1311 599 1272 651 q 1364 494 1350 547 q 1378 376 1378 442 q 793 -14 1378 -14 q 258 69 532 -14 l 256 69 l 256 -347 l 125 -347 l 125 1042 m 788 656 q 468 628 617 656 q 256 576 319 601 l 256 181 q 483 124 332 154 q 793 94 635 94 q 1022 115 931 94 q 1161 177 1114 136 q 1226 265 1208 218 q 1244 376 1244 311 q 1227 484 1244 439 q 1164 571 1210 529 q 1024 634 1118 613 q 788 656 929 656 z "},"ÿ":{"ha":1529,"x_min":42,"x_max":1488,"o":"m 314 -239 l 707 146 l 707 149 l 42 739 l 42 750 l 214 750 l 794 236 l 799 236 l 1324 750 l 1488 750 l 1488 739 l 478 -250 l 314 -250 l 314 -239 m 611 904 q 572 904 611 904 q 532 982 532 904 q 611 1060 532 1060 q 690 982 690 1060 q 611 904 690 904 m 978 904 q 938 904 978 904 q 899 982 899 904 q 978 1060 899 1060 q 1057 982 1057 1060 q 978 904 1057 904 z "},"Ā":{"ha":1914,"x_min":56,"x_max":1858,"o":"m 1692 0 l 1497 211 l 415 211 l 222 0 l 56 0 l 56 10 l 911 944 l 1003 944 l 1858 10 l 1858 0 l 1692 0 m 785 613 l 515 319 l 1399 319 l 1129 613 q 958 806 1008 743 l 956 806 l 785 613 m 1257 1131 l 657 1131 l 657 1225 l 1257 1225 l 1257 1131 z "},"ā":{"ha":1350,"x_min":97,"x_max":1225,"o":"m 1225 0 l 1122 0 l 1108 83 l 1106 83 q 526 -19 811 -19 q 199 35 297 -19 q 97 210 97 90 q 200 382 97 325 q 564 439 303 439 q 790 432 658 439 q 1006 417 922 425 l 1090 410 l 1094 410 l 1094 469 q 592 656 1094 656 q 178 613 407 656 l 160 718 q 592 764 389 764 q 1060 688 894 764 q 1225 474 1225 611 l 1225 0 m 529 89 q 1094 183 818 89 l 1094 314 q 564 339 813 339 q 267 289 335 339 q 228 210 228 260 q 271 128 228 153 q 529 89 338 89 m 985 947 l 385 947 l 385 1042 l 985 1042 l 985 947 z "},"Ă":{"ha":1914,"x_min":56,"x_max":1858,"o":"m 1692 0 l 1497 211 l 415 211 l 222 0 l 56 0 l 56 10 l 911 944 l 1003 944 l 1858 10 l 1858 0 l 1692 0 m 785 613 l 515 319 l 1399 319 l 1129 613 q 958 806 1008 743 l 956 806 l 785 613 m 664 1333 l 769 1333 q 812 1201 772 1240 q 956 1161 851 1161 q 1097 1200 1058 1161 q 1142 1333 1136 1239 l 1247 1333 q 1177 1136 1247 1200 q 956 1072 1107 1072 q 734 1136 804 1072 q 664 1333 664 1200 z "},"ă":{"ha":1350,"x_min":97,"x_max":1225,"o":"m 1225 0 l 1122 0 l 1108 83 l 1106 83 q 526 -19 811 -19 q 199 35 297 -19 q 97 210 97 90 q 200 382 97 325 q 564 439 303 439 q 790 432 658 439 q 1006 417 922 425 l 1090 410 l 1094 410 l 1094 469 q 592 656 1094 656 q 178 613 407 656 l 160 718 q 592 764 389 764 q 1060 688 894 764 q 1225 474 1225 611 l 1225 0 m 529 89 q 1094 183 818 89 l 1094 314 q 564 339 813 339 q 267 289 335 339 q 228 210 228 260 q 271 128 228 153 q 529 89 338 89 m 393 1111 l 499 1111 q 541 978 501 1018 q 685 939 581 939 q 826 978 788 939 q 871 1111 865 1017 l 976 1111 q 906 914 976 978 q 685 850 836 850 q 463 914 533 850 q 393 1111 393 978 z "},"Ą":{"ha":1914,"x_min":56,"x_max":1944,"o":"m 1582 -169 q 1703 -12 1582 -92 l 1497 211 l 415 211 l 222 0 l 56 0 l 56 10 l 911 944 l 1003 944 l 1858 10 l 1858 0 q 1722 -97 1757 -65 q 1688 -158 1688 -129 q 1794 -210 1688 -210 q 1861 -207 1825 -210 q 1918 -201 1897 -204 l 1939 -199 l 1944 -282 q 1794 -299 1886 -299 q 1582 -169 1582 -299 m 785 613 l 515 319 l 1399 319 l 1129 613 q 958 806 1008 743 l 956 806 l 785 613 z "},"ą":{"ha":1350,"x_min":97,"x_max":1311,"o":"m 1225 474 l 1225 0 q 1089 -97 1124 -65 q 1054 -158 1054 -129 q 1161 -210 1054 -210 q 1228 -207 1192 -210 q 1285 -201 1264 -204 l 1306 -199 l 1311 -282 q 1161 -299 1253 -299 q 949 -169 949 -299 q 981 -87 949 -126 q 1090 0 1014 -47 l 1118 18 l 1108 83 l 1106 83 q 526 -19 811 -19 q 199 35 297 -19 q 97 210 97 90 q 200 382 97 325 q 564 439 303 439 q 790 432 658 439 q 1006 417 922 425 l 1090 410 l 1094 410 l 1094 469 q 592 656 1094 656 q 178 613 407 656 l 160 718 q 592 764 389 764 q 1060 688 894 764 q 1225 474 1225 611 m 529 89 q 1094 183 818 89 l 1094 314 q 564 339 813 339 q 267 289 335 339 q 228 210 228 260 q 271 128 228 153 q 529 89 338 89 z "},"Ć":{"ha":1828,"x_min":111,"x_max":1717,"o":"m 1704 853 l 1704 851 l 1678 742 q 954 847 1296 847 q 397 735 571 847 q 253 457 253 640 q 400 188 253 268 q 974 97 563 97 q 1349 132 1150 97 q 1692 211 1547 167 l 1717 97 q 1376 17 1581 53 q 974 -19 1172 -19 q 568 8 721 -19 q 304 97 415 35 q 163 242 214 149 q 111 457 111 336 q 304 824 111 697 q 954 964 517 964 q 1704 853 1368 964 m 824 1106 l 1213 1281 l 1397 1281 l 1397 1250 l 974 1086 l 824 1086 l 824 1106 z "},"ć":{"ha":1338,"x_min":97,"x_max":1254,"o":"m 1249 696 l 1225 590 q 707 658 971 658 q 467 633 569 658 q 314 565 365 607 q 231 365 231 497 q 261 241 231 296 q 343 158 292 186 q 722 92 461 92 q 1228 158 971 92 l 1254 53 q 1005 4 1158 25 q 722 -17 851 -17 q 267 64 419 -17 q 143 181 189 106 q 97 365 97 257 q 242 661 97 564 q 707 767 397 767 q 1249 696 1011 767 m 565 894 l 954 1069 l 1139 1069 l 1139 1039 l 715 875 l 565 875 l 565 894 z "},"Ĉ":{"ha":1828,"x_min":111,"x_max":1717,"o":"m 1704 853 l 1704 851 l 1678 742 q 954 847 1296 847 q 397 735 571 847 q 253 457 253 640 q 400 188 253 268 q 974 97 563 97 q 1349 132 1150 97 q 1692 211 1547 167 l 1717 97 q 1376 17 1581 53 q 974 -19 1172 -19 q 568 8 721 -19 q 304 97 415 35 q 163 242 214 149 q 111 457 111 336 q 304 824 111 697 q 954 964 517 964 q 1704 853 1368 964 m 564 1106 l 897 1319 l 997 1319 l 1331 1106 l 1331 1083 l 1206 1083 l 951 1229 l 943 1229 l 689 1083 l 564 1083 l 564 1106 z "},"ĉ":{"ha":1338,"x_min":97,"x_max":1254,"o":"m 1249 696 l 1225 590 q 707 658 971 658 q 467 633 569 658 q 314 565 365 607 q 231 365 231 497 q 261 241 231 296 q 343 158 292 186 q 722 92 461 92 q 1228 158 971 92 l 1254 53 q 1005 4 1158 25 q 722 -17 851 -17 q 267 64 419 -17 q 143 181 189 106 q 97 365 97 257 q 242 661 97 564 q 707 767 397 767 q 1249 696 1011 767 m 331 897 l 664 1111 l 764 1111 l 1097 897 l 1097 875 l 972 875 l 718 1021 l 710 1021 l 456 875 l 331 875 l 331 897 z "},"Ċ":{"ha":1828,"x_min":111,"x_max":1717,"o":"m 1704 853 l 1704 851 l 1678 742 q 954 847 1296 847 q 397 735 571 847 q 253 457 253 640 q 400 188 253 268 q 974 97 563 97 q 1349 132 1150 97 q 1692 211 1547 167 l 1717 97 q 1376 17 1581 53 q 974 -19 1172 -19 q 568 8 721 -19 q 304 97 415 35 q 163 242 214 149 q 111 457 111 336 q 304 824 111 697 q 954 964 517 964 q 1704 853 1368 964 m 939 1118 q 899 1118 939 1118 q 860 1196 860 1118 q 939 1274 860 1274 q 1018 1196 1018 1274 q 939 1118 1018 1118 z "},"ċ":{"ha":1338,"x_min":97,"x_max":1254,"o":"m 1249 696 l 1225 590 q 707 658 971 658 q 467 633 569 658 q 314 565 365 607 q 231 365 231 497 q 261 241 231 296 q 343 158 292 186 q 722 92 461 92 q 1228 158 971 92 l 1254 53 q 1005 4 1158 25 q 722 -17 851 -17 q 267 64 419 -17 q 143 181 189 106 q 97 365 97 257 q 242 661 97 564 q 707 767 397 767 q 1249 696 1011 767 m 714 910 q 674 910 714 910 q 635 988 635 910 q 714 1065 635 1065 q 793 988 793 1065 q 714 910 793 910 z "},"Č":{"ha":1828,"x_min":111,"x_max":1717,"o":"m 1704 853 l 1704 851 l 1678 742 q 954 847 1296 847 q 397 735 571 847 q 253 457 253 640 q 400 188 253 268 q 974 97 563 97 q 1349 132 1150 97 q 1692 211 1547 167 l 1717 97 q 1376 17 1581 53 q 974 -19 1172 -19 q 568 8 721 -19 q 304 97 415 35 q 163 242 214 149 q 111 457 111 336 q 304 824 111 697 q 954 964 517 964 q 1704 853 1368 964 m 1342 1304 l 1008 1090 l 908 1090 l 575 1304 l 575 1326 l 700 1326 l 954 1181 l 963 1181 l 1217 1326 l 1342 1326 l 1342 1304 z "},"č":{"ha":1338,"x_min":97,"x_max":1254,"o":"m 1125 1089 l 792 875 l 692 875 l 358 1089 l 358 1111 l 483 1111 l 738 965 l 746 965 l 1000 1111 l 1125 1111 l 1125 1089 m 1249 696 l 1225 590 q 707 658 971 658 q 467 633 569 658 q 314 565 365 607 q 231 365 231 497 q 261 241 231 296 q 343 158 292 186 q 722 92 461 92 q 1228 158 971 92 l 1254 53 q 1005 4 1158 25 q 722 -17 851 -17 q 267 64 419 -17 q 143 181 189 106 q 97 365 97 257 q 242 661 97 564 q 707 767 397 767 q 1249 696 1011 767 z "},"Ď":{"ha":1861,"x_min":139,"x_max":1750,"o":"m 1260 1304 l 926 1090 l 826 1090 l 493 1304 l 493 1326 l 618 1326 l 872 1181 l 881 1181 l 1135 1326 l 1260 1326 l 1260 1304 m 139 0 l 139 944 l 926 944 q 1568 832 1394 944 q 1750 469 1750 713 q 1569 104 1750 221 q 1344 24 1481 47 q 975 0 1207 0 l 139 0 m 278 828 l 278 117 l 971 117 q 1468 193 1339 117 q 1608 469 1608 276 q 1467 743 1608 656 q 922 828 1329 828 l 278 828 z "},"ď":{"ha":1621,"x_min":97,"x_max":1607,"o":"m 697 764 q 1215 714 938 764 l 1219 714 l 1219 1042 l 1350 1042 l 1350 0 l 1247 0 l 1235 83 l 1231 83 q 711 -14 968 -14 q 435 8 544 -14 q 242 85 325 31 q 136 203 175 128 q 97 375 97 279 q 236 664 97 567 q 697 764 379 764 m 711 94 q 1219 192 964 94 l 1219 600 q 697 656 972 656 q 332 583 439 656 q 231 375 231 515 q 328 172 231 238 q 711 94 443 94 m 1449 1010 q 1528 1088 1449 1088 q 1607 1010 1607 1088 q 1582 871 1607 961 l 1557 779 l 1483 779 l 1483 790 l 1500 931 l 1500 935 q 1449 1010 1449 946 z "},"Đ":{"ha":1914,"x_min":14,"x_max":1803,"o":"m 192 0 l 192 422 l 14 422 l 14 522 l 192 522 l 192 944 l 979 944 q 1621 832 1447 944 q 1803 469 1803 713 q 1622 104 1803 221 q 1397 24 1533 47 q 1028 0 1260 0 l 192 0 m 331 828 l 331 522 l 997 522 l 997 422 l 331 422 l 331 117 l 1024 117 q 1521 193 1392 117 q 1661 469 1661 276 q 1519 743 1661 656 q 975 828 1382 828 l 331 828 z "},"đ":{"ha":1475,"x_min":97,"x_max":1489,"o":"m 624 856 l 624 944 l 1219 944 l 1219 1042 l 1350 1042 l 1350 944 l 1489 944 l 1489 856 l 1350 856 l 1350 0 l 1247 0 l 1235 83 l 1231 83 q 711 -14 968 -14 q 435 8 544 -14 q 242 85 325 31 q 136 203 175 128 q 97 375 97 279 q 236 664 97 567 q 697 764 379 764 q 1215 714 938 764 l 1219 714 l 1219 856 l 624 856 m 711 94 q 1219 192 964 94 l 1219 600 q 697 656 972 656 q 332 583 439 656 q 231 375 231 515 q 328 172 231 238 q 711 94 443 94 z "},"Ē":{"ha":1740,"x_min":139,"x_max":1615,"o":"m 1551 432 l 278 432 l 278 117 l 1615 117 l 1615 0 l 139 0 l 139 944 l 1607 944 l 1607 828 l 278 828 l 278 540 l 1551 540 l 1551 432 m 1199 1131 l 599 1131 l 599 1225 l 1199 1225 l 1199 1131 z "},"ē":{"ha":1364,"x_min":97,"x_max":1267,"o":"m 1250 317 l 228 317 l 228 315 q 319 157 232 211 q 729 89 426 89 q 1235 160 992 89 l 1247 54 q 729 -19 1018 -19 q 256 64 411 -19 q 97 371 97 147 q 236 664 97 569 q 692 764 382 764 q 1097 708 960 764 q 1267 471 1267 640 q 1250 317 1267 389 m 315 579 q 228 417 233 524 l 1132 417 q 1136 471 1136 442 q 1029 613 1136 567 q 692 656 926 656 q 315 579 428 656 m 979 922 l 379 922 l 379 1017 l 979 1017 l 979 922 z "},"Ĕ":{"ha":1740,"x_min":139,"x_max":1615,"o":"m 1551 432 l 278 432 l 278 117 l 1615 117 l 1615 0 l 139 0 l 139 944 l 1607 944 l 1607 828 l 278 828 l 278 540 l 1551 540 l 1551 432 m 624 1333 l 729 1333 q 772 1201 732 1240 q 915 1161 811 1161 q 1057 1200 1018 1161 q 1101 1333 1096 1239 l 1207 1333 q 1137 1136 1207 1200 q 915 1072 1067 1072 q 694 1136 764 1072 q 624 1333 624 1200 z "},"ĕ":{"ha":1364,"x_min":97,"x_max":1267,"o":"m 1250 317 l 228 317 l 228 315 q 319 157 232 211 q 729 89 426 89 q 1235 160 992 89 l 1247 54 q 729 -19 1018 -19 q 256 64 411 -19 q 97 371 97 147 q 236 664 97 569 q 692 764 382 764 q 1097 708 960 764 q 1267 471 1267 640 q 1250 317 1267 389 m 315 579 q 228 417 233 524 l 1132 417 q 1136 471 1136 442 q 1029 613 1136 567 q 692 656 926 656 q 315 579 428 656 m 389 1106 l 494 1106 q 537 973 497 1013 q 681 933 576 933 q 822 972 783 933 q 867 1106 861 1011 l 972 1106 q 902 908 972 972 q 681 844 832 844 q 459 908 529 844 q 389 1106 389 972 z "},"Ė":{"ha":1740,"x_min":139,"x_max":1615,"o":"m 1551 432 l 278 432 l 278 117 l 1615 117 l 1615 0 l 139 0 l 139 944 l 1607 944 l 1607 828 l 278 828 l 278 540 l 1551 540 l 1551 432 m 926 1118 q 887 1118 926 1118 q 847 1196 847 1118 q 926 1274 847 1274 q 1006 1196 1006 1274 q 926 1118 1006 1118 z "},"ė":{"ha":1364,"x_min":97,"x_max":1267,"o":"m 1250 317 l 228 317 l 228 315 q 319 157 232 211 q 729 89 426 89 q 1235 160 992 89 l 1247 54 q 729 -19 1018 -19 q 256 64 411 -19 q 97 371 97 147 q 236 664 97 569 q 692 764 382 764 q 1097 708 960 764 q 1267 471 1267 640 q 1250 317 1267 389 m 315 579 q 228 417 233 524 l 1132 417 q 1136 471 1136 442 q 1029 613 1136 567 q 692 656 926 656 q 315 579 428 656 m 668 910 q 628 910 668 910 q 589 988 589 910 q 668 1065 589 1065 q 747 988 747 1065 q 668 910 747 910 z "},"Ę":{"ha":1740,"x_min":139,"x_max":1701,"o":"m 1551 432 l 278 432 l 278 117 l 1615 117 l 1615 0 q 1479 -97 1514 -65 q 1444 -158 1444 -129 q 1551 -210 1444 -210 q 1618 -207 1582 -210 q 1675 -201 1654 -204 l 1696 -199 l 1701 -282 q 1551 -299 1643 -299 q 1339 -169 1339 -299 q 1369 -87 1339 -125 q 1472 -3 1399 -49 l 1472 0 l 139 0 l 139 944 l 1607 944 l 1607 828 l 278 828 l 278 540 l 1551 540 l 1551 432 z "},"ę":{"ha":1364,"x_min":97,"x_max":1267,"o":"m 1250 317 l 228 317 l 228 315 q 319 157 232 211 q 729 89 426 89 q 1235 160 992 89 l 1247 54 q 1090 14 1185 32 l 1065 0 q 929 -97 964 -65 q 894 -158 894 -129 q 1001 -210 894 -210 q 1068 -207 1032 -210 q 1125 -201 1104 -204 l 1146 -199 l 1151 -282 q 1001 -299 1093 -299 q 789 -169 789 -299 q 908 -11 789 -89 q 729 -19 797 -19 q 256 64 411 -19 q 97 371 97 147 q 236 664 97 569 q 692 764 382 764 q 1097 708 960 764 q 1267 471 1267 640 q 1250 317 1267 389 m 315 579 q 228 417 233 524 l 1132 417 q 1136 471 1136 442 q 1029 613 1136 567 q 692 656 926 656 q 315 579 428 656 z "},"Ě":{"ha":1740,"x_min":139,"x_max":1615,"o":"m 1293 1300 l 960 1086 l 860 1086 l 526 1300 l 526 1322 l 651 1322 l 906 1176 l 914 1176 l 1168 1322 l 1293 1322 l 1293 1300 m 1551 432 l 278 432 l 278 117 l 1615 117 l 1615 0 l 139 0 l 139 944 l 1607 944 l 1607 828 l 278 828 l 278 540 l 1551 540 l 1551 432 z "},"ě":{"ha":1364,"x_min":97,"x_max":1267,"o":"m 1250 317 l 228 317 l 228 315 q 319 157 232 211 q 729 89 426 89 q 1235 160 992 89 l 1247 54 q 729 -19 1018 -19 q 256 64 411 -19 q 97 371 97 147 q 236 664 97 569 q 692 764 382 764 q 1097 708 960 764 q 1267 471 1267 640 q 1250 317 1267 389 m 315 579 q 228 417 233 524 l 1132 417 q 1136 471 1136 442 q 1029 613 1136 567 q 692 656 926 656 q 315 579 428 656 m 1078 1089 l 744 875 l 644 875 l 311 1089 l 311 1111 l 436 1111 l 690 965 l 699 965 l 953 1111 l 1078 1111 l 1078 1089 z "},"Ĝ":{"ha":1889,"x_min":111,"x_max":1764,"o":"m 1738 875 l 1710 763 q 985 847 1310 847 q 381 724 546 842 q 253 456 253 632 q 293 293 253 365 q 404 185 333 221 q 985 97 571 97 q 1625 181 1335 97 l 1625 406 l 686 406 l 686 514 l 1764 514 l 1764 99 q 985 -19 1393 -19 q 311 92 514 -19 q 165 237 218 143 q 111 456 111 331 q 294 814 111 690 q 572 922 392 881 q 985 964 751 964 q 1738 875 1389 964 m 619 1106 l 953 1319 l 1053 1319 l 1386 1106 l 1386 1083 l 1261 1083 l 1007 1229 l 999 1229 l 744 1083 l 619 1083 l 619 1106 z "},"ĝ":{"ha":1399,"x_min":97,"x_max":1301,"o":"m 661 233 q 286 288 411 233 q 219 161 219 213 q 251 103 219 121 q 367 86 283 86 l 961 86 q 1301 -128 1301 86 q 1289 -213 1301 -176 q 1237 -287 1276 -250 q 1131 -349 1197 -325 q 950 -387 1064 -372 q 681 -403 836 -403 q 319 -375 450 -403 q 142 -301 188 -347 q 97 -181 97 -256 q 189 3 97 -93 l 189 6 q 97 150 97 46 q 199 344 97 244 q 146 503 146 397 q 265 701 146 635 q 661 764 376 764 q 878 750 778 764 l 1274 750 l 1274 650 l 1181 650 l 1104 654 l 1103 650 q 1176 499 1176 608 q 1054 297 1176 360 q 661 233 931 233 m 367 -22 q 306 -19 342 -22 q 231 -164 231 -94 q 265 -237 231 -211 q 398 -279 299 -264 q 681 -294 497 -294 q 934 -283 833 -294 q 1084 -247 1035 -271 q 1151 -198 1133 -224 q 1168 -136 1168 -172 q 992 -22 1168 -22 l 367 -22 m 276 501 q 347 383 276 415 q 661 342 436 342 q 975 383 883 342 q 1046 501 1046 415 q 974 617 1046 586 q 661 656 886 656 q 349 617 432 656 q 276 501 276 583 m 326 897 l 660 1111 l 760 1111 l 1093 897 l 1093 875 l 968 875 l 714 1021 l 706 1021 l 451 875 l 326 875 l 326 897 z "},"Ğ":{"ha":1889,"x_min":111,"x_max":1764,"o":"m 1738 875 l 1710 763 q 985 847 1310 847 q 381 724 546 842 q 253 456 253 632 q 293 293 253 365 q 404 185 333 221 q 985 97 571 97 q 1625 181 1335 97 l 1625 406 l 686 406 l 686 514 l 1764 514 l 1764 99 q 985 -19 1393 -19 q 311 92 514 -19 q 165 237 218 143 q 111 456 111 331 q 294 814 111 690 q 572 922 392 881 q 985 964 751 964 q 1738 875 1389 964 m 694 1333 l 800 1333 q 842 1201 803 1240 q 986 1161 882 1161 q 1128 1200 1089 1161 q 1172 1333 1167 1239 l 1278 1333 q 1208 1136 1278 1200 q 986 1072 1138 1072 q 765 1136 835 1072 q 694 1333 694 1200 z "},"ğ":{"ha":1399,"x_min":97,"x_max":1301,"o":"m 661 233 q 286 288 411 233 q 219 161 219 213 q 251 103 219 121 q 367 86 283 86 l 961 86 q 1301 -128 1301 86 q 1289 -213 1301 -176 q 1237 -287 1276 -250 q 1131 -349 1197 -325 q 950 -387 1064 -372 q 681 -403 836 -403 q 319 -375 450 -403 q 142 -301 188 -347 q 97 -181 97 -256 q 189 3 97 -93 l 189 6 q 97 150 97 46 q 199 344 97 244 q 146 503 146 397 q 265 701 146 635 q 661 764 376 764 q 878 750 778 764 l 1274 750 l 1274 650 l 1181 650 l 1104 654 l 1103 650 q 1176 499 1176 608 q 1054 297 1176 360 q 661 233 931 233 m 367 -22 q 306 -19 342 -22 q 231 -164 231 -94 q 265 -237 231 -211 q 398 -279 299 -264 q 681 -294 497 -294 q 934 -283 833 -294 q 1084 -247 1035 -271 q 1151 -198 1133 -224 q 1168 -136 1168 -172 q 992 -22 1168 -22 l 367 -22 m 276 501 q 347 383 276 415 q 661 342 436 342 q 975 383 883 342 q 1046 501 1046 415 q 974 617 1046 586 q 661 656 886 656 q 349 617 432 656 q 276 501 276 583 m 410 1111 l 515 1111 q 558 978 518 1018 q 701 939 597 939 q 843 978 804 939 q 888 1111 882 1017 l 993 1111 q 923 914 993 978 q 701 850 853 850 q 480 914 550 850 q 410 1111 410 978 z "},"Ġ":{"ha":1889,"x_min":111,"x_max":1764,"o":"m 1738 875 l 1710 763 q 985 847 1310 847 q 381 724 546 842 q 253 456 253 632 q 293 293 253 365 q 404 185 333 221 q 985 97 571 97 q 1625 181 1335 97 l 1625 406 l 686 406 l 686 514 l 1764 514 l 1764 99 q 985 -19 1393 -19 q 311 92 514 -19 q 165 237 218 143 q 111 456 111 331 q 294 814 111 690 q 572 922 392 881 q 985 964 751 964 q 1738 875 1389 964 m 997 1118 q 958 1118 997 1118 q 918 1196 918 1118 q 997 1274 918 1274 q 1076 1196 1076 1274 q 997 1118 1076 1118 z "},"ġ":{"ha":1399,"x_min":97,"x_max":1301,"o":"m 661 233 q 286 288 411 233 q 219 161 219 213 q 251 103 219 121 q 367 86 283 86 l 961 86 q 1301 -128 1301 86 q 1289 -213 1301 -176 q 1237 -287 1276 -250 q 1131 -349 1197 -325 q 950 -387 1064 -372 q 681 -403 836 -403 q 319 -375 450 -403 q 142 -301 188 -347 q 97 -181 97 -256 q 189 3 97 -93 l 189 6 q 97 150 97 46 q 199 344 97 244 q 146 503 146 397 q 265 701 146 635 q 661 764 376 764 q 878 750 778 764 l 1274 750 l 1274 650 l 1181 650 l 1104 654 l 1103 650 q 1176 499 1176 608 q 1054 297 1176 360 q 661 233 931 233 m 367 -22 q 306 -19 342 -22 q 231 -164 231 -94 q 265 -237 231 -211 q 398 -279 299 -264 q 681 -294 497 -294 q 934 -283 833 -294 q 1084 -247 1035 -271 q 1151 -198 1133 -224 q 1168 -136 1168 -172 q 992 -22 1168 -22 l 367 -22 m 276 501 q 347 383 276 415 q 661 342 436 342 q 975 383 883 342 q 1046 501 1046 415 q 974 617 1046 586 q 661 656 886 656 q 349 617 432 656 q 276 501 276 583 m 699 908 q 659 908 699 908 q 619 986 619 908 q 699 1064 619 1064 q 778 986 778 1064 q 699 908 778 908 z "},"Ģ":{"ha":1889,"x_min":111,"x_max":1764,"o":"m 1738 875 l 1710 763 q 985 847 1310 847 q 381 724 546 842 q 253 456 253 632 q 293 293 253 365 q 404 185 333 221 q 985 97 571 97 q 1625 181 1335 97 l 1625 406 l 686 406 l 686 514 l 1764 514 l 1764 99 q 985 -19 1393 -19 q 311 92 514 -19 q 165 237 218 143 q 111 456 111 331 q 294 814 111 690 q 572 922 392 881 q 985 964 751 964 q 1738 875 1389 964 m 918 -161 q 997 -83 918 -83 q 1076 -161 1076 -83 q 1042 -299 1076 -211 l 1006 -392 l 933 -392 l 933 -381 l 969 -240 l 969 -236 q 918 -161 918 -225 z "},"ģ":{"ha":1399,"x_min":97,"x_max":1301,"o":"m 661 233 q 286 288 411 233 q 219 161 219 213 q 251 103 219 121 q 367 86 283 86 l 961 86 q 1301 -128 1301 86 q 1289 -213 1301 -176 q 1237 -287 1276 -250 q 1131 -349 1197 -325 q 950 -387 1064 -372 q 681 -403 836 -403 q 319 -375 450 -403 q 142 -301 188 -347 q 97 -181 97 -256 q 189 3 97 -93 l 189 6 q 97 150 97 46 q 199 344 97 244 q 146 503 146 397 q 265 701 146 635 q 661 764 376 764 q 878 750 778 764 l 1274 750 l 1274 650 l 1181 650 l 1104 654 l 1103 650 q 1176 499 1176 608 q 1054 297 1176 360 q 661 233 931 233 m 367 -22 q 306 -19 342 -22 q 231 -164 231 -94 q 265 -237 231 -211 q 398 -279 299 -264 q 681 -294 497 -294 q 934 -283 833 -294 q 1084 -247 1035 -271 q 1151 -198 1133 -224 q 1168 -136 1168 -172 q 992 -22 1168 -22 l 367 -22 m 276 501 q 347 383 276 415 q 661 342 436 342 q 975 383 883 342 q 1046 501 1046 415 q 974 617 1046 586 q 661 656 886 656 q 349 617 432 656 q 276 501 276 583 m 776 1011 q 697 933 776 933 q 618 1011 618 933 q 643 1150 618 1060 l 668 1242 l 742 1242 l 742 1231 l 725 1090 l 725 1086 q 776 1011 776 1075 z "},"Ĥ":{"ha":1849,"x_min":139,"x_max":1710,"o":"m 1710 944 l 1710 0 l 1571 0 l 1571 392 l 278 392 l 278 0 l 139 0 l 139 944 l 278 944 l 278 508 l 1571 508 l 1571 944 l 1710 944 m 540 1096 l 874 1310 l 974 1310 l 1307 1096 l 1307 1074 l 1182 1074 l 928 1219 l 919 1219 l 665 1074 l 540 1074 l 540 1096 z "},"ĥ":{"ha":1442,"x_min":-187,"x_max":1317,"o":"m 1317 0 l 1186 0 l 1186 389 q 1088 593 1186 531 q 765 656 990 656 q 256 561 497 656 l 256 0 l 125 0 l 125 1042 l 256 1042 l 256 675 q 258 674 257 674 q 765 764 519 764 q 1033 738 924 764 q 1203 662 1143 713 q 1290 547 1264 611 q 1317 394 1317 482 l 1317 0 m -187 1197 l 146 1411 l 246 1411 l 579 1197 l 579 1175 l 454 1175 l 200 1321 l 192 1321 l -62 1175 l -187 1175 l -187 1197 z "},"Ī":{"ha":597,"x_min":-1,"x_max":599,"o":"m 368 944 l 368 0 l 229 0 l 229 944 l 368 944 m 599 1131 l -1 1131 l -1 1225 l 599 1225 l 599 1131 z "},"ī":{"ha":458,"x_min":-71,"x_max":529,"o":"m 294 750 l 294 0 l 164 0 l 164 750 l 294 750 m 529 947 l -71 947 l -71 1042 l 529 1042 l 529 947 z "},"Į":{"ha":597,"x_min":92,"x_max":454,"o":"m 368 944 l 368 0 q 232 -97 267 -65 q 197 -158 197 -129 q 304 -210 197 -210 q 371 -207 335 -210 q 428 -201 407 -204 l 449 -199 l 454 -282 q 304 -299 396 -299 q 92 -169 92 -299 q 123 -86 92 -125 q 229 0 154 -47 l 229 944 l 368 944 z "},"į":{"ha":458,"x_min":21,"x_max":383,"o":"m 294 750 l 294 0 q 160 -97 194 -64 q 126 -158 126 -129 q 233 -210 126 -210 q 300 -207 264 -210 q 357 -201 336 -204 l 378 -199 l 383 -282 q 233 -299 325 -299 q 21 -169 21 -299 q 54 -87 21 -126 q 164 0 88 -47 l 164 750 l 294 750 m 229 910 q 190 910 229 910 q 150 988 150 910 q 229 1065 150 1065 q 308 988 308 1065 q 229 910 308 910 z "},"İ":{"ha":597,"x_min":219,"x_max":378,"o":"m 299 1118 q 259 1118 299 1118 q 219 1196 219 1118 q 299 1274 219 1274 q 378 1196 378 1274 q 299 1118 378 1118 m 368 944 l 368 0 l 229 0 l 229 944 l 368 944 z "},"ı":{"ha":458,"x_min":164,"x_max":294,"o":"m 294 750 l 294 0 l 164 0 l 164 750 l 294 750 z "},"Ĵ":{"ha":1554,"x_min":56,"x_max":1731,"o":"m 56 29 l 56 146 q 592 97 325 97 q 1126 181 949 97 q 1243 283 1210 219 q 1276 468 1276 347 l 1276 944 l 1415 944 l 1415 463 q 1372 225 1415 310 q 1219 83 1328 140 q 588 -19 1024 -19 q 56 29 282 -19 m 964 1106 l 1297 1319 l 1397 1319 l 1731 1106 l 1731 1083 l 1606 1083 l 1351 1229 l 1343 1229 l 1089 1083 l 964 1083 l 964 1106 z "},"ĵ":{"ha":458,"x_min":-265,"x_max":614,"o":"m -265 -342 q -262 -292 -264 -325 q -258 -242 -260 -258 q -100 -257 -179 -257 q 164 -44 164 -257 l 164 750 l 296 750 l 296 -61 q 201 -282 296 -203 q -75 -361 107 -361 q -265 -342 -181 -361 m -153 897 l 181 1111 l 281 1111 l 614 897 l 614 875 l 489 875 l 235 1021 l 226 1021 l -28 875 l -153 875 l -153 897 z "},"Ķ":{"ha":1849,"x_min":139,"x_max":1765,"o":"m 1724 944 l 1724 922 l 636 489 l 636 485 l 1765 22 l 1765 0 l 1518 0 l 469 431 l 278 431 l 278 0 l 139 0 l 139 944 l 278 944 l 278 539 l 468 539 l 1485 944 l 1724 944 m 668 -161 q 747 -83 668 -83 q 826 -161 826 -83 q 792 -299 826 -211 l 756 -392 l 683 -392 l 683 -381 l 719 -240 l 719 -236 q 668 -161 668 -225 z "},"ķ":{"ha":1496,"x_min":125,"x_max":1426,"o":"m 1413 736 l 581 400 l 581 397 l 1426 17 l 1426 0 l 1178 0 l 413 344 l 256 344 l 256 0 l 125 0 l 125 1042 l 256 1042 l 256 444 l 413 444 l 1164 750 l 1413 750 l 1413 736 m 594 -161 q 674 -83 594 -83 q 753 -161 753 -83 q 718 -299 753 -211 l 682 -392 l 610 -392 l 610 -381 l 646 -240 l 646 -236 q 594 -161 594 -225 z "},"Ĺ":{"ha":1529,"x_min":114,"x_max":1474,"o":"m 278 944 l 278 117 l 1474 117 l 1474 0 l 139 0 l 139 944 l 278 944 m 114 1104 l 503 1279 l 688 1279 l 688 1249 l 264 1085 l 114 1085 l 114 1104 z "},"ĺ":{"ha":458,"x_min":150,"x_max":606,"o":"m 150 1172 l 442 1347 l 606 1347 l 606 1317 l 279 1153 l 150 1153 l 150 1172 m 294 1042 l 294 0 l 164 0 l 164 1042 l 294 1042 z "},"Ļ":{"ha":1529,"x_min":139,"x_max":1474,"o":"m 278 944 l 278 117 l 1474 117 l 1474 0 l 139 0 l 139 944 l 278 944 m 733 -144 q 804 -75 733 -75 q 875 -144 875 -75 q 844 -269 875 -187 l 811 -353 l 747 -353 l 747 -343 l 779 -217 l 779 -212 q 733 -144 733 -203 z "},"ļ":{"ha":458,"x_min":149,"x_max":307,"o":"m 149 -161 q 228 -83 149 -83 q 307 -161 307 -83 q 272 -299 307 -211 l 236 -392 l 164 -392 l 164 -381 l 200 -240 l 200 -236 q 149 -161 149 -225 m 294 1042 l 294 0 l 164 0 l 164 1042 l 294 1042 z "},"Ľ":{"ha":1529,"x_min":139,"x_max":1474,"o":"m 278 944 l 278 117 l 1474 117 l 1474 0 l 139 0 l 139 944 l 278 944 m 374 907 q 438 969 374 969 q 500 907 500 969 q 481 796 500 869 l 460 724 l 401 724 l 401 732 l 415 844 l 415 847 q 374 907 374 857 z "},"ľ":{"ha":603,"x_min":164,"x_max":550,"o":"m 392 1010 q 471 1088 392 1088 q 550 1010 550 1088 q 525 871 550 961 l 500 779 l 426 779 l 426 790 l 443 931 l 443 935 q 392 1010 392 946 m 294 1042 l 294 0 l 164 0 l 164 1042 l 294 1042 z "},"Ŀ":{"ha":1529,"x_min":139,"x_max":1474,"o":"m 278 944 l 278 117 l 1474 117 l 1474 0 l 139 0 l 139 944 l 278 944 m 801 529 q 766 529 801 529 q 731 599 731 529 q 801 668 731 668 q 872 599 872 668 q 801 529 872 529 z "},"ŀ":{"ha":594,"x_min":164,"x_max":542,"o":"m 463 375 q 423 375 463 375 q 383 453 383 375 q 463 531 383 531 q 542 453 542 531 q 463 375 542 375 m 294 1042 l 294 0 l 164 0 l 164 1042 l 294 1042 z "},"Ł":{"ha":1529,"x_min":-28,"x_max":1474,"o":"m -28 363 l 139 424 l 139 944 l 278 944 l 278 475 l 828 678 l 842 678 l 842 588 l 278 379 l 278 117 l 1474 117 l 1474 0 l 139 0 l 139 328 l -14 272 l -28 272 l -28 363 z "},"ł":{"ha":575,"x_min":53,"x_max":522,"o":"m 353 1042 l 353 506 l 510 586 l 522 586 l 522 493 l 353 407 l 353 0 l 222 0 l 222 340 l 65 260 l 53 260 l 53 353 l 222 439 l 222 1042 l 353 1042 z "},"Ń":{"ha":1849,"x_min":139,"x_max":1710,"o":"m 1596 0 l 282 783 l 278 783 l 278 0 l 139 0 l 139 944 l 253 944 l 1567 161 l 1571 161 l 1571 944 l 1710 944 l 1710 0 l 1596 0 m 800 1106 l 1189 1281 l 1374 1281 l 1374 1250 l 950 1086 l 800 1086 l 800 1106 z "},"ń":{"ha":1442,"x_min":125,"x_max":1317,"o":"m 1317 0 l 1186 0 l 1186 389 q 1092 590 1186 525 q 765 656 999 656 q 478 622 625 656 q 256 550 331 589 l 256 0 l 125 0 l 125 750 l 228 750 q 235 700 231 732 q 242 653 240 668 l 246 653 q 765 764 510 764 q 1032 738 922 764 q 1203 662 1142 713 q 1290 547 1264 611 q 1317 394 1317 482 l 1317 0 m 429 894 l 818 1069 l 1003 1069 l 1003 1039 l 579 875 l 429 875 l 429 894 z "},"Ņ":{"ha":1849,"x_min":139,"x_max":1710,"o":"m 1596 0 l 282 783 l 278 783 l 278 0 l 139 0 l 139 944 l 253 944 l 1567 161 l 1571 161 l 1571 944 l 1710 944 l 1710 0 l 1596 0 m 851 -146 q 922 -75 851 -75 q 993 -146 993 -75 q 963 -269 993 -187 l 929 -353 l 865 -353 l 865 -343 l 897 -217 l 897 -212 q 851 -146 851 -203 z "},"ņ":{"ha":1442,"x_min":125,"x_max":1317,"o":"m 1317 0 l 1186 0 l 1186 389 q 1092 590 1186 525 q 765 656 999 656 q 478 622 625 656 q 256 550 331 589 l 256 0 l 125 0 l 125 750 l 228 750 q 235 700 231 732 q 242 653 240 668 l 246 653 q 765 764 510 764 q 1032 738 922 764 q 1203 662 1142 713 q 1290 547 1264 611 q 1317 394 1317 482 l 1317 0 m 632 -161 q 711 -83 632 -83 q 790 -161 790 -83 q 756 -299 790 -211 l 719 -392 l 647 -392 l 647 -381 l 683 -240 l 683 -236 q 632 -161 632 -225 z "},"Ň":{"ha":1849,"x_min":139,"x_max":1710,"o":"m 1315 1304 l 982 1090 l 882 1090 l 549 1304 l 549 1326 l 674 1326 l 928 1181 l 936 1181 l 1190 1326 l 1315 1326 l 1315 1304 m 1596 0 l 282 783 l 278 783 l 278 0 l 139 0 l 139 944 l 253 944 l 1567 161 l 1571 161 l 1571 944 l 1710 944 l 1710 0 l 1596 0 z "},"ň":{"ha":1442,"x_min":125,"x_max":1317,"o":"m 1133 1089 l 800 875 l 700 875 l 367 1089 l 367 1111 l 492 1111 l 746 965 l 754 965 l 1008 1111 l 1133 1111 l 1133 1089 m 1317 0 l 1186 0 l 1186 389 q 1092 590 1186 525 q 765 656 999 656 q 478 622 625 656 q 256 550 331 589 l 256 0 l 125 0 l 125 750 l 228 750 q 235 700 231 732 q 242 653 240 668 l 246 653 q 765 764 510 764 q 1032 738 922 764 q 1203 662 1142 713 q 1290 547 1264 611 q 1317 394 1317 482 l 1317 0 z "},"Ō":{"ha":1939,"x_min":111,"x_max":1828,"o":"m 1635 114 q 969 -19 1414 -19 q 304 114 525 -19 q 160 257 208 172 q 111 472 111 342 q 304 831 111 714 q 969 964 525 964 q 1635 831 1414 964 q 1828 472 1828 714 q 1779 257 1828 342 q 1635 114 1731 172 m 406 199 q 969 97 581 97 q 1533 199 1358 97 q 1686 472 1686 288 q 1536 744 1686 656 q 969 847 1361 847 q 403 744 578 847 q 253 472 253 656 q 406 199 253 288 m 1269 1131 l 669 1131 l 669 1225 l 1269 1225 l 1269 1131 z "},"ō":{"ha":1450,"x_min":97,"x_max":1353,"o":"m 1211 89 q 725 -14 1056 -14 q 239 89 394 -14 q 97 375 97 182 q 238 660 97 567 q 725 764 396 764 q 1213 660 1054 764 q 1353 375 1353 567 q 1211 89 1353 182 m 333 172 q 725 94 458 94 q 1117 172 992 94 q 1219 375 1219 235 q 1119 579 1219 518 q 725 656 997 656 q 331 579 453 656 q 231 375 231 518 q 333 172 231 235 m 1029 922 l 429 922 l 429 1017 l 1029 1017 l 1029 922 z "},"Ŏ":{"ha":1939,"x_min":111,"x_max":1828,"o":"m 1635 114 q 969 -19 1414 -19 q 304 114 525 -19 q 160 257 208 172 q 111 472 111 342 q 304 831 111 714 q 969 964 525 964 q 1635 831 1414 964 q 1828 472 1828 714 q 1779 257 1828 342 q 1635 114 1731 172 m 406 199 q 969 97 581 97 q 1533 199 1358 97 q 1686 472 1686 288 q 1536 744 1686 656 q 969 847 1361 847 q 403 744 578 847 q 253 472 253 656 q 406 199 253 288 m 675 1333 l 781 1333 q 823 1201 783 1240 q 967 1161 863 1161 q 1108 1200 1069 1161 q 1153 1333 1147 1239 l 1258 1333 q 1188 1136 1258 1200 q 967 1072 1118 1072 q 745 1136 815 1072 q 675 1333 675 1200 z "},"ŏ":{"ha":1450,"x_min":97,"x_max":1353,"o":"m 1211 89 q 725 -14 1056 -14 q 239 89 394 -14 q 97 375 97 182 q 238 660 97 567 q 725 764 396 764 q 1213 660 1054 764 q 1353 375 1353 567 q 1211 89 1353 182 m 333 172 q 725 94 458 94 q 1117 172 992 94 q 1219 375 1219 235 q 1119 579 1219 518 q 725 656 997 656 q 331 579 453 656 q 231 375 231 518 q 333 172 231 235 m 433 1111 l 539 1111 q 581 978 542 1018 q 725 939 621 939 q 867 978 828 939 q 911 1111 906 1017 l 1017 1111 q 947 914 1017 978 q 725 850 876 850 q 503 914 574 850 q 433 1111 433 978 z "},"Ő":{"ha":1939,"x_min":111,"x_max":1828,"o":"m 1635 114 q 969 -19 1414 -19 q 304 114 525 -19 q 160 257 208 172 q 111 472 111 342 q 304 831 111 714 q 969 964 525 964 q 1635 831 1414 964 q 1828 472 1828 714 q 1779 257 1828 342 q 1635 114 1731 172 m 406 199 q 969 97 581 97 q 1533 199 1358 97 q 1686 472 1686 288 q 1536 744 1686 656 q 969 847 1361 847 q 403 744 578 847 q 253 472 253 656 q 406 199 253 288 m 565 1106 l 860 1281 l 1031 1281 l 1031 1250 l 701 1086 l 565 1086 l 565 1106 m 1058 1106 l 1353 1281 l 1524 1281 l 1524 1250 l 1194 1086 l 1058 1086 l 1058 1106 z "},"ő":{"ha":1450,"x_min":97,"x_max":1353,"o":"m 1211 89 q 725 -14 1056 -14 q 239 89 394 -14 q 97 375 97 182 q 238 660 97 567 q 725 764 396 764 q 1213 660 1054 764 q 1353 375 1353 567 q 1211 89 1353 182 m 333 172 q 725 94 458 94 q 1117 172 992 94 q 1219 375 1219 235 q 1119 579 1219 518 q 725 656 997 656 q 331 579 453 656 q 231 375 231 518 q 333 172 231 235 m 358 894 l 653 1069 l 824 1069 l 824 1039 l 494 875 l 358 875 l 358 894 m 851 894 l 1146 1069 l 1317 1069 l 1317 1039 l 988 875 l 851 875 l 851 894 z "},"Œ":{"ha":3121,"x_min":111,"x_max":2996,"o":"m 1618 836 l 1617 831 q 1755 715 1699 789 q 1824 540 1811 642 l 2932 540 l 2932 432 l 1826 432 q 1621 115 1814 222 l 1622 110 q 1785 117 1700 117 l 2996 117 l 2996 0 l 1269 0 q 969 -19 1133 -19 q 304 114 525 -19 q 160 257 208 172 q 111 472 111 342 q 304 831 111 714 q 969 964 525 964 q 1268 944 1129 964 l 2988 944 l 2988 828 l 1785 828 l 1618 836 m 406 199 q 969 97 581 97 q 1533 199 1358 97 q 1686 472 1686 288 q 1536 744 1686 656 q 969 847 1361 847 q 403 744 578 847 q 253 472 253 656 q 406 199 253 288 z "},"œ":{"ha":2403,"x_min":97,"x_max":2306,"o":"m 2289 317 l 1294 317 l 1294 315 q 1381 157 1299 210 q 1781 89 1486 89 q 2275 160 2036 89 l 2286 54 q 1781 -19 2065 -19 q 1325 64 1479 -19 q 1226 153 1263 97 l 1224 153 q 1156 89 1199 118 q 697 -14 1010 -14 q 236 89 382 -14 q 97 375 97 183 q 235 660 97 565 q 697 764 385 764 q 1157 660 1004 764 q 1228 590 1200 631 l 1235 590 q 1311 664 1263 629 q 1744 764 1453 764 q 2135 708 1994 764 q 2306 471 2306 640 q 2289 317 2306 389 m 331 172 q 697 94 446 94 q 1064 172 949 94 q 1164 375 1164 236 q 1067 579 1164 517 q 697 656 951 656 q 328 579 443 656 q 231 375 231 517 q 331 172 231 236 m 1379 579 q 1294 417 1300 525 l 2171 417 q 2175 471 2175 442 q 2068 613 2175 572 q 1744 656 1958 656 q 1379 579 1489 656 z "},"Ŕ":{"ha":1776,"x_min":139,"x_max":1665,"o":"m 1642 628 q 1550 412 1642 486 q 1235 326 1458 338 l 1235 322 l 1322 261 l 1665 8 l 1665 0 l 1476 0 l 1036 325 l 278 325 l 278 0 l 139 0 l 139 944 l 1164 944 q 1533 867 1424 944 q 1642 628 1642 789 m 278 828 l 278 433 l 1153 433 q 1369 458 1292 433 q 1474 522 1447 482 q 1500 628 1500 561 q 1472 736 1500 694 q 1363 803 1444 778 q 1139 828 1282 828 l 278 828 m 599 1106 l 988 1281 l 1172 1281 l 1172 1250 l 749 1086 l 599 1086 l 599 1106 z "},"ŕ":{"ha":983,"x_min":125,"x_max":928,"o":"m 125 750 l 228 750 l 242 650 l 246 650 l 253 672 q 419 735 308 706 q 688 764 531 764 q 928 744 801 764 l 917 633 q 685 656 821 656 q 458 635 565 656 q 303 593 350 614 l 256 572 l 256 0 l 125 0 l 125 750 m 313 894 l 701 1069 l 886 1069 l 886 1039 l 463 875 l 313 875 l 313 894 z "},"Ŗ":{"ha":1776,"x_min":139,"x_max":1665,"o":"m 1642 628 q 1550 412 1642 486 q 1235 326 1458 338 l 1235 322 l 1322 261 l 1665 8 l 1665 0 l 1476 0 l 1036 325 l 278 325 l 278 0 l 139 0 l 139 944 l 1164 944 q 1533 867 1424 944 q 1642 628 1642 789 m 278 828 l 278 433 l 1153 433 q 1369 458 1292 433 q 1474 522 1447 482 q 1500 628 1500 561 q 1472 736 1500 694 q 1363 803 1444 778 q 1139 828 1282 828 l 278 828 m 704 -144 q 775 -75 704 -75 q 846 -144 846 -75 q 815 -269 846 -187 l 782 -353 l 718 -353 l 718 -343 l 750 -217 l 750 -212 q 704 -144 704 -203 z "},"ŗ":{"ha":983,"x_min":122,"x_max":928,"o":"m 125 750 l 228 750 l 242 650 l 246 650 l 253 672 q 419 735 308 706 q 688 764 531 764 q 928 744 801 764 l 917 633 q 685 656 821 656 q 458 635 565 656 q 303 593 350 614 l 256 572 l 256 0 l 125 0 l 125 750 m 122 -161 q 201 -83 122 -83 q 281 -161 281 -83 q 246 -299 281 -211 l 210 -392 l 138 -392 l 138 -381 l 174 -240 l 174 -236 q 122 -161 122 -225 z "},"Ř":{"ha":1776,"x_min":139,"x_max":1665,"o":"m 1642 628 q 1550 412 1642 486 q 1235 326 1458 338 l 1235 322 l 1322 261 l 1665 8 l 1665 0 l 1476 0 l 1036 325 l 278 325 l 278 0 l 139 0 l 139 944 l 1164 944 q 1533 867 1424 944 q 1642 628 1642 789 m 278 828 l 278 433 l 1153 433 q 1369 458 1292 433 q 1474 522 1447 482 q 1500 628 1500 561 q 1472 736 1500 694 q 1363 803 1444 778 q 1139 828 1282 828 l 278 828 m 1189 1304 l 856 1090 l 756 1090 l 422 1304 l 422 1326 l 547 1326 l 801 1181 l 810 1181 l 1064 1326 l 1189 1326 l 1189 1304 z "},"ř":{"ha":983,"x_min":96,"x_max":928,"o":"m 863 1089 l 529 875 l 429 875 l 96 1089 l 96 1111 l 221 1111 l 475 965 l 483 965 l 738 1111 l 863 1111 l 863 1089 m 125 750 l 228 750 l 242 650 l 246 650 l 253 672 q 419 735 308 706 q 688 764 531 764 q 928 744 801 764 l 917 633 q 685 656 821 656 q 458 635 565 656 q 303 593 350 614 l 256 572 l 256 0 l 125 0 l 125 750 z "},"Ś":{"ha":1842,"x_min":111,"x_max":1731,"o":"m 1465 411 q 939 432 1358 432 q 240 479 382 432 q 111 668 111 522 q 272 885 111 822 q 889 964 476 964 q 1301 943 1089 964 q 1639 896 1513 922 l 1619 789 q 889 856 1267 856 q 349 797 507 856 q 274 749 294 778 q 253 674 253 719 q 340 567 253 592 q 883 540 433 540 q 1549 504 1396 540 q 1731 289 1731 463 q 1698 152 1731 204 q 1596 65 1665 100 q 951 -19 1422 -19 q 485 3 704 -19 q 139 56 265 26 l 157 165 q 951 89 564 89 q 1497 150 1350 89 q 1589 289 1589 189 q 1562 367 1589 336 q 1465 411 1535 397 m 778 1106 l 1167 1281 l 1351 1281 l 1351 1250 l 928 1086 l 778 1086 l 778 1106 z "},"ś":{"ha":1311,"x_min":97,"x_max":1214,"o":"m 129 32 l 143 139 q 665 89 404 89 q 1003 122 914 89 q 1065 165 1046 139 q 1083 233 1083 190 q 1056 297 1083 275 q 964 325 1029 319 q 658 333 879 333 q 347 340 443 333 q 197 369 250 347 q 97 524 97 413 q 246 715 97 663 q 657 764 383 764 q 897 754 776 764 q 1078 733 1018 744 l 1139 724 l 1121 617 q 657 656 892 656 q 301 619 404 656 q 228 526 228 593 q 290 449 228 467 q 658 433 340 433 q 1054 415 971 433 q 1214 233 1214 381 q 1110 46 1214 101 q 923 -3 1049 13 q 665 -19 797 -19 q 129 32 353 -19 m 532 894 l 921 1069 l 1106 1069 l 1106 1039 l 682 875 l 532 875 l 532 894 z "},"Ŝ":{"ha":1842,"x_min":111,"x_max":1731,"o":"m 1465 411 q 939 432 1358 432 q 240 479 382 432 q 111 668 111 522 q 272 885 111 822 q 889 964 476 964 q 1301 943 1089 964 q 1639 896 1513 922 l 1619 789 q 889 856 1267 856 q 349 797 507 856 q 274 749 294 778 q 253 674 253 719 q 340 567 253 592 q 883 540 433 540 q 1549 504 1396 540 q 1731 289 1731 463 q 1698 152 1731 204 q 1596 65 1665 100 q 951 -19 1422 -19 q 485 3 704 -19 q 139 56 265 26 l 157 165 q 951 89 564 89 q 1497 150 1350 89 q 1589 289 1589 189 q 1562 367 1589 336 q 1465 411 1535 397 m 514 1106 l 847 1319 l 947 1319 l 1281 1106 l 1281 1083 l 1156 1083 l 901 1229 l 893 1229 l 639 1083 l 514 1083 l 514 1106 z "},"ŝ":{"ha":1311,"x_min":97,"x_max":1214,"o":"m 129 32 l 143 139 q 665 89 404 89 q 1003 122 914 89 q 1065 165 1046 139 q 1083 233 1083 190 q 1056 297 1083 275 q 964 325 1029 319 q 658 333 879 333 q 347 340 443 333 q 197 369 250 347 q 97 524 97 413 q 246 715 97 663 q 657 764 383 764 q 897 754 776 764 q 1078 733 1018 744 l 1139 724 l 1121 617 q 657 656 892 656 q 301 619 404 656 q 228 526 228 593 q 290 449 228 467 q 658 433 340 433 q 1054 415 971 433 q 1214 233 1214 381 q 1110 46 1214 101 q 923 -3 1049 13 q 665 -19 797 -19 q 129 32 353 -19 m 267 897 l 600 1111 l 700 1111 l 1033 897 l 1033 875 l 908 875 l 654 1021 l 646 1021 l 392 875 l 267 875 l 267 897 z "},"Ş":{"ha":1842,"x_min":111,"x_max":1731,"o":"m 657 -335 l 660 -244 q 975 -267 813 -267 q 1126 -260 1075 -267 q 1193 -243 1178 -254 q 1208 -211 1208 -232 q 1140 -175 1208 -175 l 814 -175 l 789 -151 l 838 -18 q 139 56 400 -8 l 157 165 q 951 89 564 89 q 1497 150 1350 89 q 1589 289 1589 189 q 1562 367 1589 336 q 1465 411 1535 397 q 939 432 1358 432 q 240 479 382 432 q 111 668 111 522 q 272 885 111 822 q 889 964 476 964 q 1301 943 1089 964 q 1639 896 1513 922 l 1619 789 q 889 856 1267 856 q 349 797 507 856 q 274 749 294 778 q 253 674 253 719 q 340 567 253 592 q 883 540 433 540 q 1549 504 1396 540 q 1731 289 1731 463 q 1698 152 1731 204 q 1596 65 1665 100 q 951 -19 1422 -19 l 949 -19 l 932 -82 l 933 -85 q 1096 -81 1001 -81 q 1265 -114 1217 -81 q 1314 -211 1314 -147 q 1239 -324 1314 -287 q 975 -361 1164 -361 q 828 -354 907 -361 q 703 -342 749 -347 l 657 -335 z "},"ş":{"ha":1311,"x_min":97,"x_max":1214,"o":"m 376 -335 l 379 -244 q 694 -267 532 -267 q 846 -260 794 -267 q 913 -243 897 -254 q 928 -211 928 -232 q 860 -175 928 -175 l 533 -175 l 508 -151 l 557 -17 q 129 32 301 -8 l 143 139 q 665 89 404 89 q 1003 122 914 89 q 1065 165 1046 139 q 1083 233 1083 190 q 1056 297 1083 275 q 964 325 1029 319 q 658 333 879 333 q 347 340 443 333 q 197 369 250 347 q 97 524 97 413 q 246 715 97 663 q 657 764 383 764 q 897 754 776 764 q 1078 733 1018 744 l 1139 724 l 1121 617 q 657 656 892 656 q 301 619 404 656 q 228 526 228 593 q 290 449 228 467 q 658 433 340 433 q 1054 415 971 433 q 1214 233 1214 381 q 1110 46 1214 101 q 924 -3 1049 13 q 668 -19 799 -19 l 651 -82 l 653 -85 q 815 -81 721 -81 q 985 -114 936 -81 q 1033 -211 1033 -147 q 958 -324 1033 -287 q 694 -361 883 -361 q 547 -354 626 -361 q 422 -342 468 -347 l 376 -335 z "},"Š":{"ha":1842,"x_min":111,"x_max":1731,"o":"m 1465 411 q 939 432 1358 432 q 240 479 382 432 q 111 668 111 522 q 272 885 111 822 q 889 964 476 964 q 1301 943 1089 964 q 1639 896 1513 922 l 1619 789 q 889 856 1267 856 q 349 797 507 856 q 274 749 294 778 q 253 674 253 719 q 340 567 253 592 q 883 540 433 540 q 1549 504 1396 540 q 1731 289 1731 463 q 1698 152 1731 204 q 1596 65 1665 100 q 951 -19 1422 -19 q 485 3 704 -19 q 139 56 265 26 l 157 165 q 951 89 564 89 q 1497 150 1350 89 q 1589 289 1589 189 q 1562 367 1589 336 q 1465 411 1535 397 m 1267 1304 l 933 1090 l 833 1090 l 500 1304 l 500 1326 l 625 1326 l 879 1181 l 888 1181 l 1142 1326 l 1267 1326 l 1267 1304 z "},"š":{"ha":1311,"x_min":97,"x_max":1214,"o":"m 129 32 l 143 139 q 665 89 404 89 q 1003 122 914 89 q 1065 165 1046 139 q 1083 233 1083 190 q 1056 297 1083 275 q 964 325 1029 319 q 658 333 879 333 q 347 340 443 333 q 197 369 250 347 q 97 524 97 413 q 246 715 97 663 q 657 764 383 764 q 897 754 776 764 q 1078 733 1018 744 l 1139 724 l 1121 617 q 657 656 892 656 q 301 619 404 656 q 228 526 228 593 q 290 449 228 467 q 658 433 340 433 q 1054 415 971 433 q 1214 233 1214 381 q 1110 46 1214 101 q 923 -3 1049 13 q 665 -19 797 -19 q 129 32 353 -19 m 1033 1089 l 700 875 l 600 875 l 267 1089 l 267 1111 l 392 1111 l 646 965 l 654 965 l 908 1111 l 1033 1111 l 1033 1089 z "},"Ţ":{"ha":1664,"x_min":56,"x_max":1608,"o":"m 763 828 l 56 828 l 56 944 l 1608 944 l 1608 828 l 901 828 l 901 0 l 763 0 l 763 828 m 761 -146 q 832 -75 761 -75 q 903 -146 903 -75 q 872 -269 903 -187 l 839 -353 l 775 -353 l 775 -343 l 807 -217 l 807 -212 q 761 -146 761 -203 z "},"Ț":{"ha":1664,"x_min":56,"x_max":1608,"o":"m 763 828 l 56 828 l 56 944 l 1608 944 l 1608 828 l 901 828 l 901 0 l 763 0 l 763 828 m 761 -146 q 832 -75 761 -75 q 903 -146 903 -75 q 872 -269 903 -187 l 839 -353 l 775 -353 l 775 -343 l 807 -217 l 807 -212 q 761 -146 761 -203 z "},"ţ":{"ha":1225,"x_min":28,"x_max":1142,"o":"m 172 928 l 265 944 l 303 944 l 303 750 l 1132 750 l 1132 642 l 303 642 l 303 331 q 311 245 303 279 q 344 180 319 211 q 417 132 369 149 q 542 105 464 115 q 733 94 619 94 q 1128 143 946 94 l 1142 36 q 733 -14 960 -14 q 494 1 594 -14 q 331 44 393 17 q 234 115 269 71 q 185 209 199 160 q 172 326 172 258 l 172 642 l 28 642 l 28 750 l 172 750 l 172 928 m 638 -161 q 717 -83 638 -83 q 796 -161 796 -83 q 761 -299 796 -211 l 725 -392 l 653 -392 l 653 -381 l 689 -240 l 689 -236 q 638 -161 638 -225 z "},"ț":{"ha":1225,"x_min":28,"x_max":1142,"o":"m 172 928 l 265 944 l 303 944 l 303 750 l 1132 750 l 1132 642 l 303 642 l 303 331 q 311 245 303 279 q 344 180 319 211 q 417 132 369 149 q 542 105 464 115 q 733 94 619 94 q 1128 143 946 94 l 1142 36 q 733 -14 960 -14 q 494 1 594 -14 q 331 44 393 17 q 234 115 269 71 q 185 209 199 160 q 172 326 172 258 l 172 642 l 28 642 l 28 750 l 172 750 l 172 928 m 638 -161 q 717 -83 638 -83 q 796 -161 796 -83 q 761 -299 796 -211 l 725 -392 l 653 -392 l 653 -381 l 689 -240 l 689 -236 q 638 -161 638 -225 z "},"Ť":{"ha":1664,"x_min":56,"x_max":1608,"o":"m 1214 1304 l 881 1090 l 781 1090 l 447 1304 l 447 1326 l 572 1326 l 826 1181 l 835 1181 l 1089 1326 l 1214 1326 l 1214 1304 m 763 828 l 56 828 l 56 944 l 1608 944 l 1608 828 l 901 828 l 901 0 l 763 0 l 763 828 z "},"ť":{"ha":1225,"x_min":28,"x_max":1142,"o":"m 172 928 l 265 944 l 303 944 l 303 750 l 1132 750 l 1132 642 l 303 642 l 303 331 q 311 245 303 279 q 344 180 319 211 q 417 132 369 149 q 542 105 464 115 q 733 94 619 94 q 1128 143 946 94 l 1142 36 q 733 -14 960 -14 q 494 1 594 -14 q 331 44 393 17 q 234 115 269 71 q 185 209 199 160 q 172 326 172 258 l 172 642 l 28 642 l 28 750 l 172 750 l 172 928 m 338 1169 q 417 1247 338 1247 q 496 1169 496 1247 q 471 1031 496 1121 l 446 939 l 372 939 l 372 950 l 389 1090 l 389 1094 q 338 1169 338 1106 z "},"Ũ":{"ha":1850,"x_min":139,"x_max":1711,"o":"m 1178 1307 l 1283 1307 l 1283 1221 q 1114 1069 1283 1069 q 976 1106 1047 1069 q 842 1177 904 1142 q 740 1213 781 1213 q 674 1153 674 1213 l 674 1069 l 568 1069 l 568 1156 q 738 1307 568 1307 q 839 1285 785 1307 q 935 1235 893 1263 q 1025 1186 976 1208 q 1111 1164 1074 1164 q 1178 1224 1178 1164 l 1178 1307 m 139 944 l 278 944 l 278 394 q 451 178 278 260 q 925 97 625 97 q 1398 178 1224 97 q 1572 394 1572 260 l 1572 944 l 1711 944 l 1711 383 q 1510 96 1711 211 q 925 -19 1308 -19 q 340 96 540 -19 q 139 383 139 211 l 139 944 z "},"ũ":{"ha":1442,"x_min":125,"x_max":1317,"o":"m 972 1096 l 1078 1096 l 1078 1010 q 908 858 1078 858 q 770 894 842 858 q 637 966 699 931 q 535 1001 575 1001 q 468 942 468 1001 l 468 858 l 363 858 l 363 944 q 532 1096 363 1096 q 633 1074 579 1096 q 729 1024 688 1051 q 819 975 771 997 q 906 953 868 953 q 972 1013 972 953 l 972 1096 m 125 750 l 256 750 l 256 361 q 275 249 256 296 q 340 167 294 203 q 467 113 386 131 q 665 94 549 94 q 965 133 828 94 q 1186 214 1103 171 l 1186 750 l 1317 750 l 1317 0 l 1213 0 l 1200 100 l 1196 100 q 665 -14 961 -14 q 249 80 374 -14 q 125 356 125 174 l 125 750 z "},"Ū":{"ha":1850,"x_min":139,"x_max":1711,"o":"m 139 944 l 278 944 l 278 394 q 451 178 278 260 q 925 97 625 97 q 1398 178 1224 97 q 1572 394 1572 260 l 1572 944 l 1711 944 l 1711 383 q 1510 96 1711 211 q 925 -19 1308 -19 q 340 96 540 -19 q 139 383 139 211 l 139 944 m 1224 1131 l 624 1131 l 624 1225 l 1224 1225 l 1224 1131 z "},"ū":{"ha":1442,"x_min":125,"x_max":1317,"o":"m 125 750 l 256 750 l 256 361 q 275 249 256 296 q 340 167 294 203 q 467 113 386 131 q 665 94 549 94 q 965 133 828 94 q 1186 214 1103 171 l 1186 750 l 1317 750 l 1317 0 l 1213 0 l 1200 100 l 1196 100 q 665 -14 961 -14 q 249 80 374 -14 q 125 356 125 174 l 125 750 m 1022 924 l 422 924 l 422 1018 l 1022 1018 l 1022 924 z "},"Ŭ":{"ha":1850,"x_min":139,"x_max":1711,"o":"m 139 944 l 278 944 l 278 394 q 451 178 278 260 q 925 97 625 97 q 1398 178 1224 97 q 1572 394 1572 260 l 1572 944 l 1711 944 l 1711 383 q 1510 96 1711 211 q 925 -19 1308 -19 q 340 96 540 -19 q 139 383 139 211 l 139 944 m 633 1333 l 739 1333 q 781 1201 742 1240 q 925 1161 821 1161 q 1067 1200 1028 1161 q 1111 1333 1106 1239 l 1217 1333 q 1147 1136 1217 1200 q 925 1072 1076 1072 q 703 1136 774 1072 q 633 1333 633 1200 z "},"ŭ":{"ha":1442,"x_min":125,"x_max":1317,"o":"m 125 750 l 256 750 l 256 361 q 275 249 256 296 q 340 167 294 203 q 467 113 386 131 q 665 94 549 94 q 965 133 828 94 q 1186 214 1103 171 l 1186 750 l 1317 750 l 1317 0 l 1213 0 l 1200 100 l 1196 100 q 665 -14 961 -14 q 249 80 374 -14 q 125 356 125 174 l 125 750 m 435 1111 l 540 1111 q 583 978 543 1018 q 726 939 622 939 q 868 978 829 939 q 913 1111 907 1017 l 1018 1111 q 948 914 1018 978 q 726 850 878 850 q 505 914 575 850 q 435 1111 435 978 z "},"Ů":{"ha":1850,"x_min":139,"x_max":1711,"o":"m 631 1203 q 701 1335 631 1286 q 922 1383 772 1383 q 1142 1335 1071 1383 q 1214 1203 1214 1286 q 1143 1069 1214 1118 q 922 1019 1072 1019 q 701 1069 772 1019 q 631 1203 631 1118 m 736 1203 q 922 1108 736 1108 q 1108 1203 1108 1108 q 922 1294 1108 1294 q 736 1203 736 1294 m 139 944 l 278 944 l 278 394 q 451 178 278 260 q 925 97 625 97 q 1398 178 1224 97 q 1572 394 1572 260 l 1572 944 l 1711 944 l 1711 383 q 1510 96 1711 211 q 925 -19 1308 -19 q 340 96 540 -19 q 139 383 139 211 l 139 944 z "},"ů":{"ha":1442,"x_min":125,"x_max":1317,"o":"m 125 750 l 256 750 l 256 361 q 275 249 256 296 q 340 167 294 203 q 467 113 386 131 q 665 94 549 94 q 965 133 828 94 q 1186 214 1103 171 l 1186 750 l 1317 750 l 1317 0 l 1213 0 l 1200 100 l 1196 100 q 665 -14 961 -14 q 249 80 374 -14 q 125 356 125 174 l 125 750 m 431 1036 q 501 1168 431 1119 q 722 1217 572 1217 q 942 1168 871 1217 q 1014 1036 1014 1119 q 943 902 1014 951 q 722 853 872 853 q 501 902 572 853 q 431 1036 431 951 m 536 1036 q 722 942 536 942 q 908 1036 908 942 q 722 1128 908 1128 q 536 1036 536 1128 z "},"Ű":{"ha":1850,"x_min":139,"x_max":1711,"o":"m 139 944 l 278 944 l 278 394 q 451 178 278 260 q 925 97 625 97 q 1398 178 1224 97 q 1572 394 1572 260 l 1572 944 l 1711 944 l 1711 383 q 1510 96 1711 211 q 925 -19 1308 -19 q 340 96 540 -19 q 139 383 139 211 l 139 944 m 585 1106 l 879 1281 l 1050 1281 l 1050 1250 l 721 1086 l 585 1086 l 585 1106 m 1078 1106 l 1372 1281 l 1543 1281 l 1543 1250 l 1214 1086 l 1078 1086 l 1078 1106 z "},"ű":{"ha":1442,"x_min":125,"x_max":1317,"o":"m 125 750 l 256 750 l 256 361 q 275 249 256 296 q 340 167 294 203 q 467 113 386 131 q 665 94 549 94 q 965 133 828 94 q 1186 214 1103 171 l 1186 750 l 1317 750 l 1317 0 l 1213 0 l 1200 100 l 1196 100 q 665 -14 961 -14 q 249 80 374 -14 q 125 356 125 174 l 125 750 m 336 894 l 631 1069 l 801 1069 l 801 1039 l 472 875 l 336 875 l 336 894 m 829 894 l 1124 1069 l 1294 1069 l 1294 1039 l 965 875 l 829 875 l 829 894 z "},"Ų":{"ha":1850,"x_min":139,"x_max":1711,"o":"m 139 944 l 278 944 l 278 394 q 451 178 278 260 q 925 97 625 97 q 1398 178 1224 97 q 1572 394 1572 260 l 1572 944 l 1711 944 l 1711 383 q 1581 142 1711 247 q 1200 0 1451 38 q 1065 -97 1100 -65 q 1031 -158 1031 -129 q 1138 -210 1031 -210 q 1204 -207 1168 -210 q 1261 -201 1240 -204 l 1282 -199 l 1288 -282 q 1138 -299 1229 -299 q 925 -169 925 -299 q 1033 -19 925 -94 l 1033 -17 q 925 -19 994 -19 q 340 96 540 -19 q 139 383 139 211 l 139 944 z "},"ų":{"ha":1442,"x_min":125,"x_max":1403,"o":"m 125 750 l 256 750 l 256 361 q 275 249 256 296 q 340 167 294 203 q 467 113 386 131 q 665 94 549 94 q 965 133 828 94 q 1186 214 1103 171 l 1186 750 l 1317 750 l 1317 0 q 1181 -97 1215 -65 q 1146 -158 1146 -129 q 1253 -210 1146 -210 q 1319 -207 1283 -210 q 1376 -201 1356 -204 l 1397 -199 l 1403 -282 q 1253 -299 1344 -299 q 1040 -169 1040 -299 q 1073 -87 1040 -126 q 1182 0 1106 -47 l 1210 17 l 1200 100 l 1196 100 q 665 -14 961 -14 q 249 80 374 -14 q 125 356 125 174 l 125 750 z "},"Ŵ":{"ha":2792,"x_min":56,"x_max":2736,"o":"m 1397 585 l 1394 585 l 893 -4 l 872 -4 l 56 933 l 56 944 l 231 944 l 888 190 l 890 190 l 1386 772 l 1404 772 l 1901 190 l 1904 190 l 2561 944 l 2736 944 l 2736 933 l 1919 -4 l 1899 -4 l 1397 585 m 1017 1106 l 1350 1319 l 1450 1319 l 1783 1106 l 1783 1083 l 1658 1083 l 1404 1229 l 1396 1229 l 1142 1083 l 1017 1083 l 1017 1106 z "},"ŵ":{"ha":1958,"x_min":42,"x_max":1917,"o":"m 1774 750 l 1917 750 l 1917 733 l 1386 0 l 1333 0 l 979 483 l 625 0 l 572 0 l 42 733 l 42 750 l 185 750 l 604 169 l 961 657 l 997 657 l 1353 169 l 1774 750 m 600 897 l 933 1111 l 1033 1111 l 1367 897 l 1367 875 l 1242 875 l 988 1021 l 979 1021 l 725 875 l 600 875 l 600 897 z "},"Ŷ":{"ha":1747,"x_min":56,"x_max":1692,"o":"m 56 944 l 254 944 l 872 451 l 875 451 l 1493 944 l 1692 944 l 1692 935 l 943 339 l 943 0 l 804 0 l 804 339 l 56 935 l 56 944 m 490 1106 l 824 1319 l 924 1319 l 1257 1106 l 1257 1083 l 1132 1083 l 878 1229 l 869 1229 l 615 1083 l 490 1083 l 490 1106 z "},"ŷ":{"ha":1529,"x_min":42,"x_max":1488,"o":"m 314 -239 l 707 146 l 707 149 l 42 739 l 42 750 l 214 750 l 794 236 l 799 236 l 1324 750 l 1488 750 l 1488 739 l 478 -250 l 314 -250 l 314 -239 m 403 897 l 736 1111 l 836 1111 l 1169 897 l 1169 875 l 1044 875 l 790 1021 l 782 1021 l 528 875 l 403 875 l 403 897 z "},"Ÿ":{"ha":1747,"x_min":56,"x_max":1692,"o":"m 56 944 l 254 944 l 872 451 l 875 451 l 1493 944 l 1692 944 l 1692 935 l 943 339 l 943 0 l 804 0 l 804 339 l 56 935 l 56 944 m 693 1118 q 653 1118 693 1118 q 614 1196 614 1118 q 693 1274 614 1274 q 772 1196 772 1274 q 693 1118 772 1118 m 1060 1118 q 1020 1118 1060 1118 q 981 1196 981 1118 q 1060 1274 981 1274 q 1139 1196 1139 1274 q 1060 1118 1139 1118 z "},"Ź":{"ha":1801,"x_min":83,"x_max":1718,"o":"m 83 0 l 83 56 l 1215 726 q 1300 772 1247 744 q 1390 817 1353 799 l 1428 833 l 1428 839 q 1181 832 1286 832 l 115 832 l 115 944 l 1718 944 l 1718 888 l 588 218 q 506 175 561 201 q 410 131 451 149 l 368 111 l 369 106 q 611 117 513 117 l 1718 117 l 1718 0 l 83 0 m 761 1106 l 1150 1281 l 1335 1281 l 1335 1250 l 911 1086 l 761 1086 l 761 1106 z "},"ź":{"ha":1253,"x_min":69,"x_max":1183,"o":"m 97 642 l 97 750 l 1183 750 l 1183 697 l 436 176 q 386 147 415 163 q 339 122 357 131 l 319 113 l 319 108 l 1183 108 l 1183 0 l 69 0 l 69 53 l 814 572 l 931 638 l 931 642 l 97 642 m 493 894 l 882 1069 l 1067 1069 l 1067 1039 l 643 875 l 493 875 l 493 894 z "},"Ż":{"ha":1801,"x_min":83,"x_max":1718,"o":"m 83 0 l 83 56 l 1215 726 q 1300 772 1247 744 q 1390 817 1353 799 l 1428 833 l 1428 839 q 1181 832 1286 832 l 115 832 l 115 944 l 1718 944 l 1718 888 l 588 218 q 506 175 561 201 q 410 131 451 149 l 368 111 l 369 106 q 611 117 513 117 l 1718 117 l 1718 0 l 83 0 m 901 1118 q 862 1118 901 1118 q 822 1196 822 1118 q 901 1274 822 1274 q 981 1196 981 1274 q 901 1118 981 1118 z "},"ż":{"ha":1253,"x_min":69,"x_max":1183,"o":"m 97 642 l 97 750 l 1183 750 l 1183 697 l 436 176 q 386 147 415 163 q 339 122 357 131 l 319 113 l 319 108 l 1183 108 l 1183 0 l 69 0 l 69 53 l 814 572 l 931 638 l 931 642 l 97 642 m 649 910 q 609 910 649 910 q 569 988 569 910 q 649 1065 569 1065 q 728 988 728 1065 q 649 910 728 910 z "},"Ž":{"ha":1801,"x_min":83,"x_max":1718,"o":"m 83 0 l 83 56 l 1215 726 q 1300 772 1247 744 q 1390 817 1353 799 l 1428 833 l 1428 839 q 1181 832 1286 832 l 115 832 l 115 944 l 1718 944 l 1718 888 l 588 218 q 506 175 561 201 q 410 131 451 149 l 368 111 l 369 106 q 611 117 513 117 l 1718 117 l 1718 0 l 83 0 m 1282 1304 l 949 1090 l 849 1090 l 515 1304 l 515 1326 l 640 1326 l 894 1181 l 903 1181 l 1157 1326 l 1282 1326 l 1282 1304 z "},"ž":{"ha":1253,"x_min":69,"x_max":1183,"o":"m 1021 1089 l 688 875 l 588 875 l 254 1089 l 254 1111 l 379 1111 l 633 965 l 642 965 l 896 1111 l 1021 1111 l 1021 1089 m 97 642 l 97 750 l 1183 750 l 1183 697 l 436 176 q 386 147 415 163 q 339 122 357 131 l 319 113 l 319 108 l 1183 108 l 1183 0 l 69 0 l 69 53 l 814 572 l 931 638 l 931 642 l 97 642 z "},"ƒ":{"ha":1667,"x_min":29,"x_max":1607,"o":"m 1607 919 l 1589 814 q 1207 850 1376 850 q 965 825 1054 850 q 835 753 876 800 q 774 622 794 706 l 753 539 l 1536 539 l 1536 431 l 725 431 l 611 -29 q 477 -294 563 -226 q 193 -361 392 -361 q 117 -357 158 -361 q 53 -347 76 -353 l 29 -343 l 44 -237 q 193 -253 124 -253 q 388 -211 333 -253 q 476 -29 442 -169 l 590 431 l 186 431 l 186 539 l 618 539 l 639 622 q 726 811 669 742 q 899 919 782 881 q 1207 958 1015 958 q 1607 919 1417 958 z "},"Ǽ":{"ha":2740,"x_min":56,"x_max":2615,"o":"m 2615 0 l 1222 0 l 1222 211 l 475 211 l 240 0 l 56 0 l 56 10 l 1097 944 l 2607 944 l 2607 828 l 1361 828 l 1361 540 l 2551 540 l 2551 432 l 1361 432 l 1361 117 l 2615 117 l 2615 0 m 996 678 l 596 319 l 1222 319 l 1222 828 l 1160 828 l 996 678 m 1576 1106 l 1965 1281 l 2150 1281 l 2150 1250 l 1726 1086 l 1576 1086 l 1576 1106 z "},"ǽ":{"ha":2306,"x_min":97,"x_max":2208,"o":"m 2193 331 l 1194 331 l 1194 329 q 1283 157 1199 211 q 1683 89 1389 89 q 2178 157 1947 89 l 2189 51 q 1683 -19 1976 -19 q 1221 64 1375 -19 q 1161 107 1188 81 l 1151 107 q 1094 85 1140 101 q 526 -19 806 -19 q 199 35 297 -19 q 97 210 97 90 q 200 382 97 325 q 564 431 288 431 l 1067 431 l 1067 469 q 590 656 1067 656 q 178 613 407 656 l 160 718 q 592 764 389 764 q 1146 613 1017 764 q 1203 664 1168 639 q 1647 764 1344 764 q 2043 708 1903 764 q 2208 471 2208 643 q 2193 331 2208 431 m 1085 189 q 1091 191 1086 189 q 1099 194 1096 193 q 1068 331 1072 254 l 564 331 q 267 289 325 331 q 228 210 228 260 q 271 128 228 153 q 529 89 338 89 q 1085 189 826 89 m 1282 583 q 1197 431 1203 532 l 2074 431 q 2078 482 2078 454 q 1974 615 2078 574 q 1647 656 1872 656 q 1282 583 1393 656 m 1083 894 l 1472 1069 l 1657 1069 l 1657 1039 l 1233 875 l 1083 875 l 1083 894 z "},"Ǿ":{"ha":1939,"x_min":111,"x_max":1828,"o":"m 969 -19 q 468 43 671 -19 l 315 -69 l 176 -69 l 176 -56 l 363 82 l 363 83 q 304 114 333 97 q 160 256 208 171 q 111 472 111 342 q 304 831 111 714 q 969 964 525 964 q 1469 900 1260 964 l 1624 1014 l 1763 1014 l 1763 1000 l 1578 864 l 1578 861 q 1635 831 1613 844 q 1828 472 1828 711 q 1779 257 1828 342 q 1635 114 1731 172 q 969 -19 1414 -19 m 406 199 q 476 165 426 185 l 1347 810 l 1347 813 q 969 847 1186 847 q 403 744 578 847 q 253 472 253 656 q 406 199 253 288 m 969 97 q 1533 199 1358 97 q 1686 472 1686 288 q 1536 744 1686 656 q 1463 779 1503 764 l 593 136 l 593 132 q 969 97 754 97 m 850 1106 l 1239 1281 l 1424 1281 l 1424 1250 l 1000 1086 l 850 1086 l 850 1106 z "},"ǿ":{"ha":1450,"x_min":97,"x_max":1353,"o":"m 725 -14 q 403 21 538 -14 l 303 -69 l 188 -69 l 188 -54 l 306 53 l 306 54 q 239 89 271 68 q 97 375 97 182 q 238 660 97 567 q 725 764 396 764 q 1047 728 910 764 l 1149 819 l 1264 819 l 1264 803 l 1146 696 l 1146 694 q 1213 660 1178 682 q 1353 375 1353 567 q 1211 89 1353 182 q 725 -14 1056 -14 m 333 172 q 401 140 357 156 l 947 636 l 947 638 q 725 656 853 656 q 331 579 453 656 q 231 375 231 518 q 333 172 231 235 m 725 94 q 1117 172 992 94 q 1219 375 1219 235 q 1119 579 1219 518 q 1051 610 1089 597 l 506 115 l 506 114 q 725 94 606 94 m 593 894 l 982 1069 l 1167 1069 l 1167 1039 l 743 875 l 593 875 l 593 894 z "},"Ȁ":{"ha":1914,"x_min":56,"x_max":1858,"o":"m 1692 0 l 1497 211 l 415 211 l 222 0 l 56 0 l 56 10 l 911 944 l 1003 944 l 1858 10 l 1858 0 l 1692 0 m 785 613 l 515 319 l 1399 319 l 1129 613 q 958 806 1008 743 l 956 806 l 785 613 m 988 1281 l 1282 1106 l 1282 1086 l 1146 1086 l 817 1250 l 817 1281 l 988 1281 m 494 1281 l 789 1106 l 789 1086 l 653 1086 l 324 1250 l 324 1281 l 494 1281 z "},"ȁ":{"ha":1350,"x_min":92,"x_max":1225,"o":"m 1225 0 l 1122 0 l 1108 83 l 1106 83 q 526 -19 811 -19 q 199 35 297 -19 q 97 210 97 90 q 200 382 97 325 q 564 439 303 439 q 790 432 658 439 q 1006 417 922 425 l 1090 410 l 1094 410 l 1094 469 q 592 656 1094 656 q 178 613 407 656 l 160 718 q 592 764 389 764 q 1060 688 894 764 q 1225 474 1225 611 l 1225 0 m 529 89 q 1094 183 818 89 l 1094 314 q 564 339 813 339 q 267 289 335 339 q 228 210 228 260 q 271 128 228 153 q 529 89 338 89 m 756 1069 l 1050 894 l 1050 875 l 914 875 l 585 1039 l 585 1069 l 756 1069 m 263 1069 l 557 894 l 557 875 l 421 875 l 92 1039 l 92 1069 l 263 1069 z "},"Ȃ":{"ha":1914,"x_min":56,"x_max":1858,"o":"m 1692 0 l 1497 211 l 415 211 l 222 0 l 56 0 l 56 10 l 911 944 l 1003 944 l 1858 10 l 1858 0 l 1692 0 m 785 613 l 515 319 l 1399 319 l 1129 613 q 958 806 1008 743 l 956 806 l 785 613 m 1249 1086 l 1143 1086 q 1101 1219 1140 1179 q 957 1258 1061 1258 q 815 1219 854 1258 q 771 1086 776 1181 l 665 1086 q 735 1283 665 1219 q 957 1347 806 1347 q 1178 1283 1108 1347 q 1249 1086 1249 1219 z "},"ȃ":{"ha":1350,"x_min":97,"x_max":1225,"o":"m 1225 0 l 1122 0 l 1108 83 l 1106 83 q 526 -19 811 -19 q 199 35 297 -19 q 97 210 97 90 q 200 382 97 325 q 564 439 303 439 q 790 432 658 439 q 1006 417 922 425 l 1090 410 l 1094 410 l 1094 469 q 592 656 1094 656 q 178 613 407 656 l 160 718 q 592 764 389 764 q 1060 688 894 764 q 1225 474 1225 611 l 1225 0 m 529 89 q 1094 183 818 89 l 1094 314 q 564 339 813 339 q 267 289 335 339 q 228 210 228 260 q 271 128 228 153 q 529 89 338 89 m 961 864 l 856 864 q 813 997 853 957 q 669 1036 774 1036 q 528 997 567 1036 q 483 864 489 958 l 378 864 q 448 1061 378 997 q 669 1125 518 1125 q 891 1061 821 1125 q 961 864 961 997 z "},"Ȅ":{"ha":1740,"x_min":139,"x_max":1615,"o":"m 1551 432 l 278 432 l 278 117 l 1615 117 l 1615 0 l 139 0 l 139 944 l 1607 944 l 1607 828 l 278 828 l 278 540 l 1551 540 l 1551 432 m 1025 1279 l 1319 1104 l 1319 1085 l 1183 1085 l 854 1249 l 854 1279 l 1025 1279 m 532 1279 l 826 1104 l 826 1085 l 690 1085 l 361 1249 l 361 1279 l 532 1279 z "},"ȅ":{"ha":1364,"x_min":97,"x_max":1267,"o":"m 1250 317 l 228 317 l 228 315 q 319 157 232 211 q 729 89 426 89 q 1235 160 992 89 l 1247 54 q 729 -19 1018 -19 q 256 64 411 -19 q 97 371 97 147 q 236 664 97 569 q 692 764 382 764 q 1097 708 960 764 q 1267 471 1267 640 q 1250 317 1267 389 m 315 579 q 228 417 233 524 l 1132 417 q 1136 471 1136 442 q 1029 613 1136 567 q 692 656 926 656 q 315 579 428 656 m 763 1069 l 1057 894 l 1057 875 l 921 875 l 592 1039 l 592 1069 l 763 1069 m 269 1069 l 564 894 l 564 875 l 428 875 l 99 1039 l 99 1069 l 269 1069 z "},"Ȇ":{"ha":1740,"x_min":139,"x_max":1615,"o":"m 1551 432 l 278 432 l 278 117 l 1615 117 l 1615 0 l 139 0 l 139 944 l 1607 944 l 1607 828 l 278 828 l 278 540 l 1551 540 l 1551 432 m 1225 1065 l 1119 1065 q 1077 1198 1117 1158 q 933 1238 1038 1238 q 792 1199 831 1238 q 747 1065 753 1160 l 642 1065 q 712 1263 642 1199 q 933 1326 782 1326 q 1155 1263 1085 1326 q 1225 1065 1225 1199 z "},"ȇ":{"ha":1364,"x_min":97,"x_max":1267,"o":"m 1250 317 l 228 317 l 228 315 q 319 157 232 211 q 729 89 426 89 q 1235 160 992 89 l 1247 54 q 729 -19 1018 -19 q 256 64 411 -19 q 97 371 97 147 q 236 664 97 569 q 692 764 382 764 q 1097 708 960 764 q 1267 471 1267 640 q 1250 317 1267 389 m 315 579 q 228 417 233 524 l 1132 417 q 1136 471 1136 442 q 1029 613 1136 567 q 692 656 926 656 q 315 579 428 656 m 989 864 l 883 864 q 841 997 881 957 q 697 1036 801 1036 q 556 997 594 1036 q 511 864 517 958 l 406 864 q 476 1061 406 997 q 697 1125 546 1125 q 919 1061 849 1125 q 989 864 989 997 z "},"Ȉ":{"ha":597,"x_min":-186,"x_max":563,"o":"m 332 1281 l 563 1106 l 563 1086 l 442 1086 l 168 1250 l 168 1281 l 332 1281 m -22 1281 l 208 1106 l 208 1086 l 88 1086 l -186 1250 l -186 1281 l -22 1281 m 368 944 l 368 0 l 229 0 l 229 944 l 368 944 z "},"ȉ":{"ha":458,"x_min":-260,"x_max":489,"o":"m 258 1069 l 489 894 l 489 875 l 368 875 l 94 1039 l 94 1069 l 258 1069 m -96 1069 l 135 894 l 135 875 l 14 875 l -260 1039 l -260 1069 l -96 1069 m 294 750 l 294 0 l 164 0 l 164 750 l 294 750 z "},"Ȋ":{"ha":597,"x_min":7,"x_max":590,"o":"m 590 1086 l 485 1086 q 442 1219 482 1179 q 299 1258 403 1258 q 157 1219 196 1258 q 113 1086 118 1181 l 7 1086 q 77 1283 7 1219 q 299 1347 147 1347 q 520 1283 450 1347 q 590 1086 590 1219 m 368 944 l 368 0 l 229 0 l 229 944 l 368 944 z "},"ȋ":{"ha":458,"x_min":-62,"x_max":521,"o":"m 521 864 l 415 864 q 373 997 413 957 q 229 1036 333 1036 q 88 997 126 1036 q 43 864 49 958 l -62 864 q 8 1061 -62 997 q 229 1125 78 1125 q 451 1061 381 1125 q 521 864 521 997 m 294 750 l 294 0 l 164 0 l 164 750 l 294 750 z "},"Ȍ":{"ha":1939,"x_min":111,"x_max":1828,"o":"m 1635 114 q 969 -19 1414 -19 q 304 114 525 -19 q 160 257 208 172 q 111 472 111 342 q 304 831 111 714 q 969 964 525 964 q 1635 831 1414 964 q 1828 472 1828 714 q 1779 257 1828 342 q 1635 114 1731 172 m 406 199 q 969 97 581 97 q 1533 199 1358 97 q 1686 472 1686 288 q 1536 744 1686 656 q 969 847 1361 847 q 403 744 578 847 q 253 472 253 656 q 406 199 253 288 m 1057 1281 l 1351 1106 l 1351 1086 l 1215 1086 l 886 1250 l 886 1281 l 1057 1281 m 564 1281 l 858 1106 l 858 1086 l 722 1086 l 393 1250 l 393 1281 l 564 1281 z "},"ȍ":{"ha":1450,"x_min":97,"x_max":1353,"o":"m 1211 89 q 725 -14 1056 -14 q 239 89 394 -14 q 97 375 97 182 q 238 660 97 567 q 725 764 396 764 q 1213 660 1054 764 q 1353 375 1353 567 q 1211 89 1353 182 m 333 172 q 725 94 458 94 q 1117 172 992 94 q 1219 375 1219 235 q 1119 579 1219 518 q 725 656 997 656 q 331 579 453 656 q 231 375 231 518 q 333 172 231 235 m 807 1069 l 1101 894 l 1101 875 l 965 875 l 636 1039 l 636 1069 l 807 1069 m 314 1069 l 608 894 l 608 875 l 472 875 l 143 1039 l 143 1069 l 314 1069 z "},"Ȏ":{"ha":1939,"x_min":111,"x_max":1828,"o":"m 1635 114 q 969 -19 1414 -19 q 304 114 525 -19 q 160 257 208 172 q 111 472 111 342 q 304 831 111 714 q 969 964 525 964 q 1635 831 1414 964 q 1828 472 1828 714 q 1779 257 1828 342 q 1635 114 1731 172 m 406 199 q 969 97 581 97 q 1533 199 1358 97 q 1686 472 1686 288 q 1536 744 1686 656 q 969 847 1361 847 q 403 744 578 847 q 253 472 253 656 q 406 199 253 288 m 1258 1086 l 1153 1086 q 1110 1219 1150 1179 q 967 1258 1071 1258 q 825 1219 864 1258 q 781 1086 786 1181 l 675 1086 q 745 1283 675 1219 q 967 1347 815 1347 q 1188 1283 1118 1347 q 1258 1086 1258 1219 z "},"ȏ":{"ha":1450,"x_min":97,"x_max":1353,"o":"m 1211 89 q 725 -14 1056 -14 q 239 89 394 -14 q 97 375 97 182 q 238 660 97 567 q 725 764 396 764 q 1213 660 1054 764 q 1353 375 1353 567 q 1211 89 1353 182 m 333 172 q 725 94 458 94 q 1117 172 992 94 q 1219 375 1219 235 q 1119 579 1219 518 q 725 656 997 656 q 331 579 453 656 q 231 375 231 518 q 333 172 231 235 m 1021 864 l 915 864 q 873 997 913 957 q 729 1036 833 1036 q 588 997 626 1036 q 543 864 549 958 l 438 864 q 508 1061 438 997 q 729 1125 578 1125 q 951 1061 881 1125 q 1021 864 1021 997 z "},"Ȑ":{"ha":1776,"x_min":139,"x_max":1665,"o":"m 1642 628 q 1550 412 1642 486 q 1235 326 1458 338 l 1235 322 l 1322 261 l 1665 8 l 1665 0 l 1476 0 l 1036 325 l 278 325 l 278 0 l 139 0 l 139 944 l 1164 944 q 1533 867 1424 944 q 1642 628 1642 789 m 278 828 l 278 433 l 1153 433 q 1369 458 1292 433 q 1474 522 1447 482 q 1500 628 1500 561 q 1472 736 1500 694 q 1363 803 1444 778 q 1139 828 1282 828 l 278 828 m 864 1281 l 1158 1106 l 1158 1086 l 1022 1086 l 693 1250 l 693 1281 l 864 1281 m 371 1281 l 665 1106 l 665 1086 l 529 1086 l 200 1250 l 200 1281 l 371 1281 z "},"ȑ":{"ha":983,"x_min":-61,"x_max":928,"o":"m 125 750 l 228 750 l 242 650 l 246 650 l 253 672 q 419 735 308 706 q 688 764 531 764 q 928 744 801 764 l 917 633 q 685 656 821 656 q 458 635 565 656 q 303 593 350 614 l 256 572 l 256 0 l 125 0 l 125 750 m 603 1069 l 897 894 l 897 875 l 761 875 l 432 1039 l 432 1069 l 603 1069 m 110 1069 l 404 894 l 404 875 l 268 875 l -61 1039 l -61 1069 l 110 1069 z "},"Ȓ":{"ha":1776,"x_min":139,"x_max":1665,"o":"m 1642 628 q 1550 412 1642 486 q 1235 326 1458 338 l 1235 322 l 1322 261 l 1665 8 l 1665 0 l 1476 0 l 1036 325 l 278 325 l 278 0 l 139 0 l 139 944 l 1164 944 q 1533 867 1424 944 q 1642 628 1642 789 m 278 828 l 278 433 l 1153 433 q 1369 458 1292 433 q 1474 522 1447 482 q 1500 628 1500 561 q 1472 736 1500 694 q 1363 803 1444 778 q 1139 828 1282 828 l 278 828 m 1096 1086 l 990 1086 q 948 1219 988 1179 q 804 1258 908 1258 q 663 1219 701 1258 q 618 1086 624 1181 l 513 1086 q 583 1283 513 1219 q 804 1347 653 1347 q 1026 1283 956 1347 q 1096 1086 1096 1219 z "},"ȓ":{"ha":983,"x_min":125,"x_max":928,"o":"m 125 750 l 228 750 l 242 650 l 246 650 l 253 672 q 419 735 308 706 q 688 764 531 764 q 928 744 801 764 l 917 633 q 685 656 821 656 q 458 635 565 656 q 303 593 350 614 l 256 572 l 256 0 l 125 0 l 125 750 m 779 864 l 674 864 q 631 997 671 957 q 488 1036 592 1036 q 346 997 385 1036 q 301 864 307 958 l 196 864 q 266 1061 196 997 q 488 1125 336 1125 q 709 1061 639 1125 q 779 864 779 997 z "},"Ȕ":{"ha":1850,"x_min":139,"x_max":1711,"o":"m 139 944 l 278 944 l 278 394 q 451 178 278 260 q 925 97 625 97 q 1398 178 1224 97 q 1572 394 1572 260 l 1572 944 l 1711 944 l 1711 383 q 1510 96 1711 211 q 925 -19 1308 -19 q 340 96 540 -19 q 139 383 139 211 l 139 944 m 1007 1281 l 1301 1106 l 1301 1086 l 1165 1086 l 836 1250 l 836 1281 l 1007 1281 m 514 1281 l 808 1106 l 808 1086 l 672 1086 l 343 1250 l 343 1281 l 514 1281 z "},"ȕ":{"ha":1442,"x_min":125,"x_max":1317,"o":"m 125 750 l 256 750 l 256 361 q 275 249 256 296 q 340 167 294 203 q 467 113 386 131 q 665 94 549 94 q 965 133 828 94 q 1186 214 1103 171 l 1186 750 l 1317 750 l 1317 0 l 1213 0 l 1200 100 l 1196 100 q 665 -14 961 -14 q 249 80 374 -14 q 125 356 125 174 l 125 750 m 813 1069 l 1107 894 l 1107 875 l 971 875 l 642 1039 l 642 1069 l 813 1069 m 319 1069 l 614 894 l 614 875 l 478 875 l 149 1039 l 149 1069 l 319 1069 z "},"Ȗ":{"ha":1850,"x_min":139,"x_max":1711,"o":"m 139 944 l 278 944 l 278 394 q 451 178 278 260 q 925 97 625 97 q 1398 178 1224 97 q 1572 394 1572 260 l 1572 944 l 1711 944 l 1711 383 q 1510 96 1711 211 q 925 -19 1308 -19 q 340 96 540 -19 q 139 383 139 211 l 139 944 m 1214 1069 l 1108 1069 q 1066 1202 1106 1163 q 922 1242 1026 1242 q 781 1203 819 1242 q 736 1069 742 1164 l 631 1069 q 701 1267 631 1203 q 922 1331 771 1331 q 1144 1267 1074 1331 q 1214 1069 1214 1203 z "},"ȗ":{"ha":1442,"x_min":125,"x_max":1317,"o":"m 125 750 l 256 750 l 256 361 q 275 249 256 296 q 340 167 294 203 q 467 113 386 131 q 665 94 549 94 q 965 133 828 94 q 1186 214 1103 171 l 1186 750 l 1317 750 l 1317 0 l 1213 0 l 1200 100 l 1196 100 q 665 -14 961 -14 q 249 80 374 -14 q 125 356 125 174 l 125 750 m 1019 864 l 914 864 q 872 997 911 957 q 728 1036 832 1036 q 586 997 625 1036 q 542 864 547 958 l 436 864 q 506 1061 436 997 q 728 1125 576 1125 q 949 1061 879 1125 q 1019 864 1019 997 z "},"Ș":{"ha":1842,"x_min":111,"x_max":1731,"o":"m 1465 411 q 939 432 1358 432 q 240 479 382 432 q 111 668 111 522 q 272 885 111 822 q 889 964 476 964 q 1301 943 1089 964 q 1639 896 1513 922 l 1619 789 q 889 856 1267 856 q 349 797 507 856 q 274 749 294 778 q 253 674 253 719 q 340 567 253 592 q 883 540 433 540 q 1549 504 1396 540 q 1731 289 1731 463 q 1698 152 1731 204 q 1596 65 1665 100 q 951 -19 1422 -19 q 485 3 704 -19 q 139 56 265 26 l 157 165 q 951 89 564 89 q 1497 150 1350 89 q 1589 289 1589 189 q 1562 367 1589 336 q 1465 411 1535 397 m 829 -146 q 900 -75 829 -75 q 971 -146 971 -75 q 940 -269 971 -187 l 907 -353 l 843 -353 l 843 -343 l 875 -217 l 875 -212 q 829 -146 829 -203 z "},"ș":{"ha":1311,"x_min":97,"x_max":1214,"o":"m 129 32 l 143 139 q 665 89 404 89 q 1003 122 914 89 q 1065 165 1046 139 q 1083 233 1083 190 q 1056 297 1083 275 q 964 325 1029 319 q 658 333 879 333 q 347 340 443 333 q 197 369 250 347 q 97 524 97 413 q 246 715 97 663 q 657 764 383 764 q 897 754 776 764 q 1078 733 1018 744 l 1139 724 l 1121 617 q 657 656 892 656 q 301 619 404 656 q 228 526 228 593 q 290 449 228 467 q 658 433 340 433 q 1054 415 971 433 q 1214 233 1214 381 q 1110 46 1214 101 q 923 -3 1049 13 q 665 -19 797 -19 q 129 32 353 -19 m 585 -161 q 664 -83 585 -83 q 743 -161 743 -83 q 708 -299 743 -211 l 672 -392 l 600 -392 l 600 -381 l 636 -240 l 636 -236 q 585 -161 585 -225 z "},"ˆ":{"ha":1111,"x_min":172,"x_max":939,"o":"m 172 897 l 506 1111 l 606 1111 l 939 897 l 939 875 l 814 875 l 560 1021 l 551 1021 l 297 875 l 172 875 l 172 897 z "},"ˇ":{"ha":1111,"x_min":172,"x_max":939,"o":"m 939 1089 l 606 875 l 506 875 l 172 1089 l 172 1111 l 297 1111 l 551 965 l 560 965 l 814 1111 l 939 1111 l 939 1089 z "},"˘":{"ha":833,"x_min":125,"x_max":708,"o":"m 125 1111 l 231 1111 q 273 978 233 1018 q 417 939 313 939 q 558 978 519 939 q 603 1111 597 1017 l 708 1111 q 638 914 708 978 q 417 850 568 850 q 195 914 265 850 q 125 1111 125 978 z "},"˙":{"ha":567,"x_min":204,"x_max":363,"o":"m 283 910 q 244 910 283 910 q 204 988 204 910 q 283 1065 204 1065 q 363 988 363 1065 q 283 910 363 910 z "},"˚":{"ha":833,"x_min":125,"x_max":708,"o":"m 125 1036 q 196 1168 125 1119 q 417 1217 267 1217 q 637 1168 565 1217 q 708 1036 708 1119 q 638 902 708 951 q 417 853 567 853 q 196 902 267 853 q 125 1036 125 951 m 231 1036 q 417 942 231 942 q 603 1036 603 942 q 417 1128 603 1128 q 231 1036 231 1128 z "},"˛":{"ha":556,"x_min":101,"x_max":464,"o":"m 239 0 l 378 0 q 242 -97 276 -65 q 207 -158 207 -129 q 314 -210 207 -210 q 381 -207 344 -210 q 438 -201 417 -204 l 458 -199 l 464 -282 q 314 -299 406 -299 q 101 -169 101 -299 q 133 -86 101 -125 q 239 0 164 -47 z "},"˜":{"ha":833,"x_min":60,"x_max":775,"o":"m 669 1099 l 775 1099 l 775 1013 q 606 861 775 861 q 467 897 539 861 q 334 969 396 933 q 232 1004 272 1004 q 165 944 165 1004 l 165 861 l 60 861 l 60 947 q 229 1099 60 1099 q 331 1076 276 1099 q 426 1027 385 1054 q 517 978 468 1000 q 603 956 565 956 q 669 1015 669 956 l 669 1099 z "},"˝":{"ha":1389,"x_min":325,"x_max":1283,"o":"m 325 894 l 619 1069 l 790 1069 l 790 1039 l 461 875 l 325 875 l 325 894 m 818 894 l 1113 1069 l 1283 1069 l 1283 1039 l 954 875 l 818 875 l 818 894 z "},"̑":{"ha":833,"x_min":125,"x_max":708,"o":"m 708 864 l 603 864 q 560 997 600 957 q 417 1036 521 1036 q 275 997 314 1036 q 231 864 236 958 l 125 864 q 195 1061 125 997 q 417 1125 265 1125 q 638 1061 568 1125 q 708 864 708 997 z "},"π":{"ha":1639,"x_min":67,"x_max":1572,"o":"m 67 642 l 67 750 l 1572 750 l 1572 642 l 1247 642 l 1247 249 q 1278 132 1247 169 q 1394 94 1308 94 q 1463 99 1428 94 q 1515 107 1497 103 l 1533 111 l 1547 7 q 1394 -14 1482 -14 q 1178 54 1240 -14 q 1117 249 1117 122 l 1117 642 l 489 642 l 489 0 l 358 0 l 358 642 l 67 642 z "},"Ẁ":{"ha":2792,"x_min":56,"x_max":2736,"o":"m 1397 585 l 1394 585 l 893 -4 l 872 -4 l 56 933 l 56 944 l 231 944 l 888 190 l 890 190 l 1386 772 l 1404 772 l 1901 190 l 1904 190 l 2561 944 l 2736 944 l 2736 933 l 1919 -4 l 1899 -4 l 1397 585 m 1156 1281 l 1511 1106 l 1511 1086 l 1371 1086 l 982 1250 l 982 1281 l 1156 1281 z "},"ẁ":{"ha":1958,"x_min":42,"x_max":1917,"o":"m 1774 750 l 1917 750 l 1917 733 l 1386 0 l 1333 0 l 979 483 l 625 0 l 572 0 l 42 733 l 42 750 l 185 750 l 604 169 l 961 657 l 997 657 l 1353 169 l 1774 750 m 743 1069 l 1099 894 l 1099 875 l 958 875 l 569 1039 l 569 1069 l 743 1069 z "},"Ẃ":{"ha":2792,"x_min":56,"x_max":2736,"o":"m 1397 585 l 1394 585 l 893 -4 l 872 -4 l 56 933 l 56 944 l 231 944 l 888 190 l 890 190 l 1386 772 l 1404 772 l 1901 190 l 1904 190 l 2561 944 l 2736 944 l 2736 933 l 1919 -4 l 1899 -4 l 1397 585 m 1256 1106 l 1644 1281 l 1829 1281 l 1829 1250 l 1406 1086 l 1256 1086 l 1256 1106 z "},"ẃ":{"ha":1958,"x_min":42,"x_max":1917,"o":"m 1774 750 l 1917 750 l 1917 733 l 1386 0 l 1333 0 l 979 483 l 625 0 l 572 0 l 42 733 l 42 750 l 185 750 l 604 169 l 961 657 l 997 657 l 1353 169 l 1774 750 m 853 894 l 1242 1069 l 1426 1069 l 1426 1039 l 1003 875 l 853 875 l 853 894 z "},"Ẅ":{"ha":2792,"x_min":56,"x_max":2736,"o":"m 1397 585 l 1394 585 l 893 -4 l 872 -4 l 56 933 l 56 944 l 231 944 l 888 190 l 890 190 l 1386 772 l 1404 772 l 1901 190 l 1904 190 l 2561 944 l 2736 944 l 2736 933 l 1919 -4 l 1899 -4 l 1397 585 m 1218 1118 q 1178 1118 1218 1118 q 1139 1196 1139 1118 q 1218 1274 1139 1274 q 1297 1196 1297 1274 q 1218 1118 1297 1118 m 1585 1118 q 1545 1118 1585 1118 q 1506 1196 1506 1118 q 1585 1274 1506 1274 q 1664 1196 1664 1274 q 1585 1118 1664 1118 z "},"ẅ":{"ha":1958,"x_min":42,"x_max":1917,"o":"m 1774 750 l 1917 750 l 1917 733 l 1386 0 l 1333 0 l 979 483 l 625 0 l 572 0 l 42 733 l 42 750 l 185 750 l 604 169 l 961 657 l 997 657 l 1353 169 l 1774 750 m 800 900 q 760 900 800 900 q 721 978 721 900 q 800 1056 721 1056 q 879 978 879 1056 q 800 900 879 900 m 1167 900 q 1127 900 1167 900 q 1088 978 1088 900 q 1167 1056 1088 1056 q 1246 978 1246 1056 q 1167 900 1246 900 z "},"Ỳ":{"ha":1747,"x_min":56,"x_max":1692,"o":"m 56 944 l 254 944 l 872 451 l 875 451 l 1493 944 l 1692 944 l 1692 935 l 943 339 l 943 0 l 804 0 l 804 339 l 56 935 l 56 944 m 664 1281 l 1019 1106 l 1019 1086 l 879 1086 l 490 1250 l 490 1281 l 664 1281 z "},"ỳ":{"ha":1529,"x_min":42,"x_max":1488,"o":"m 314 -239 l 707 146 l 707 149 l 42 739 l 42 750 l 214 750 l 794 236 l 799 236 l 1324 750 l 1488 750 l 1488 739 l 478 -250 l 314 -250 l 314 -239 m 567 1069 l 922 894 l 922 875 l 782 875 l 393 1039 l 393 1069 l 567 1069 z "},"–":{"ha":1250,"x_min":89,"x_max":1161,"o":"m 1161 369 l 89 369 l 89 464 l 1161 464 l 1161 369 z "},"—":{"ha":1667,"x_min":89,"x_max":1578,"o":"m 1578 369 l 89 369 l 89 464 l 1578 464 l 1578 369 z "},"‘":{"ha":325,"x_min":83,"x_max":242,"o":"m 242 769 q 163 692 242 692 q 83 769 83 692 q 108 908 83 818 l 133 1000 l 207 1000 l 207 989 l 190 849 l 190 844 q 242 769 242 833 z "},"’":{"ha":325,"x_min":83,"x_max":242,"o":"m 83 922 q 163 1000 83 1000 q 242 922 242 1000 q 217 783 242 874 l 192 692 l 118 692 l 118 703 l 135 843 l 135 847 q 83 922 83 858 z "},"‚":{"ha":325,"x_min":83,"x_max":242,"o":"m 83 64 q 163 142 83 142 q 242 64 242 142 q 217 -75 242 15 l 192 -167 l 118 -167 l 118 -156 l 135 -15 l 135 -11 q 83 64 83 0 z "},"“":{"ha":629,"x_min":83,"x_max":546,"o":"m 546 769 q 467 692 546 692 q 388 769 388 692 q 413 908 388 818 l 438 1000 l 511 1000 l 511 989 l 494 849 l 494 844 q 546 769 546 833 m 242 769 q 163 692 242 692 q 83 769 83 692 q 108 908 83 818 l 133 1000 l 207 1000 l 207 989 l 190 849 l 190 844 q 242 769 242 833 z "},"”":{"ha":629,"x_min":83,"x_max":546,"o":"m 83 922 q 163 1000 83 1000 q 242 922 242 1000 q 217 783 242 874 l 192 692 l 118 692 l 118 703 l 135 843 l 135 847 q 83 922 83 858 m 388 922 q 467 1000 388 1000 q 546 922 546 1000 q 521 783 546 874 l 496 692 l 422 692 l 422 703 l 439 843 l 439 847 q 388 922 388 858 z "},"„":{"ha":629,"x_min":83,"x_max":546,"o":"m 83 64 q 163 142 83 142 q 242 64 242 142 q 217 -75 242 15 l 192 -167 l 118 -167 l 118 -156 l 135 -15 l 135 -11 q 83 64 83 0 m 388 64 q 467 142 388 142 q 546 64 546 142 q 521 -75 546 15 l 496 -167 l 422 -167 l 422 -156 l 439 -15 l 439 -11 q 388 64 388 0 z "},"†":{"ha":833,"x_min":28,"x_max":806,"o":"m 806 651 l 806 557 l 658 557 l 469 568 l 469 326 l 460 -139 l 374 -139 l 364 326 l 364 568 l 174 557 l 28 557 l 28 651 l 174 651 l 364 640 l 364 958 l 469 958 l 469 640 l 658 651 l 806 651 z "},"‡":{"ha":833,"x_min":28,"x_max":806,"o":"m 28 139 l 28 233 l 175 233 l 364 222 l 364 597 l 174 586 l 28 586 l 28 681 l 174 681 l 364 672 l 364 958 l 469 958 l 469 669 l 658 681 l 806 681 l 806 586 l 658 586 l 469 597 l 469 222 l 660 233 l 806 233 l 806 139 l 660 139 l 469 150 l 469 -139 l 364 -139 l 364 150 l 175 139 l 28 139 z "},"•":{"ha":833,"x_min":294,"x_max":539,"o":"m 417 264 q 356 264 417 264 q 294 375 294 264 q 417 486 294 486 q 539 375 539 486 q 417 264 539 264 z "},"…":{"ha":1667,"x_min":199,"x_max":1468,"o":"m 278 -14 q 238 -14 278 -14 q 199 64 199 -14 q 278 142 199 142 q 357 64 357 142 q 278 -14 357 -14 m 833 -14 q 794 -14 833 -14 q 754 64 754 -14 q 833 142 754 142 q 913 64 913 142 q 833 -14 913 -14 m 1389 -14 q 1349 -14 1389 -14 q 1310 64 1310 -14 q 1389 142 1310 142 q 1468 64 1468 142 q 1389 -14 1468 -14 z "},"‰":{"ha":2413,"x_min":51,"x_max":2361,"o":"m 372 463 q 212 463 372 463 q 51 711 51 463 q 372 960 51 960 q 693 711 693 960 q 372 463 693 463 m 201 838 q 174 818 201 838 q 146 711 146 799 q 201 585 146 624 q 372 546 257 546 q 543 585 488 546 q 599 711 599 624 q 543 838 599 799 q 372 876 488 876 q 201 838 257 876 m 251 -14 l 1301 972 l 1417 972 l 1417 958 l 367 -28 l 251 -28 l 251 -14 m 1296 -14 q 1135 -14 1296 -14 q 975 235 975 -14 q 1296 483 975 483 q 1617 235 1617 483 q 1296 -14 1617 -14 m 1125 361 q 1097 342 1125 361 q 1069 235 1069 322 q 1125 108 1069 147 q 1296 69 1181 69 q 1467 108 1411 69 q 1522 235 1522 147 q 1467 361 1522 322 q 1296 400 1411 400 q 1125 361 1181 400 m 2040 -14 q 1880 -14 2040 -14 q 1719 235 1719 -14 q 2040 483 1719 483 q 2361 235 2361 483 q 2040 -14 2361 -14 m 1869 361 q 1842 342 1869 361 q 1814 235 1814 322 q 1869 108 1814 147 q 2040 69 1925 69 q 2211 108 2156 69 q 2267 235 2267 147 q 2211 361 2267 322 q 2040 400 2156 400 q 1869 361 1925 400 z "},"‹":{"ha":678,"x_min":97,"x_max":622,"o":"m 97 350 l 97 400 l 496 722 l 622 722 l 622 701 l 261 376 l 261 372 l 622 47 l 622 28 l 496 28 l 97 350 z "},"›":{"ha":678,"x_min":56,"x_max":581,"o":"m 581 400 l 581 350 l 182 28 l 56 28 l 56 47 l 417 372 l 417 376 l 56 701 l 56 722 l 182 722 l 581 400 z "},"⁄":{"ha":1165,"x_min":0,"x_max":1165,"o":"m 0 -14 l 1050 972 l 1165 972 l 1165 958 l 115 -28 l 0 -28 l 0 -14 z "},"⁰":{"ha":1086,"x_min":75,"x_max":1011,"o":"m 75 824 q 185 1028 75 963 q 543 1103 315 1103 q 903 1028 775 1103 q 1011 824 1011 965 q 903 619 1011 685 q 543 544 781 544 q 185 619 313 544 q 75 824 75 682 m 181 824 q 260 689 181 732 q 543 639 356 639 q 826 689 738 639 q 906 824 906 735 q 826 958 906 918 q 543 1008 731 1008 q 260 958 356 1008 q 181 824 181 918 z "},"⁴":{"ha":1042,"x_min":47,"x_max":967,"o":"m 849 556 l 743 556 l 743 661 l 47 661 l 47 728 l 744 1092 l 849 1092 l 849 747 l 967 747 l 967 661 l 849 661 l 849 556 m 243 746 l 246 738 q 439 747 385 747 l 743 747 l 743 989 l 739 989 l 417 821 l 243 746 z "},"⁵":{"ha":986,"x_min":76,"x_max":911,"o":"m 190 869 l 192 869 q 497 883 364 883 q 813 851 721 883 q 911 722 911 817 q 886 631 911 664 q 808 578 861 597 q 486 544 717 544 q 297 551 397 544 q 139 567 196 558 l 83 574 l 93 665 q 486 639 310 639 q 754 660 682 639 q 806 722 806 675 q 746 779 806 765 q 497 797 669 797 q 317 792 417 797 q 157 783 217 788 l 97 778 l 76 793 l 106 1092 l 844 1092 l 844 997 l 203 997 l 190 869 z "},"⁶":{"ha":1067,"x_min":75,"x_max":992,"o":"m 938 1067 l 924 975 q 565 1008 765 1008 q 240 956 329 1008 q 181 863 185 922 l 182 861 q 571 890 372 890 q 882 864 788 890 q 992 725 992 832 q 915 592 992 631 q 571 544 825 544 q 182 610 293 544 q 75 814 75 672 q 174 1022 75 956 q 565 1103 292 1103 q 758 1094 665 1103 q 894 1075 851 1085 l 938 1067 m 571 804 q 181 782 454 804 q 238 686 183 721 q 571 639 311 639 q 824 658 754 639 q 886 726 886 676 q 811 789 886 776 q 571 804 726 804 z "},"⁷":{"ha":942,"x_min":47,"x_max":894,"o":"m 119 556 l 119 565 l 551 885 q 615 927 571 899 q 694 976 660 956 l 729 997 l 728 1003 q 533 997 615 997 l 47 997 l 47 1092 l 894 1092 l 894 1014 l 275 556 l 119 556 z "},"⁸":{"ha":989,"x_min":75,"x_max":914,"o":"m 842 588 q 494 544 754 544 q 147 588 235 544 q 75 708 75 624 q 192 833 75 807 l 192 835 q 97 944 97 856 q 172 1058 97 1022 q 494 1103 265 1103 q 817 1058 724 1103 q 892 944 892 1022 q 797 835 892 856 l 797 833 q 914 708 914 807 q 842 588 914 624 m 226 657 q 494 639 281 639 q 763 657 708 639 q 808 717 808 672 q 769 769 808 756 q 494 789 715 789 q 219 769 274 789 q 181 717 181 756 q 226 657 181 672 m 243 888 q 494 875 283 875 q 746 888 706 875 q 786 939 786 901 q 743 990 786 978 q 494 1008 681 1008 q 246 990 308 1008 q 203 939 203 978 q 243 888 203 901 z "},"⁹":{"ha":1067,"x_min":75,"x_max":992,"o":"m 118 579 l 118 671 q 501 639 283 639 q 825 692 740 639 q 886 785 882 726 l 885 786 q 496 758 704 758 q 185 782 269 758 q 75 919 75 814 q 156 1051 75 1010 q 496 1103 254 1103 q 883 1038 768 1103 q 992 833 992 976 q 900 625 992 688 q 501 544 782 544 q 304 553 400 544 q 164 569 208 561 l 118 579 m 496 844 q 886 867 681 844 q 829 961 883 928 q 496 1008 753 1008 q 243 988 318 1008 q 181 919 181 969 q 253 856 181 868 q 496 844 325 844 z "},"⁽":{"ha":389,"x_min":115,"x_max":321,"o":"m 221 814 q 243 608 221 681 q 321 474 265 536 l 321 456 l 242 456 q 145 589 175 517 q 115 814 115 661 q 145 1028 115 951 q 243 1164 175 1104 l 321 1164 l 321 1146 q 242 1013 264 1082 q 221 814 221 943 z "},"⁾":{"ha":389,"x_min":68,"x_max":274,"o":"m 168 814 q 147 1013 168 943 q 68 1146 125 1082 l 68 1164 l 146 1164 q 244 1028 214 1104 q 274 814 274 951 q 244 589 274 661 q 147 456 214 517 l 68 456 l 68 474 q 146 608 124 536 q 168 814 168 681 z "},"₀":{"ha":1086,"x_min":75,"x_max":1011,"o":"m 75 185 q 185 389 75 324 q 543 464 315 464 q 903 389 775 464 q 1011 185 1011 326 q 903 -19 1011 46 q 543 -94 781 -94 q 185 -19 313 -94 q 75 185 75 43 m 181 185 q 260 50 181 93 q 543 0 356 0 q 826 50 738 0 q 906 185 906 96 q 826 319 906 279 q 543 369 731 369 q 260 319 356 369 q 181 185 181 279 z "},"₁":{"ha":474,"x_min":8,"x_max":424,"o":"m 424 -83 l 315 -83 l 315 338 l 311 339 l 24 249 l 8 249 l 8 340 l 364 453 l 424 453 l 424 -83 z "},"₂":{"ha":976,"x_min":75,"x_max":901,"o":"m 118 329 l 103 426 q 488 464 286 464 q 829 417 740 464 q 901 288 901 376 q 825 154 901 183 q 722 135 785 139 q 488 131 660 131 q 249 121 308 131 q 181 53 181 110 l 181 11 l 881 11 l 881 -83 l 75 -83 l 75 53 q 181 200 75 164 q 488 225 253 225 q 754 235 718 225 q 796 288 796 244 q 750 344 796 328 q 488 369 678 369 q 309 360 401 369 q 167 339 217 350 l 118 329 z "},"₃":{"ha":972,"x_min":69,"x_max":897,"o":"m 69 -60 l 79 33 q 446 0 272 0 q 750 32 669 0 q 792 88 792 49 q 767 134 792 119 q 676 149 742 149 l 314 149 l 314 235 l 658 235 q 747 248 722 235 q 772 293 772 261 q 721 344 772 329 q 463 369 638 369 q 280 360 374 369 q 138 342 186 350 l 89 332 l 75 424 q 463 464 246 464 q 788 421 683 464 q 881 297 881 383 q 817 196 881 226 l 817 193 q 897 85 897 169 q 813 -44 897 -1 q 446 -94 714 -94 q 274 -86 368 -94 q 125 -69 179 -78 l 69 -60 z "},"₄":{"ha":1042,"x_min":47,"x_max":967,"o":"m 849 -83 l 743 -83 l 743 22 l 47 22 l 47 89 l 744 453 l 849 453 l 849 108 l 967 108 l 967 22 l 849 22 l 849 -83 m 243 107 l 246 99 q 439 108 385 108 l 743 108 l 743 350 l 739 350 l 417 182 l 243 107 z "},"₅":{"ha":986,"x_min":76,"x_max":911,"o":"m 190 231 l 192 231 q 497 244 364 244 q 813 213 721 244 q 911 83 911 178 q 886 -8 911 25 q 808 -61 861 -42 q 486 -94 717 -94 q 297 -87 397 -94 q 139 -72 196 -81 l 83 -65 l 93 26 q 486 0 310 0 q 754 21 682 0 q 806 83 806 36 q 746 140 806 126 q 497 158 669 158 q 317 153 417 158 q 157 144 217 149 l 97 139 l 76 154 l 106 453 l 844 453 l 844 358 l 203 358 l 190 231 z "},"₆":{"ha":1067,"x_min":75,"x_max":992,"o":"m 938 428 l 924 336 q 565 369 765 369 q 240 317 329 369 q 181 224 185 283 l 182 222 q 571 251 372 251 q 882 225 788 251 q 992 86 992 193 q 915 -47 992 -8 q 571 -94 825 -94 q 182 -29 293 -94 q 75 175 75 33 q 174 383 75 317 q 565 464 292 464 q 758 455 665 464 q 894 436 851 446 l 938 428 m 571 165 q 181 143 454 165 q 238 47 183 82 q 571 0 311 0 q 824 19 754 0 q 886 88 886 38 q 811 150 886 138 q 571 165 726 165 z "},"₇":{"ha":942,"x_min":47,"x_max":894,"o":"m 119 -83 l 119 -74 l 551 246 q 615 288 571 260 q 694 338 660 317 l 729 358 l 728 364 q 533 358 615 358 l 47 358 l 47 453 l 894 453 l 894 375 l 275 -83 l 119 -83 z "},"₈":{"ha":989,"x_min":75,"x_max":914,"o":"m 842 -51 q 494 -94 754 -94 q 147 -51 235 -94 q 75 69 75 -15 q 192 194 75 168 l 192 196 q 97 306 97 217 q 172 419 97 383 q 494 464 265 464 q 817 419 724 464 q 892 306 892 383 q 797 196 892 217 l 797 194 q 914 69 914 168 q 842 -51 914 -15 m 226 18 q 494 0 281 0 q 763 18 708 0 q 808 78 808 33 q 769 131 808 117 q 494 150 715 150 q 219 131 274 150 q 181 78 181 117 q 226 18 181 33 m 243 249 q 494 236 283 236 q 746 249 706 236 q 786 300 786 263 q 743 351 786 339 q 494 369 681 369 q 246 351 308 369 q 203 300 203 339 q 243 249 203 263 z "},"₉":{"ha":1067,"x_min":75,"x_max":992,"o":"m 118 -60 l 118 32 q 501 0 283 0 q 825 53 740 0 q 886 146 882 88 l 885 147 q 496 119 704 119 q 185 143 269 119 q 75 281 75 175 q 156 413 75 371 q 496 464 254 464 q 883 399 768 464 q 992 194 992 338 q 900 -14 992 49 q 501 -94 782 -94 q 304 -86 400 -94 q 164 -69 208 -78 l 118 -60 m 496 206 q 886 228 681 206 q 829 322 883 289 q 496 369 753 369 q 243 349 318 369 q 181 281 181 331 q 253 217 181 229 q 496 206 325 206 z "},"₍":{"ha":389,"x_min":115,"x_max":321,"o":"m 221 175 q 243 -31 221 42 q 321 -165 265 -103 l 321 -183 l 242 -183 q 145 -50 175 -122 q 115 175 115 22 q 145 389 115 313 q 243 525 175 465 l 321 525 l 321 507 q 242 374 264 443 q 221 175 221 304 z "},"₎":{"ha":389,"x_min":68,"x_max":274,"o":"m 168 175 q 147 374 168 304 q 68 507 125 443 l 68 525 l 146 525 q 244 389 214 465 q 274 175 274 313 q 244 -50 274 22 q 147 -183 214 -122 l 68 -183 l 68 -165 q 146 -31 124 -103 q 168 175 168 42 z "},"€":{"ha":1667,"x_min":42,"x_max":1578,"o":"m 42 546 l 86 625 l 246 625 q 396 842 282 761 q 988 964 568 964 q 1277 946 1129 964 q 1501 908 1425 928 l 1578 890 l 1578 876 l 1531 792 q 1286 834 1442 813 q 988 856 1131 856 q 474 757 614 856 q 379 625 408 710 l 1435 625 l 1379 531 l 361 531 q 358 468 358 504 l 361 408 l 1310 408 l 1254 314 l 379 314 q 481 183 407 226 q 988 89 633 89 q 1265 105 1121 89 q 1486 136 1408 121 l 1564 153 l 1576 46 q 1494 28 1547 39 q 1287 -1 1442 17 q 986 -19 1132 -19 q 399 96 583 -19 q 246 314 283 167 l 42 314 l 42 329 l 86 408 l 231 408 q 228 468 228 433 l 231 531 l 42 531 l 42 546 z "},"ℓ":{"ha":833,"x_min":53,"x_max":661,"o":"m 53 322 l 53 407 q 207 397 119 397 l 207 792 q 264 992 207 928 q 439 1056 321 1056 q 607 989 553 1056 q 661 783 661 922 l 661 746 q 576 432 661 536 q 315 311 492 328 l 315 253 q 356 120 315 160 q 483 81 396 81 q 539 83 511 81 q 581 89 567 86 l 593 92 l 597 0 q 483 -14 554 -14 q 276 51 344 -14 q 207 253 207 117 l 207 310 q 125 313 164 310 q 69 319 86 317 l 53 322 m 315 792 l 315 401 q 496 492 439 415 q 553 731 553 569 l 553 783 q 525 919 553 876 q 439 961 497 961 q 344 922 372 961 q 315 792 315 883 z "},"™":{"ha":1667,"x_min":36,"x_max":1611,"o":"m 1506 486 l 1506 735 l 1507 824 l 1503 825 q 1435 751 1458 771 l 1208 540 l 1204 540 l 981 751 l 911 825 l 907 824 q 908 735 908 764 l 908 486 l 803 486 l 803 958 l 896 958 l 1206 669 l 1208 669 l 1517 958 l 1611 958 l 1611 486 l 1506 486 m 325 864 l 36 864 l 36 958 l 719 958 l 719 864 l 431 864 l 431 486 l 325 486 l 325 864 z "},"Ω":{"ha":1667,"x_min":94,"x_max":1572,"o":"m 1433 533 q 833 847 1433 847 q 233 533 233 847 q 361 317 233 376 q 489 279 411 294 q 619 260 567 264 l 672 256 l 672 0 l 106 0 l 106 117 l 533 117 l 533 167 q 288 222 386 182 q 145 339 196 260 q 94 533 94 418 q 286 854 94 744 q 833 964 478 964 q 1381 854 1189 964 q 1572 533 1572 744 q 1522 339 1572 418 q 1379 222 1471 260 q 1133 167 1281 182 l 1133 117 l 1561 117 l 1561 0 l 994 0 l 994 256 q 1306 317 1194 265 q 1433 533 1433 376 z "},"℮":{"ha":1667,"x_min":76,"x_max":1590,"o":"m 1303 469 l 1313 478 l 1313 781 q 1292 814 1313 800 q 833 928 1114 928 q 371 808 529 928 q 354 774 354 794 l 354 478 l 364 469 l 1303 469 m 1590 431 l 364 431 l 354 424 l 354 169 q 371 138 354 150 q 833 17 535 17 q 1099 55 993 17 q 1300 171 1206 93 l 1496 171 l 1496 154 q 1210 26 1393 75 q 833 -22 1026 -22 q 290 122 504 -22 q 76 472 76 267 q 290 822 76 678 q 833 967 504 967 q 1225 900 1049 967 q 1496 728 1401 833 q 1590 508 1590 624 l 1590 431 z "},"⅓":{"ha":1838,"x_min":8,"x_max":1790,"o":"m 144 -14 l 1194 972 l 1310 972 l 1310 958 l 260 -28 l 144 -28 l 144 -14 m 424 408 l 315 408 l 315 829 l 311 831 l 24 740 l 8 740 l 8 832 l 364 944 l 424 944 l 424 408 m 963 24 l 972 117 q 1339 83 1165 83 q 1643 115 1564 83 q 1685 171 1685 132 q 1660 217 1685 203 q 1569 232 1635 232 l 1207 232 l 1207 318 l 1551 318 q 1640 331 1615 318 q 1665 376 1665 344 q 1614 428 1665 413 q 1356 453 1531 453 q 1173 443 1267 453 q 1031 425 1079 433 l 982 415 l 968 507 q 1356 547 1139 547 q 1681 504 1576 547 q 1774 381 1774 467 q 1710 279 1774 310 l 1710 276 q 1790 168 1790 253 q 1706 39 1790 82 q 1339 -11 1607 -11 q 1167 -3 1261 -11 q 1017 14 1072 6 l 963 24 z "},"⅔":{"ha":2442,"x_min":75,"x_max":2394,"o":"m 1567 24 l 1576 117 q 1943 83 1769 83 q 2247 115 2167 83 q 2289 171 2289 132 q 2264 217 2289 203 q 2174 232 2239 232 l 1811 232 l 1811 318 l 2156 318 q 2244 331 2219 318 q 2269 376 2269 344 q 2218 428 2269 413 q 1960 453 2135 453 q 1777 443 1871 453 q 1635 425 1683 433 l 1586 415 l 1572 507 q 1960 547 1743 547 q 2285 504 2181 547 q 2378 381 2378 467 q 2314 279 2378 310 l 2314 276 q 2394 168 2394 253 q 2310 39 2394 82 q 1943 -11 2211 -11 q 1771 -3 1865 -11 q 1622 14 1676 6 l 1567 24 m 118 821 l 103 918 q 488 956 286 956 q 829 908 740 956 q 901 779 901 868 q 825 646 901 675 q 722 626 785 631 q 488 622 660 622 q 249 613 308 622 q 181 544 181 601 l 181 503 l 881 503 l 881 408 l 75 408 l 75 544 q 181 692 75 656 q 488 717 253 717 q 754 726 718 717 q 796 779 796 736 q 750 836 796 819 q 488 861 678 861 q 309 851 401 861 q 167 831 217 842 l 118 821 m 646 -14 l 1696 972 l 1811 972 l 1811 958 l 761 -28 l 646 -28 l 646 -14 z "},"⅛":{"ha":1764,"x_min":8,"x_max":1689,"o":"m 1617 32 q 1269 -11 1529 -11 q 922 32 1010 -11 q 850 153 850 68 q 967 278 850 251 l 967 279 q 872 389 872 300 q 947 503 872 467 q 1269 547 1040 547 q 1592 503 1499 547 q 1667 389 1667 467 q 1572 279 1667 300 l 1572 278 q 1689 153 1689 251 q 1617 32 1689 68 m 1001 101 q 1269 83 1056 83 q 1538 101 1483 83 q 1583 161 1583 117 q 1544 214 1583 200 q 1269 233 1490 233 q 994 214 1049 233 q 956 161 956 200 q 1001 101 956 117 m 1018 332 q 1269 319 1058 319 q 1521 332 1481 319 q 1561 383 1561 346 q 1518 435 1561 422 q 1269 453 1456 453 q 1021 435 1083 453 q 978 383 978 422 q 1018 332 978 346 m 424 408 l 315 408 l 315 829 l 311 831 l 24 740 l 8 740 l 8 832 l 364 944 l 424 944 l 424 408 m 117 -14 l 1167 972 l 1282 972 l 1282 958 l 232 -28 l 117 -28 l 117 -14 z "},"⅜":{"ha":2238,"x_min":69,"x_max":2163,"o":"m 2090 32 q 1743 -11 2003 -11 q 1396 32 1483 -11 q 1324 153 1324 68 q 1440 278 1324 251 l 1440 279 q 1346 389 1346 300 q 1421 503 1346 467 q 1743 547 1514 547 q 2065 503 1972 547 q 2140 389 2140 467 q 2046 279 2140 300 l 2046 278 q 2163 153 2163 251 q 2090 32 2163 68 m 1475 101 q 1743 83 1529 83 q 2011 101 1957 83 q 2057 161 2057 117 q 2018 214 2057 200 q 1743 233 1964 233 q 1468 214 1522 233 q 1429 161 1429 200 q 1475 101 1429 117 m 1492 332 q 1743 319 1532 319 q 1994 332 1954 319 q 2035 383 2035 346 q 1992 435 2035 422 q 1743 453 1929 453 q 1494 435 1557 453 q 1451 383 1451 422 q 1492 332 1451 346 m 69 432 l 79 525 q 446 492 272 492 q 750 524 669 492 q 792 579 792 540 q 767 626 792 611 q 676 640 742 640 l 314 640 l 314 726 l 658 726 q 747 740 722 726 q 772 785 772 753 q 721 836 772 821 q 463 861 638 861 q 280 851 374 861 q 138 833 186 842 l 89 824 l 75 915 q 463 956 246 956 q 788 913 683 956 q 881 789 881 875 q 817 688 881 718 l 817 685 q 897 576 897 661 q 813 447 897 490 q 446 397 714 397 q 274 406 368 397 q 125 422 179 414 l 69 432 m 521 -14 l 1571 972 l 1686 972 l 1686 958 l 636 -28 l 521 -28 l 521 -14 z "},"⅝":{"ha":2304,"x_min":76,"x_max":2229,"o":"m 2157 32 q 1810 -11 2069 -11 q 1463 32 1550 -11 q 1390 153 1390 68 q 1507 278 1390 251 l 1507 279 q 1413 389 1413 300 q 1488 503 1413 467 q 1810 547 1581 547 q 2132 503 2039 547 q 2207 389 2207 467 q 2113 279 2207 300 l 2113 278 q 2229 153 2229 251 q 2157 32 2229 68 m 1542 101 q 1810 83 1596 83 q 2078 101 2024 83 q 2124 161 2124 117 q 2085 214 2124 200 q 1810 233 2031 233 q 1535 214 1589 233 q 1496 161 1496 200 q 1542 101 1496 117 m 1558 332 q 1810 319 1599 319 q 2061 332 2021 319 q 2101 383 2101 346 q 2058 435 2101 422 q 1810 453 1996 453 q 1561 435 1624 453 q 1518 383 1518 422 q 1558 332 1518 346 m 190 722 l 192 722 q 497 736 364 736 q 813 704 721 736 q 911 575 911 669 q 886 483 911 517 q 808 431 861 450 q 486 397 717 397 q 297 404 397 397 q 139 419 196 411 l 83 426 l 93 518 q 486 492 310 492 q 754 513 682 492 q 806 575 806 528 q 746 632 806 618 q 497 650 669 650 q 317 645 417 650 q 157 636 217 640 l 97 631 l 76 646 l 106 944 l 844 944 l 844 850 l 203 850 l 190 722 m 571 -14 l 1621 972 l 1736 972 l 1736 958 l 686 -28 l 571 -28 l 571 -14 z "},"⅞":{"ha":2035,"x_min":19,"x_max":1807,"o":"m 1735 32 q 1388 -11 1647 -11 q 1040 32 1128 -11 q 968 153 968 68 q 1085 278 968 251 l 1085 279 q 990 389 990 300 q 1065 503 990 467 q 1388 547 1158 547 q 1710 503 1617 547 q 1785 389 1785 467 q 1690 279 1785 300 l 1690 278 q 1807 153 1807 251 q 1735 32 1807 68 m 1119 101 q 1388 83 1174 83 q 1656 101 1601 83 q 1701 161 1701 117 q 1663 214 1701 200 q 1388 233 1608 233 q 1113 214 1167 233 q 1074 161 1074 200 q 1119 101 1074 117 m 1136 332 q 1388 319 1176 319 q 1639 332 1599 319 q 1679 383 1679 346 q 1636 435 1679 422 q 1388 453 1574 453 q 1139 435 1201 453 q 1096 383 1096 422 q 1136 332 1096 346 m 92 408 l 92 418 l 524 738 q 588 780 543 751 q 667 829 632 808 l 701 850 l 700 856 q 506 850 588 850 l 19 850 l 19 944 l 867 944 l 867 867 l 247 408 l 92 408 m 164 -14 l 1214 972 l 1329 972 l 1329 958 l 279 -28 l 164 -28 l 164 -14 z "},"∂":{"ha":1667,"x_min":94,"x_max":1572,"o":"m 833 -14 q 258 85 438 -14 q 94 361 94 174 q 257 636 94 547 q 800 736 442 736 q 1368 642 1201 736 l 1369 643 q 1004 866 1275 779 q 289 953 733 953 l 294 1061 q 699 1038 511 1061 q 1049 963 888 1015 q 1326 834 1211 911 q 1507 644 1442 757 q 1572 389 1572 531 q 1408 85 1572 178 q 833 -14 1232 -14 m 350 168 q 833 94 504 94 q 1317 168 1163 94 q 1442 361 1442 226 q 1322 556 1442 497 q 833 628 1171 628 q 344 556 496 628 q 225 361 225 497 q 350 168 225 226 z "},"∆":{"ha":1667,"x_min":54,"x_max":1613,"o":"m 1613 0 l 54 0 l 54 89 l 785 944 l 882 944 l 1613 89 l 1613 0 m 836 792 l 831 792 l 254 117 l 1413 117 l 836 792 z "},"∏":{"ha":1667,"x_min":101,"x_max":1565,"o":"m 1565 0 l 1426 0 l 1426 828 l 240 828 l 240 0 l 101 0 l 101 944 l 1565 944 l 1565 0 z "},"∑":{"ha":1667,"x_min":97,"x_max":1568,"o":"m 1568 944 l 1568 828 l 732 828 l 411 839 l 410 832 q 708 729 615 768 l 1285 486 l 1285 458 l 663 194 l 438 113 l 439 106 q 686 117 621 117 l 1568 117 l 1568 0 l 97 0 l 97 76 l 1018 467 l 1018 478 l 97 867 l 97 944 l 1568 944 z "},"−":{"ha":1667,"x_min":228,"x_max":1439,"o":"m 1439 383 l 228 383 l 228 478 l 1439 478 l 1439 383 z "},"√":{"ha":1667,"x_min":74,"x_max":1661,"o":"m 74 511 l 74 606 l 586 606 l 836 90 l 890 -31 l 897 -31 q 960 90 921 22 l 1547 1111 l 1661 1111 l 1661 1096 l 950 -139 l 829 -139 l 514 511 l 74 511 z "},"∞":{"ha":1667,"x_min":160,"x_max":1507,"o":"m 831 350 q 717 213 761 260 q 610 133 674 167 q 474 100 547 100 q 160 431 160 100 q 240 678 160 596 q 474 761 321 761 q 657 702 578 761 q 831 510 736 643 l 836 510 q 1010 702 931 643 q 1193 761 1089 761 q 1426 678 1346 761 q 1507 431 1507 596 q 1193 100 1507 100 q 1056 133 1119 100 q 949 213 993 167 q 836 350 906 260 l 831 350 m 474 194 q 606 243 544 194 q 742 393 667 292 l 769 431 l 742 468 q 601 624 658 581 q 474 667 544 667 q 263 431 263 667 q 474 194 263 194 m 1193 194 q 1404 431 1404 194 q 1193 667 1404 667 q 1065 624 1122 667 q 925 468 1008 581 l 897 431 l 925 393 q 1061 243 1000 292 q 1193 194 1122 194 z "},"∫":{"ha":833,"x_min":54,"x_max":779,"o":"m 54 -350 l 54 -267 l 64 -258 q 197 -267 131 -267 q 326 -228 288 -267 q 364 -100 364 -190 l 364 972 q 426 1170 364 1107 q 633 1233 489 1233 q 705 1231 668 1233 q 761 1225 742 1228 l 779 1222 l 779 1139 l 769 1131 q 636 1139 703 1139 q 508 1101 546 1139 q 469 972 469 1063 l 469 -100 q 407 -298 469 -235 q 200 -361 344 -361 q 128 -358 165 -361 q 72 -353 92 -356 l 54 -350 z "},"≈":{"ha":1667,"x_min":206,"x_max":1460,"o":"m 1443 319 l 1460 233 q 1122 115 1292 115 q 963 143 1043 115 q 826 203 882 171 q 693 264 769 236 q 544 292 617 292 q 477 285 511 292 q 419 273 443 279 q 365 252 396 267 q 319 230 333 238 q 276 205 306 222 q 240 185 246 188 l 224 185 l 206 274 q 544 386 379 386 q 700 358 619 386 q 839 298 781 331 q 974 238 897 265 q 1121 210 1051 210 q 1176 213 1149 210 q 1223 221 1203 217 q 1268 234 1243 225 q 1306 248 1293 243 q 1342 267 1318 253 q 1373 284 1367 281 q 1403 303 1379 288 q 1428 319 1426 318 l 1443 319 m 1443 678 l 1460 592 q 1122 474 1292 474 q 963 501 1043 474 q 826 562 882 529 q 693 622 769 594 q 544 650 617 650 q 477 644 511 650 q 419 631 443 638 q 365 610 396 625 q 319 588 333 596 q 276 563 306 581 q 240 543 246 546 l 224 543 l 206 632 q 544 744 379 744 q 700 717 619 744 q 839 656 781 689 q 974 596 897 624 q 1121 568 1051 568 q 1176 572 1149 568 q 1223 579 1203 575 q 1268 592 1243 583 q 1306 606 1293 601 q 1342 625 1318 611 q 1373 642 1367 639 q 1403 661 1379 646 q 1428 678 1426 676 l 1443 678 z "},"≠":{"ha":1667,"x_min":208,"x_max":1458,"o":"m 1458 224 l 786 224 l 679 -28 l 592 -28 l 592 -12 l 692 224 l 208 224 l 208 318 l 732 318 l 828 543 l 208 543 l 208 638 l 868 638 l 988 917 l 1075 917 l 1075 901 l 963 638 l 1458 638 l 1458 543 l 922 543 l 826 318 l 1458 318 l 1458 224 z "},"≤":{"ha":1667,"x_min":208,"x_max":1458,"o":"m 208 94 l 208 200 l 1458 200 l 1458 94 l 208 94 m 1458 850 l 656 654 q 556 634 617 644 q 456 618 496 624 l 415 613 l 415 607 q 656 565 569 586 l 1458 369 l 1458 261 l 208 567 l 208 651 l 1458 958 l 1458 850 z "},"≥":{"ha":1667,"x_min":208,"x_max":1458,"o":"m 1458 200 l 1458 94 l 208 94 l 208 200 l 1458 200 m 1011 654 l 208 850 l 208 958 l 1458 651 l 1458 567 l 208 261 l 208 369 l 1011 565 q 1110 585 1050 575 q 1211 601 1169 596 l 1251 607 l 1251 613 q 1011 654 1099 633 z "},"◊":{"ha":1111,"x_min":111,"x_max":1000,"o":"m 1000 451 l 592 -83 l 519 -83 l 111 451 l 519 986 l 592 986 l 1000 451 m 554 44 l 557 44 l 869 451 l 557 858 l 554 858 l 242 451 l 554 44 z "},"":{"ha":1667,"x_min":75,"x_max":1592,"o":"m 75 472 q 251 831 75 718 q 833 964 460 964 q 1417 831 1210 964 q 1592 472 1592 718 q 1417 114 1592 226 q 833 -19 1210 -19 q 251 113 458 -19 q 119 255 164 169 q 75 472 75 340 m 206 471 q 350 194 206 282 q 833 89 526 89 q 1322 194 1146 89 q 1461 471 1461 279 q 1321 750 1461 664 q 833 856 1146 856 q 346 750 522 856 q 206 471 206 664 z "},"":{"ha":1667,"x_min":124,"x_max":1542,"o":"m 193 789 l 172 894 q 481 942 285 921 q 843 964 676 964 q 1357 903 1190 964 q 1542 660 1542 835 q 1411 447 1542 500 q 825 400 1294 400 q 385 369 496 400 q 254 214 254 332 l 254 108 l 1517 108 l 1517 0 l 124 0 l 124 168 q 165 357 124 286 q 318 465 206 428 q 510 500 396 492 q 825 508 624 508 q 1325 538 1236 508 q 1411 663 1411 565 q 1307 804 1411 763 q 843 856 1178 856 q 193 789 506 856 z "},"":{"ha":1667,"x_min":97,"x_max":1526,"o":"m 97 43 l 111 150 q 740 88 460 88 q 1058 102 928 88 q 1260 146 1188 117 q 1365 211 1333 175 q 1396 296 1396 247 q 1347 400 1396 367 q 1174 433 1297 433 l 571 433 l 571 533 l 1157 533 q 1365 669 1365 533 q 765 856 1365 856 q 460 839 619 856 q 214 806 300 822 l 128 790 l 107 894 q 201 914 142 903 q 435 944 261 925 q 765 964 608 964 q 1496 685 1496 964 q 1374 492 1496 535 l 1374 488 q 1488 416 1450 468 q 1526 296 1526 364 q 1508 198 1526 242 q 1437 113 1489 154 q 1299 43 1385 71 q 1072 -2 1214 15 q 740 -19 931 -19 q 449 -4 610 -19 q 192 28 288 11 l 97 43 z "},"":{"ha":1667,"x_min":56,"x_max":1606,"o":"m 1392 0 l 1261 0 l 1261 197 l 56 197 l 56 285 l 1249 944 l 1392 944 l 1392 306 l 1606 306 l 1606 197 l 1392 197 l 1392 0 m 293 297 q 482 306 394 306 l 1261 306 l 1261 824 l 1254 824 l 456 382 q 387 347 428 367 q 319 317 346 328 l 292 304 l 293 297 z "},"":{"ha":1667,"x_min":128,"x_max":1544,"o":"m 1435 944 l 1435 836 l 297 836 l 269 554 l 274 551 q 851 579 576 579 q 1401 519 1256 579 q 1544 290 1544 461 q 1374 43 1544 110 q 822 -19 1215 -19 q 136 29 460 -19 l 149 135 q 822 89 499 89 q 1140 99 1024 89 q 1319 140 1257 110 q 1411 289 1411 183 q 1304 433 1411 397 q 839 471 1190 471 q 526 463 699 471 q 251 447 354 456 l 149 440 l 128 461 l 176 944 l 1435 944 z "},"":{"ha":1667,"x_min":63,"x_max":1604,"o":"m 1513 893 l 1490 788 q 894 856 1200 856 q 311 744 476 856 q 196 529 206 674 q 199 528 197 529 q 201 528 200 528 q 326 543 243 533 q 575 563 408 553 q 894 574 742 574 q 1406 532 1251 574 q 1556 448 1507 504 q 1604 294 1604 392 q 1493 75 1604 146 q 897 -19 1343 -19 q 253 93 456 -19 q 63 457 63 199 q 233 824 63 708 q 894 964 443 964 q 1513 893 1239 964 m 894 465 q 196 426 592 465 l 196 422 q 333 181 200 258 q 897 89 489 89 q 1375 144 1256 89 q 1471 294 1471 189 q 1325 439 1471 408 q 894 465 1200 465 z "},"":{"ha":1667,"x_min":58,"x_max":1606,"o":"m 432 0 l 246 0 l 246 14 l 1231 713 q 1310 764 1257 732 q 1404 818 1364 796 l 1444 840 l 1443 847 q 1193 836 1286 836 l 58 836 l 58 944 l 1606 944 l 1606 832 l 432 0 z "},"":{"ha":1667,"x_min":69,"x_max":1597,"o":"m 1479 63 q 833 -19 1324 -19 q 188 63 343 -19 q 69 267 69 125 q 182 456 69 394 q 299 492 231 482 l 299 497 q 204 526 240 506 q 111 689 111 575 q 222 872 111 813 q 833 964 392 964 q 1444 872 1275 964 q 1556 689 1556 813 q 1463 526 1556 575 q 1368 497 1426 506 l 1368 492 q 1485 456 1436 482 q 1597 267 1597 394 q 1479 63 1597 125 m 296 139 q 833 89 422 89 q 1371 139 1244 89 q 1467 274 1467 176 q 1381 400 1467 363 q 1026 436 1299 436 l 640 436 q 286 400 368 436 q 200 274 200 363 q 296 139 200 176 m 342 574 q 640 544 436 544 l 1026 544 q 1325 574 1231 544 q 1425 688 1425 606 q 1335 807 1425 772 q 833 856 1208 856 q 332 807 458 856 q 242 688 242 772 q 342 574 242 606 z "},"":{"ha":1667,"x_min":63,"x_max":1604,"o":"m 1360 200 q 1471 431 1469 275 l 1468 431 q 739 367 1096 367 q 253 403 383 367 q 63 643 63 454 q 204 871 63 794 q 769 964 381 964 q 1413 847 1207 964 q 1553 700 1501 796 q 1604 478 1604 604 q 1569 263 1604 349 q 1444 114 1533 176 q 749 -19 1256 -19 q 138 44 401 -19 l 138 153 q 749 89 432 89 q 1130 119 971 89 q 1360 200 1289 150 m 314 501 q 739 475 421 475 q 1049 488 874 475 q 1335 513 1224 500 q 1471 531 1446 525 q 1328 765 1458 692 q 769 856 1165 856 q 282 789 404 856 q 196 643 196 740 q 314 501 196 531 z "},"":{"ha":1086,"x_min":75,"x_max":1011,"o":"m 75 268 q 185 472 75 407 q 543 547 315 547 q 903 472 775 547 q 1011 268 1011 410 q 903 64 1011 129 q 543 -11 781 -11 q 185 64 313 -11 q 75 268 75 126 m 181 268 q 260 133 181 176 q 543 83 356 83 q 826 133 738 83 q 906 268 906 179 q 826 403 906 363 q 543 453 731 453 q 260 403 356 453 q 181 268 181 363 z "},"":{"ha":474,"x_min":8,"x_max":424,"o":"m 424 0 l 315 0 l 315 421 l 311 422 l 24 332 l 8 332 l 8 424 l 364 536 l 424 536 l 424 0 z "},"":{"ha":976,"x_min":75,"x_max":901,"o":"m 118 413 l 103 510 q 488 547 286 547 q 829 500 740 547 q 901 371 901 460 q 825 238 901 267 q 722 218 785 222 q 488 214 660 214 q 249 204 308 214 q 181 136 181 193 l 181 94 l 881 94 l 881 0 l 75 0 l 75 136 q 181 283 75 247 q 488 308 253 308 q 754 318 718 308 q 796 371 796 328 q 750 428 796 411 q 488 453 678 453 q 309 443 401 453 q 167 422 217 433 l 118 413 z "},"":{"ha":972,"x_min":69,"x_max":897,"o":"m 69 24 l 79 117 q 446 83 272 83 q 750 115 669 83 q 792 171 792 132 q 767 217 792 203 q 676 232 742 232 l 314 232 l 314 318 l 658 318 q 747 331 722 318 q 772 376 772 344 q 721 428 772 413 q 463 453 638 453 q 280 443 374 453 q 138 425 186 433 l 89 415 l 75 507 q 463 547 246 547 q 788 504 683 547 q 881 381 881 467 q 817 279 881 310 l 817 276 q 897 168 897 253 q 813 39 897 82 q 446 -11 714 -11 q 274 -3 368 -11 q 125 14 179 6 l 69 24 z "},"":{"ha":1042,"x_min":47,"x_max":967,"o":"m 849 0 l 743 0 l 743 106 l 47 106 l 47 172 l 744 536 l 849 536 l 849 192 l 967 192 l 967 106 l 849 106 l 849 0 m 243 190 l 246 182 q 439 192 385 192 l 743 192 l 743 433 l 739 433 l 417 265 l 243 190 z "},"":{"ha":986,"x_min":76,"x_max":911,"o":"m 190 314 l 192 314 q 497 328 364 328 q 813 296 721 328 q 911 167 911 261 q 886 75 911 108 q 808 22 861 42 q 486 -11 717 -11 q 297 -4 397 -11 q 139 11 196 3 l 83 18 l 93 110 q 486 83 310 83 q 754 104 682 83 q 806 167 806 119 q 746 224 806 210 q 497 242 669 242 q 317 237 417 242 q 157 228 217 232 l 97 222 l 76 238 l 106 536 l 844 536 l 844 442 l 203 442 l 190 314 z "},"":{"ha":1067,"x_min":75,"x_max":992,"o":"m 938 511 l 924 419 q 565 453 765 453 q 240 400 329 453 q 181 307 185 367 l 182 306 q 571 335 372 335 q 882 308 788 335 q 992 169 992 276 q 915 36 992 75 q 571 -11 825 -11 q 182 54 293 -11 q 75 258 75 117 q 174 467 75 400 q 565 547 292 547 q 758 538 665 547 q 894 519 851 529 l 938 511 m 571 249 q 181 226 454 249 q 238 131 183 165 q 571 83 311 83 q 824 103 754 83 q 886 171 886 121 q 811 233 886 221 q 571 249 726 249 z "},"":{"ha":942,"x_min":47,"x_max":894,"o":"m 119 0 l 119 10 l 551 329 q 615 372 571 343 q 694 421 660 400 l 729 442 l 728 447 q 533 442 615 442 l 47 442 l 47 536 l 894 536 l 894 458 l 275 0 l 119 0 z "},"":{"ha":989,"x_min":75,"x_max":914,"o":"m 842 32 q 494 -11 754 -11 q 147 32 235 -11 q 75 153 75 68 q 192 278 75 251 l 192 279 q 97 389 97 300 q 172 503 97 467 q 494 547 265 547 q 817 503 724 547 q 892 389 892 467 q 797 279 892 300 l 797 278 q 914 153 914 251 q 842 32 914 68 m 226 101 q 494 83 281 83 q 763 101 708 83 q 808 161 808 117 q 769 214 808 200 q 494 233 715 233 q 219 214 274 233 q 181 161 181 200 q 226 101 181 117 m 243 332 q 494 319 283 319 q 746 332 706 319 q 786 383 786 346 q 743 435 786 422 q 494 453 681 453 q 246 435 308 453 q 203 383 203 422 q 243 332 203 346 z "},"":{"ha":1067,"x_min":75,"x_max":992,"o":"m 118 24 l 118 115 q 501 83 283 83 q 825 136 740 83 q 886 229 882 171 l 885 231 q 496 203 704 203 q 185 226 269 203 q 75 364 75 258 q 156 496 75 454 q 496 547 254 547 q 883 482 768 547 q 992 278 992 421 q 900 69 992 132 q 501 -11 782 -11 q 304 -3 400 -11 q 164 14 208 6 l 118 24 m 496 289 q 886 311 681 289 q 829 406 883 372 q 496 453 753 453 q 243 432 318 453 q 181 364 181 414 q 253 300 181 313 q 496 289 325 289 z "},"":{"ha":1086,"x_min":75,"x_max":1011,"o":"m 75 676 q 185 881 75 815 q 543 956 315 956 q 903 881 775 956 q 1011 676 1011 818 q 903 472 1011 538 q 543 397 781 397 q 185 472 313 397 q 75 676 75 535 m 181 676 q 260 542 181 585 q 543 492 356 492 q 826 542 738 492 q 906 676 906 588 q 826 811 906 771 q 543 861 731 861 q 260 811 356 861 q 181 676 181 771 z "},"":{"ha":474,"x_min":8,"x_max":424,"o":"m 424 408 l 315 408 l 315 829 l 311 831 l 24 740 l 8 740 l 8 832 l 364 944 l 424 944 l 424 408 z "},"":{"ha":976,"x_min":75,"x_max":901,"o":"m 118 821 l 103 918 q 488 956 286 956 q 829 908 740 956 q 901 779 901 868 q 825 646 901 675 q 722 626 785 631 q 488 622 660 622 q 249 613 308 622 q 181 544 181 601 l 181 503 l 881 503 l 881 408 l 75 408 l 75 544 q 181 692 75 656 q 488 717 253 717 q 754 726 718 717 q 796 779 796 736 q 750 836 796 819 q 488 861 678 861 q 309 851 401 861 q 167 831 217 842 l 118 821 z "},"":{"ha":972,"x_min":69,"x_max":897,"o":"m 69 432 l 79 525 q 446 492 272 492 q 750 524 669 492 q 792 579 792 540 q 767 626 792 611 q 676 640 742 640 l 314 640 l 314 726 l 658 726 q 747 740 722 726 q 772 785 772 753 q 721 836 772 821 q 463 861 638 861 q 280 851 374 861 q 138 833 186 842 l 89 824 l 75 915 q 463 956 246 956 q 788 913 683 956 q 881 789 881 875 q 817 688 881 718 l 817 685 q 897 576 897 661 q 813 447 897 490 q 446 397 714 397 q 274 406 368 397 q 125 422 179 414 l 69 432 z "},"":{"ha":1042,"x_min":47,"x_max":967,"o":"m 849 408 l 743 408 l 743 514 l 47 514 l 47 581 l 744 944 l 849 944 l 849 600 l 967 600 l 967 514 l 849 514 l 849 408 m 243 599 l 246 590 q 439 600 385 600 l 743 600 l 743 842 l 739 842 l 417 674 l 243 599 z "},"":{"ha":986,"x_min":76,"x_max":911,"o":"m 190 722 l 192 722 q 497 736 364 736 q 813 704 721 736 q 911 575 911 669 q 886 483 911 517 q 808 431 861 450 q 486 397 717 397 q 297 404 397 397 q 139 419 196 411 l 83 426 l 93 518 q 486 492 310 492 q 754 513 682 492 q 806 575 806 528 q 746 632 806 618 q 497 650 669 650 q 317 645 417 650 q 157 636 217 640 l 97 631 l 76 646 l 106 944 l 844 944 l 844 850 l 203 850 l 190 722 z "},"":{"ha":1067,"x_min":75,"x_max":992,"o":"m 938 919 l 924 828 q 565 861 765 861 q 240 808 329 861 q 181 715 185 775 l 182 714 q 571 743 371 743 q 882 717 788 743 q 992 578 992 685 q 915 444 992 483 q 571 397 825 397 q 182 463 293 397 q 75 667 75 525 q 174 875 75 808 q 565 956 292 956 q 758 947 665 956 q 894 928 851 938 l 938 919 m 571 657 q 181 635 454 657 q 238 539 183 574 q 571 492 311 492 q 824 511 754 492 q 886 579 886 529 q 811 642 886 629 q 571 657 726 657 z "},"":{"ha":942,"x_min":47,"x_max":894,"o":"m 119 408 l 119 418 l 551 738 q 615 780 571 751 q 694 829 660 808 l 729 850 l 728 856 q 533 850 615 850 l 47 850 l 47 944 l 894 944 l 894 867 l 275 408 l 119 408 z "},"":{"ha":989,"x_min":75,"x_max":914,"o":"m 842 440 q 494 397 754 397 q 147 440 235 397 q 75 561 75 476 q 192 686 75 660 l 192 688 q 97 797 97 708 q 172 911 97 875 q 494 956 265 956 q 817 911 724 956 q 892 797 892 875 q 797 688 892 708 l 797 686 q 914 561 914 660 q 842 440 914 476 m 226 510 q 494 492 281 492 q 763 510 708 492 q 808 569 808 525 q 769 622 808 608 q 494 642 715 642 q 219 622 274 642 q 181 569 181 608 q 226 510 181 525 m 243 740 q 494 728 283 728 q 746 740 706 728 q 786 792 786 754 q 743 843 786 831 q 494 861 681 861 q 246 843 308 861 q 203 792 203 831 q 243 740 203 754 z "},"":{"ha":1067,"x_min":75,"x_max":992,"o":"m 118 432 l 118 524 q 501 492 283 492 q 825 544 740 492 q 886 638 882 579 l 885 639 q 496 611 704 611 q 185 635 269 611 q 75 772 75 667 q 156 904 75 863 q 496 956 254 956 q 883 890 768 956 q 992 686 992 829 q 900 478 992 540 q 501 397 782 397 q 304 406 400 397 q 164 422 208 414 l 118 432 m 496 697 q 886 719 681 697 q 829 814 883 781 q 496 861 753 861 q 243 840 318 861 q 181 772 181 822 q 253 708 181 721 q 496 697 325 697 z "},"":{"ha":556,"x_min":199,"x_max":357,"o":"m 199 -161 q 278 -83 199 -83 q 357 -161 357 -83 q 322 -299 357 -211 l 286 -392 l 214 -392 l 214 -381 l 250 -240 l 250 -236 q 199 -161 199 -225 z "},"":{"ha":1389,"x_min":133,"x_max":1092,"o":"m 797 1069 l 1092 894 l 1092 875 l 956 875 l 626 1039 l 626 1069 l 797 1069 m 304 1069 l 599 894 l 599 875 l 463 875 l 133 1039 l 133 1069 l 304 1069 z "},"":{"ha":1667,"x_min":75,"x_max":1592,"o":"m 75 0 l 75 108 l 888 108 l 888 833 l 885 833 l 275 633 l 263 633 l 263 742 l 924 958 l 1018 958 l 1018 108 l 1592 108 l 1592 0 l 75 0 z "},"ﬀ":{"ha":2340,"x_min":14,"x_max":2243,"o":"m 2200 594 l 2200 486 l 1400 486 l 1400 0 l 1269 0 l 1269 486 l 289 486 l 289 0 l 158 0 l 158 486 l 14 486 l 14 594 l 158 594 l 158 631 q 288 883 158 808 q 708 958 418 958 q 1104 919 921 958 l 1083 814 q 708 850 900 850 q 440 824 532 850 q 318 753 347 799 q 289 625 289 708 l 289 594 l 1269 594 l 1269 631 q 1399 883 1269 808 q 1819 958 1529 958 q 2243 913 2057 958 l 2225 807 q 1819 850 2015 850 q 1551 824 1643 850 q 1429 753 1458 799 q 1400 625 1400 708 l 1400 594 l 2200 594 z "},"﬙":{"ha":2379,"x_min":28,"x_max":2296,"o":"m 1326 928 l 1419 944 l 1457 944 l 1457 750 l 2286 750 l 2286 642 l 1457 642 l 1457 331 q 1465 245 1457 279 q 1499 180 1474 211 q 1571 132 1524 149 q 1696 105 1618 115 q 1888 94 1774 94 q 2282 143 2100 94 l 2296 36 q 1888 -14 2114 -14 q 1648 1 1749 -14 q 1485 44 1547 17 q 1388 115 1424 71 q 1340 209 1353 160 q 1326 326 1326 258 l 1326 642 l 303 642 l 303 331 q 311 245 303 279 q 344 180 319 211 q 417 132 369 149 q 542 105 464 115 q 733 94 619 94 q 1111 139 933 94 l 1125 32 q 733 -14 949 -14 q 494 1 594 -14 q 331 44 393 17 q 234 115 269 71 q 185 209 199 160 q 172 326 172 258 l 172 642 l 28 642 l 28 750 l 172 750 l 172 928 l 265 944 l 303 944 l 303 750 l 1326 750 l 1326 928 z "},"﬚":{"ha":2564,"x_min":28,"x_max":2522,"o":"m 1349 -239 l 1742 146 l 1742 149 l 1186 642 l 303 642 l 303 331 q 311 245 303 279 q 344 180 319 211 q 417 132 369 149 q 542 105 464 115 q 733 94 619 94 q 1128 143 946 94 l 1142 36 q 733 -14 960 -14 q 494 1 594 -14 q 331 44 393 17 q 234 115 269 71 q 185 209 199 160 q 172 326 172 258 l 172 642 l 28 642 l 28 750 l 172 750 l 172 928 l 265 944 l 303 944 l 303 750 l 1249 750 l 1829 236 l 1833 236 l 2358 750 l 2522 750 l 2522 739 l 1513 -250 l 1349 -250 l 1349 -239 z "},"﬛":{"ha":3718,"x_min":28,"x_max":3676,"o":"m 2503 -239 l 2896 146 l 2896 149 l 2340 642 l 1457 642 l 1457 331 q 1465 245 1457 279 q 1499 180 1474 211 q 1571 132 1524 149 q 1696 105 1618 115 q 1888 94 1774 94 q 2282 143 2100 94 l 2296 36 q 1888 -14 2114 -14 q 1648 1 1749 -14 q 1485 44 1547 17 q 1388 115 1424 71 q 1340 209 1353 160 q 1326 326 1326 258 l 1326 642 l 303 642 l 303 331 q 311 245 303 279 q 344 180 319 211 q 417 132 369 149 q 542 105 464 115 q 733 94 619 94 q 1111 139 933 94 l 1125 32 q 733 -14 949 -14 q 494 1 594 -14 q 331 44 393 17 q 234 115 269 71 q 185 209 199 160 q 172 326 172 258 l 172 642 l 28 642 l 28 750 l 172 750 l 172 928 l 265 944 l 303 944 l 303 750 l 1326 750 l 1326 928 l 1419 944 l 1457 944 l 1457 750 l 2403 750 l 2983 236 l 2988 236 l 3513 750 l 3676 750 l 3676 739 l 2667 -250 l 2503 -250 l 2503 -239 z "}}}
